<svg version="1.1" id="Layer_1" xmlns="http://www.w3.org/2000/svg" xmlns:xlink="http://www.w3.org/1999/xlink" x="0px" y="0px"
	 width="100%" viewBox="0 0 500 500" enable-background="new 0 0 500 500" xml:space="preserve">
<path fill="#333333" opacity="1.000000" stroke="none" 
	d="
M278.000000,501.000000 
	C185.333359,501.000000 93.166710,501.000000 1.000049,501.000000 
	C1.000033,334.333405 1.000033,167.666794 1.000016,1.000139 
	C167.666565,1.000093 334.333130,1.000093 500.999756,1.000046 
	C500.999847,167.666519 500.999847,334.333038 500.999939,500.999786 
	C426.833344,501.000000 352.666656,501.000000 278.000000,501.000000 
M454.633362,225.877914 
	C455.422668,222.099136 456.858276,218.326614 456.894897,214.540558 
	C457.110840,192.215225 457.012543,169.886765 456.996338,147.559372 
	C456.988708,137.024124 449.035248,129.030563 438.553802,129.003433 
	C429.722870,128.980591 420.884613,128.785126 412.063721,129.083786 
	C407.248047,129.246857 403.532593,128.532425 401.065857,123.756004 
	C399.674774,121.062431 397.336914,118.736069 395.059021,116.643234 
	C384.992981,107.395134 375.353241,97.561829 364.537170,89.274185 
	C333.187500,65.253059 297.213776,52.853149 258.027405,50.168346 
	C242.605560,49.111740 227.146286,50.214615 211.725250,52.782127 
	C192.564270,55.972317 174.190674,61.519924 157.057632,70.252708 
	C144.728821,76.536751 133.344162,84.779007 121.908691,92.683540 
	C107.071396,102.939529 95.095764,116.315315 84.301033,130.555557 
	C73.644943,144.612900 65.135315,160.046158 58.767750,176.602615 
	C50.596966,197.847656 45.759724,219.791672 45.094627,242.537430 
	C44.839138,251.275009 45.002731,260.132446 46.154873,268.778107 
	C47.842659,281.443176 49.784634,294.180573 53.049671,306.508026 
	C60.724812,335.486359 75.283760,361.023743 95.072578,383.399323 
	C110.584412,400.938843 128.721909,415.486786 149.348358,426.718262 
	C176.563171,441.537231 205.866699,449.535828 236.677780,450.728363 
	C251.377731,451.297333 266.369141,450.076447 280.908569,447.704834 
	C302.654175,444.157654 323.299072,436.715546 342.652313,425.833313 
	C369.160278,410.928040 391.384399,391.337067 408.958954,366.520355 
	C423.004486,346.686920 433.645050,325.167145 439.066986,301.426056 
	C441.807587,289.425720 443.619537,277.141815 444.822296,264.885132 
	C445.730011,255.634781 444.997101,246.224091 445.009979,236.884781 
	C445.012573,235.014725 444.650879,233.551132 447.471405,232.545410 
	C450.068390,231.619431 451.897217,228.539139 454.633362,225.877914 
z"/>
<path fill="#FEFEFF" opacity="1.000000" stroke="none" 
	d="
M454.348877,226.142883 
	C451.897217,228.539139 450.068390,231.619431 447.471405,232.545410 
	C444.650879,233.551132 445.012573,235.014725 445.009979,236.884781 
	C444.997101,246.224091 445.730011,255.634781 444.822296,264.885132 
	C443.619537,277.141815 441.807587,289.425720 439.066986,301.426056 
	C433.645050,325.167145 423.004486,346.686920 408.958954,366.520355 
	C391.384399,391.337067 369.160278,410.928040 342.652313,425.833313 
	C323.299072,436.715546 302.654175,444.157654 280.908569,447.704834 
	C266.369141,450.076447 251.377731,451.297333 236.677780,450.728363 
	C205.866699,449.535828 176.563171,441.537231 149.348358,426.718262 
	C128.721909,415.486786 110.584412,400.938843 95.072578,383.399323 
	C75.283760,361.023743 60.724812,335.486359 53.049671,306.508026 
	C49.784634,294.180573 47.842659,281.443176 46.154873,268.778107 
	C45.002731,260.132446 44.839138,251.275009 45.094627,242.537430 
	C45.759724,219.791672 50.596966,197.847656 58.767750,176.602615 
	C65.135315,160.046158 73.644943,144.612900 84.301033,130.555557 
	C95.095764,116.315315 107.071396,102.939529 121.908691,92.683540 
	C133.344162,84.779007 144.728821,76.536751 157.057632,70.252708 
	C174.190674,61.519924 192.564270,55.972317 211.725250,52.782127 
	C227.146286,50.214615 242.605560,49.111740 258.027405,50.168346 
	C297.213776,52.853149 333.187500,65.253059 364.537170,89.274185 
	C375.353241,97.561829 384.992981,107.395134 395.059021,116.643234 
	C397.336914,118.736069 399.674774,121.062431 401.065857,123.756004 
	C403.532593,128.532425 407.248047,129.246857 412.063721,129.083786 
	C420.884613,128.785126 429.722870,128.980591 438.553802,129.003433 
	C449.035248,129.030563 456.988708,137.024124 456.996338,147.559372 
	C457.012543,169.886765 457.110840,192.215225 456.894897,214.540558 
	C456.858276,218.326614 455.422668,222.099136 454.348877,226.142883 
M135.218796,149.885880 
	C132.842468,147.630005 130.466125,145.374130 128.098801,143.126801 
	C129.966660,141.707779 131.708511,140.384491 133.972336,138.664673 
	C131.524429,136.455826 129.703583,134.537582 127.609276,132.989182 
	C124.658363,130.807465 121.862083,131.759048 119.646416,134.260880 
	C117.399010,136.798553 116.935898,139.692734 119.534126,142.292084 
	C124.825958,147.586243 130.168304,152.835159 135.637695,157.944412 
	C138.432373,160.555054 141.463150,160.089417 144.058533,157.478638 
	C146.651978,154.869781 147.059082,151.905853 144.481903,149.053497 
	C142.742355,147.128204 140.717484,145.460678 138.820251,143.677856 
	C138.220718,143.770844 137.621185,143.863815 137.021667,143.956787 
	C136.917374,145.806274 136.813080,147.655746 136.233978,149.831680 
	C136.089951,149.958740 135.945938,150.085815 135.218796,149.885880 
M172.338852,95.774117 
	C170.894547,96.329437 169.450241,96.884758 167.724380,97.548340 
	C171.604675,106.321976 175.200760,114.513863 178.852707,122.680771 
	C180.339661,126.006065 183.026581,126.791603 186.287247,125.704834 
	C189.476273,124.641945 191.902969,122.303001 190.621292,118.973625 
	C187.197540,110.079918 183.209915,101.403275 178.935501,91.450851 
	C176.968521,93.599701 175.884064,94.784447 174.230118,95.964531 
	C173.850464,95.962662 173.470795,95.960800 172.338852,95.774117 
M142.625061,344.748047 
	C142.374039,344.539215 142.167725,344.292938 141.955750,343.329376 
	C140.872513,342.187317 139.789261,341.045258 138.408051,339.589050 
	C131.885605,346.625702 125.649574,353.250244 119.543266,359.992310 
	C117.131691,362.654968 117.538292,365.509888 119.961349,367.985870 
	C122.486809,370.566528 125.689644,371.402802 128.345383,368.744537 
	C134.871429,362.212189 141.052979,355.335602 147.944977,347.987823 
	C145.914825,346.761780 144.470886,345.889771 142.625061,344.748047 
M351.913391,129.904785 
	C352.069000,130.063385 352.224579,130.221985 352.432281,131.010361 
	C353.500244,132.142593 354.568237,133.274826 356.335907,135.148849 
	C357.459564,133.565292 358.139679,132.410843 359.007172,131.420547 
	C361.730927,128.311157 362.969269,125.192947 359.439911,121.824219 
	C356.250610,118.780060 353.207367,119.074959 349.611267,122.942238 
	C346.322266,126.479286 343.142395,130.117737 339.910889,133.708313 
	C332.205597,142.269760 332.263611,142.848938 341.771027,150.223053 
	C342.578552,149.492203 343.495483,148.800323 344.245239,147.959412 
	C347.217590,144.625732 350.137695,141.245453 353.685577,137.186371 
	C352.569336,136.481262 351.670898,136.011490 350.889221,135.393906 
	C350.017303,134.705032 349.251556,133.881851 348.178894,132.871597 
	C349.449890,131.533279 350.456787,130.473053 351.913391,129.904785 
M163.884521,137.092346 
	C165.613541,136.844879 167.342560,136.597397 170.022934,136.213760 
	C162.877655,126.341698 156.600067,117.668434 149.452423,107.793106 
	C148.189194,110.355095 147.396866,111.962029 146.162582,113.879265 
	C146.024261,113.994469 145.885956,114.109673 145.208694,113.891586 
	C143.577148,114.317963 141.945618,114.744339 139.538803,115.373322 
	C146.550964,125.048370 152.880508,133.781586 159.210037,142.514801 
	C159.785248,142.496994 160.360458,142.479172 160.935669,142.461365 
	C161.432449,140.807404 161.929245,139.153427 162.887665,137.097794 
	C163.035339,136.957108 163.183014,136.816406 163.884521,137.092346 
M330.832367,107.851372 
	C330.832367,107.851372 330.476410,107.547806 330.631927,106.823166 
	C332.313171,103.191574 332.662476,100.158089 327.244202,99.497009 
	C321.660370,108.696335 316.098480,117.859543 310.667603,126.806892 
	C315.750214,132.321960 316.069397,125.226768 319.162109,124.314278 
	C318.365936,126.869858 317.743225,128.868591 317.011261,131.218018 
	C318.597626,132.108322 320.089996,132.945892 321.792145,133.901199 
	C327.109528,125.155731 332.261169,116.813896 337.208588,108.352699 
	C337.729340,107.462082 337.047668,105.868393 336.923859,104.600891 
	C335.599945,105.003593 334.170715,105.217171 332.989136,105.875397 
	C332.199860,106.315086 331.763062,107.387451 330.832367,107.851372 
M402.916046,216.272446 
	C414.691803,216.272446 426.467590,216.272446 438.316040,216.272446 
	C438.316040,193.092178 438.316040,170.525284 438.316040,147.673065 
	C415.453857,147.673065 392.888367,147.673065 370.040039,147.673065 
	C370.040039,170.494934 370.040039,193.200165 370.040039,216.063553 
	C372.432495,216.197906 374.566803,216.317764 376.299133,217.115463 
	C369.230804,224.989960 362.272552,232.967896 355.028381,240.677185 
	C352.795471,243.053497 349.782349,244.696686 347.126434,246.675552 
	C346.669281,246.235641 346.212128,245.795746 345.754974,245.355850 
	C347.777618,238.585999 349.880432,231.838821 351.801788,225.040344 
	C354.000488,217.260284 356.614197,209.520813 357.801971,201.577454 
	C358.168640,199.125214 354.966858,195.321976 352.414978,193.572800 
	C350.999023,192.602219 347.262390,194.115707 345.111420,195.407944 
	C343.430176,196.417953 342.252167,198.670319 341.415985,200.613922 
	C337.231293,210.341003 333.034271,220.071747 329.229980,229.950760 
	C326.004059,238.327866 324.077942,247.035187 325.192413,256.129608 
	C326.451569,266.405151 340.445740,272.885925 348.788727,266.836670 
	C353.957001,263.089294 359.010010,259.033203 363.446289,254.466370 
	C368.271332,249.499374 372.322327,243.780472 376.794312,238.286819 
	C377.541351,240.740585 377.901337,243.743958 379.300873,246.140213 
	C382.199677,251.103455 385.500153,255.858643 388.979401,260.438080 
	C389.871033,261.611694 392.002869,262.158905 393.641846,262.356720 
	C395.161957,262.540192 396.820892,261.498260 398.355988,261.646210 
	C404.043457,262.194397 408.882355,258.648712 408.210114,253.636612 
	C413.405548,257.674286 416.055084,252.462799 420.091797,251.138443 
	C418.926422,250.097336 418.084442,249.345139 417.538727,248.857635 
	C421.082611,245.204468 424.374329,241.682999 427.808533,238.306458 
	C431.390594,234.784592 432.817352,230.256424 434.397736,225.070709 
	C422.696960,231.163635 411.409912,237.041122 398.986298,243.510452 
	C398.479919,239.876770 397.742279,237.929230 398.045074,236.159714 
	C399.175385,229.554184 400.646759,223.007019 402.916046,216.272446 
M219.103760,273.524353 
	C214.876343,275.916168 210.454361,278.025726 206.470871,280.771423 
	C201.519012,284.184631 196.758926,287.933899 192.289352,291.953186 
	C190.978928,293.131592 190.938065,295.721771 190.315338,297.664886 
	C192.657272,298.062683 195.089752,299.056366 197.319778,298.717560 
	C200.603485,298.218719 203.742874,296.769745 207.743698,295.464508 
	C206.655548,299.248230 205.630127,302.034576 205.072311,304.911621 
	C203.810516,311.419556 206.643356,315.582428 213.346741,317.489502 
	C216.459503,318.375031 221.306198,314.648987 223.189880,310.413269 
	C224.712723,306.988983 226.685165,303.758362 228.550980,300.494904 
	C229.937469,298.069794 232.316483,295.876770 232.761932,293.320465 
	C233.629074,288.344269 237.106400,286.166290 240.712372,283.813232 
	C241.668427,283.189362 242.548264,282.401062 243.576614,281.943268 
	C250.673325,278.783752 257.800079,275.691742 265.375946,272.377380 
	C265.942627,277.075684 266.408264,280.936157 266.899353,285.007935 
	C267.899017,285.112946 268.942963,285.222626 271.197021,285.459442 
	C265.499969,288.990814 266.141510,293.524048 266.988464,298.290924 
	C268.506470,306.834595 269.749329,315.427124 271.107178,323.999237 
	C271.782562,324.030640 272.457947,324.062073 273.133301,324.093475 
	C273.752075,321.255768 274.366058,318.417053 274.990692,315.580627 
	C275.931763,311.307343 276.887695,307.037323 277.823853,302.762970 
	C279.163086,296.647949 280.595276,290.550781 281.793549,284.408112 
	C283.051239,277.960754 283.912659,271.431793 285.327576,265.022461 
	C285.675690,263.445618 287.337524,262.007843 288.680054,260.830811 
	C292.216553,257.730255 296.644409,255.345291 299.334412,251.664673 
	C302.047577,247.952347 306.307007,246.482803 309.152924,242.532562 
	C312.422852,237.993805 316.865448,232.548325 323.512299,231.024323 
	C324.425690,230.814880 325.546112,229.584229 325.773315,228.635437 
	C326.818176,224.271652 324.072754,221.677734 319.600952,223.128433 
	C313.770630,225.019897 308.095825,227.399185 302.384125,229.645065 
	C297.820648,231.439453 293.302124,233.348175 288.063293,235.492844 
	C288.338379,232.786957 288.586670,231.013123 288.688293,229.230896 
	C289.158264,220.990311 290.139496,212.720596 289.741394,204.519379 
	C289.595795,201.519455 286.168030,196.256516 284.192078,196.235153 
	C278.882324,196.177765 272.567200,197.038513 268.452789,200.020432 
	C262.243073,204.520935 257.143738,210.802567 252.336472,216.926895 
	C246.142700,224.817581 240.127991,232.965393 235.089951,241.616150 
	C229.242538,251.656647 224.537430,262.362396 219.103760,273.524353 
M168.209503,246.688705 
	C171.791992,244.713577 175.237610,241.441818 178.986847,241.045990 
	C185.800186,240.326706 192.251144,239.008148 198.355331,236.028259 
	C207.520218,231.554260 210.475891,224.067337 208.594940,217.655151 
	C205.813034,208.171555 197.440948,203.024612 187.669861,202.966339 
	C177.969925,202.908478 170.050430,208.518570 162.424423,213.090698 
	C154.998688,217.542770 148.555084,224.391098 143.186569,231.349442 
	C133.705429,243.638412 127.358551,257.472809 128.929321,273.706665 
	C129.003174,274.469910 129.432526,275.192230 129.624863,275.951691 
	C130.460693,279.252106 130.905945,282.713074 132.214584,285.810913 
	C133.115372,287.943268 132.942764,291.474365 137.121429,291.244904 
	C138.374191,291.176178 139.735931,292.980286 141.036880,293.941071 
	C141.888824,294.570282 142.668365,295.689514 143.571182,295.792450 
	C148.381851,296.341034 153.472565,297.787170 158.001099,296.796295 
	C169.342880,294.314575 180.681137,291.183472 189.701691,283.152039 
	C193.013992,280.202942 195.909775,276.791290 199.094376,273.692139 
	C202.725464,270.158508 206.543198,266.814026 210.111984,263.220703 
	C211.131729,262.193939 211.568909,260.588593 212.273239,259.248535 
	C211.957901,258.932587 211.642578,258.616608 211.327255,258.300629 
	C208.309830,259.864166 205.226395,261.313385 202.286697,263.011475 
	C191.014679,269.522705 179.309250,274.815796 166.144623,276.005554 
	C159.059814,276.645874 155.984177,273.356628 156.746292,266.185028 
	C157.591415,258.232422 162.774506,252.795975 168.209503,246.688705 
M206.295364,113.068230 
	C206.824783,116.589920 208.164001,118.363159 211.747742,115.592842 
	C211.451996,113.326927 211.164581,111.124847 210.877182,108.922768 
	C211.134735,108.860542 211.392288,108.798317 211.649841,108.736084 
	C212.597046,110.970970 213.544266,113.205856 214.620850,115.746017 
	C216.524796,115.329483 218.196686,114.963722 220.093933,114.548653 
	C217.916245,103.434326 215.858261,92.931007 213.732742,82.082954 
	C211.699966,82.738159 210.380630,83.163406 209.127747,83.567238 
	C209.451065,86.079102 209.717789,88.151306 210.095459,91.085342 
	C205.352219,83.472298 205.352219,83.472298 201.034195,85.458344 
	C202.718613,94.341743 204.416763,103.297523 206.295364,113.068230 
M151.880936,393.799957 
	C153.128632,393.056244 154.837234,392.613190 155.550079,391.520508 
	C160.623245,383.744232 165.495895,375.837067 170.413864,367.959991 
	C170.569092,367.711426 170.523834,367.337677 170.631882,366.630707 
	C169.545822,366.012878 168.348572,365.331787 167.196030,364.676117 
	C165.679245,366.329926 164.444794,367.675873 163.210342,369.021851 
	C164.137787,365.233826 166.107712,361.656494 159.764359,360.320709 
	C154.143158,369.200470 148.414963,378.249207 142.479294,387.625732 
	C143.965225,388.603790 145.129913,389.370392 146.430008,390.226135 
	C147.885559,388.425262 149.107910,386.912933 150.502335,385.187714 
	C151.627762,388.267426 146.618210,391.175873 151.880936,393.799957 
M275.708008,406.309540 
	C276.219574,408.915283 276.768768,411.514313 277.233887,414.128326 
	C277.924103,418.007660 279.815979,418.731415 283.088867,416.492249 
	C281.352997,407.562286 279.693970,398.735321 277.897156,389.936493 
	C277.235779,386.697845 275.180481,385.060516 271.740173,385.729828 
	C269.522278,386.161316 267.322998,386.688416 264.839233,387.233246 
	C266.681763,396.657562 268.414459,405.585999 270.184540,414.506989 
	C270.469696,415.944122 270.921326,417.348206 271.384827,419.104034 
	C272.990204,418.891724 274.372742,418.708862 276.375732,418.443970 
	C275.655884,414.659210 274.941284,411.299805 274.434753,407.909363 
	C274.330872,407.214233 275.006073,406.402710 275.708008,406.309540 
M90.444778,197.019318 
	C91.443611,195.795166 92.442444,194.571014 93.543625,193.221436 
	C87.087708,189.858704 83.820946,190.508301 82.091515,194.933456 
	C80.421204,199.207336 82.156822,202.007004 87.790482,203.877731 
	C93.924805,205.914688 100.061691,207.954117 106.254791,209.800140 
	C109.991638,210.913986 112.781029,209.684952 113.981903,205.715759 
	C115.129311,201.923294 114.071602,199.189499 110.178711,197.855957 
	C107.984879,197.104446 105.683884,196.608505 103.578438,195.667816 
	C98.791267,193.528931 95.178612,194.007263 93.692436,199.952255 
	C91.390862,199.154678 89.431480,198.475677 87.472099,197.796677 
	C87.582809,197.457321 87.693527,197.117950 87.804237,196.778595 
	C88.432846,196.829803 89.061447,196.881027 90.444778,197.019318 
M83.628166,274.974091 
	C94.917007,274.644287 94.917007,274.644287 96.027245,267.087677 
	C98.218979,267.261902 100.418510,267.436737 102.618034,267.611603 
	C101.231003,268.833740 99.273476,268.510651 98.770966,269.219330 
	C97.973007,270.344574 98.146751,272.158905 97.909447,273.681702 
	C100.495750,273.579865 103.697495,274.362274 105.487518,273.116394 
	C107.130577,271.972809 108.052757,268.543243 107.775383,266.309265 
	C107.574524,264.691498 104.934822,262.192963 103.311333,262.136414 
	C95.508614,261.864716 87.675552,262.160614 79.866188,262.529053 
	C76.626717,262.681854 74.864777,264.668976 74.799164,268.147705 
	C74.701813,273.310547 76.319138,274.804077 83.628166,274.974091 
M247.057037,91.241028 
	C248.443115,91.063782 251.032654,90.899933 251.034805,90.707291 
	C251.067123,87.804726 251.597244,84.389687 250.247101,82.165337 
	C249.290131,80.588783 245.470490,79.713104 243.328186,80.218399 
	C241.591385,80.628059 239.362152,83.487778 239.236374,85.385742 
	C238.753311,92.675003 238.930222,100.016335 239.060928,107.334663 
	C239.133545,111.400108 241.497040,113.336922 245.556839,113.124161 
	C247.364548,113.029427 249.168335,112.860329 251.644791,112.674698 
	C251.644791,109.500984 251.507538,106.372887 251.676758,103.261452 
	C251.935043,98.512154 252.365341,93.804024 245.001617,95.169624 
	C245.001617,91.473465 245.001617,88.290062 245.001617,85.106659 
	C245.248688,85.089073 245.495743,85.071487 245.742813,85.053902 
	C245.982666,86.946602 246.222519,88.839302 247.057037,91.241028 
M288.059906,109.549767 
	C287.044464,111.757675 286.029053,113.965591 284.896027,116.429192 
	C286.817474,117.061821 288.173737,117.508362 289.446259,117.927338 
	C290.965210,115.677269 292.304596,113.693192 294.036957,111.126961 
	C295.814850,114.959846 290.712555,120.734001 298.614990,120.707588 
	C301.025787,110.121864 303.411530,99.646179 305.770172,89.289413 
	C299.392090,86.019745 299.377655,86.012764 296.596130,91.767464 
	C293.844269,97.460915 291.125671,103.170464 288.059906,109.549767 
M310.077454,405.556274 
	C312.689850,405.525574 315.650665,406.224487 317.789886,405.202911 
	C319.173309,404.542328 320.358276,401.089233 319.886536,399.365204 
	C318.454498,394.132050 316.778656,388.723358 310.011688,387.646393 
	C306.078247,387.020416 305.154327,383.889191 304.882935,380.517670 
	C305.819489,381.025818 306.322296,381.834961 306.794739,382.661499 
	C307.360718,383.651611 307.900726,384.656555 308.615814,385.951813 
	C310.163086,385.111145 311.527435,384.369843 312.930145,383.607697 
	C312.331116,382.242188 311.952576,381.322601 311.529449,380.424042 
	C308.992615,375.037079 306.529205,373.762726 302.419006,375.695160 
	C298.589508,377.495605 297.428619,380.612915 300.323914,385.289032 
	C302.689850,389.110168 306.461212,392.061127 309.530396,395.314117 
	C308.939148,395.687500 307.461426,396.620728 305.767853,397.690308 
	C307.131805,400.313782 308.348938,402.654816 310.077454,405.556274 
M208.673920,392.077148 
	C208.955185,389.967438 209.236465,387.857727 209.563461,385.405029 
	C207.761642,385.016541 206.291183,384.699524 204.511581,384.315826 
	C202.933701,395.530518 201.439011,406.154022 199.723297,418.348450 
	C202.806732,417.580139 206.199463,417.644012 206.708527,416.463928 
	C210.754883,407.083801 214.253525,397.467377 218.110977,387.427063 
	C208.807755,385.660034 212.369003,395.012177 207.953339,397.300995 
	C208.139221,395.704163 208.306046,394.270935 208.673920,392.077148 
M368.739105,331.777466 
	C376.309692,335.045135 383.880249,338.312805 391.896149,341.772675 
	C392.410248,340.917175 393.203613,339.597015 393.595306,338.945251 
	C384.996277,331.492493 376.885864,324.463226 368.485718,317.182831 
	C367.647156,318.525665 366.816437,319.855988 366.027374,321.119598 
	C367.425964,322.766785 368.566864,324.110443 370.728333,326.656067 
	C366.262817,325.129944 362.453827,323.072632 361.592224,329.079559 
	C363.720551,329.872101 365.877380,330.675232 368.739105,331.777466 
M234.731720,410.039581 
	C234.731720,413.600494 234.731720,417.161407 234.731720,420.770844 
	C238.043213,420.770844 240.823853,420.770844 245.440262,420.770844 
	C243.362656,418.054840 242.084579,416.384033 240.208466,413.931427 
	C240.208466,412.591339 240.208466,409.965637 240.208466,408.705353 
	C242.193069,406.624054 243.379074,405.380219 244.565125,404.136444 
	C243.241898,403.031891 241.918671,401.927338 240.278992,400.558624 
	C240.278992,398.552185 240.278992,395.938629 240.278992,393.325104 
	C240.681946,393.565033 241.084900,393.804932 241.487854,394.044830 
	C242.675156,392.438446 243.862473,390.832031 245.700317,388.345459 
	C241.013840,388.345459 238.123291,388.345459 234.794403,388.345459 
	C234.794403,395.508392 234.794403,402.310333 234.731720,410.039581 
M349.084198,353.529480 
	C350.586090,354.092743 352.408264,354.290955 353.536041,355.280548 
	C359.374603,360.403534 365.035645,365.728882 371.098267,371.295624 
	C372.327271,369.878876 373.329529,368.723450 374.543976,367.323486 
	C368.462250,361.719971 362.689453,356.503387 357.069550,351.127014 
	C356.078613,350.178986 355.627686,348.601044 355.106506,347.245148 
	C354.540436,345.772308 354.183472,344.219025 353.455475,341.752716 
	C349.855530,345.596558 347.286804,348.339294 344.250671,351.581116 
	C346.049591,352.579193 347.249481,353.244934 349.084198,353.529480 
M99.133392,238.271149 
	C100.440712,238.499725 101.752411,238.705994 103.054535,238.961075 
	C106.856552,239.705872 108.198189,238.164200 107.488449,234.137894 
	C96.740013,232.530487 86.165863,230.949142 75.589851,229.367523 
	C74.756668,235.305557 77.870369,237.855072 83.012428,236.279877 
	C84.046158,235.963211 85.306190,236.269745 86.443008,236.426117 
	C90.385399,236.968384 94.319473,237.571091 99.133392,238.271149 
M92.333801,298.886383 
	C90.147545,299.665924 87.892311,300.298096 85.799637,301.277588 
	C84.435829,301.915894 83.172318,302.941406 82.190620,304.076172 
	C81.995956,304.301208 83.125923,306.393616 83.927704,306.618896 
	C86.019463,307.206696 88.568901,308.020172 90.389412,307.320984 
	C93.859688,305.988190 96.818909,303.378021 100.230057,301.824677 
	C104.701126,299.788788 109.404198,298.262451 114.322159,296.397614 
	C113.616051,294.613159 113.092232,293.289398 112.386452,291.505798 
	C105.758400,293.943420 99.410950,296.277832 92.333801,298.886383 
M187.340851,376.318451 
	C186.801056,376.579254 185.990021,376.695007 185.761551,377.122253 
	C181.235077,385.586182 176.673904,394.034668 172.350067,402.602448 
	C170.428940,406.409180 173.560226,406.421112 176.077545,407.047211 
	C180.746033,398.204559 185.237900,389.544220 189.892944,380.972534 
	C191.281494,378.415649 190.186996,377.377625 187.340851,376.318451 
M345.594116,381.891083 
	C340.493927,374.808289 335.393738,367.725464 330.136749,360.424896 
	C328.451569,361.602631 327.272980,362.426300 325.714508,363.515442 
	C332.222687,372.552460 338.563812,381.357574 345.059082,390.376648 
	C346.683624,389.093903 347.811127,388.203644 349.179626,387.123108 
	C348.033569,385.432648 347.028046,383.949432 345.594116,381.891083 
M271.006653,94.693962 
	C269.413361,95.148399 267.820099,95.602837 266.226807,96.057281 
	C267.523773,97.059448 268.806610,98.081024 270.130920,99.045654 
	C270.365326,99.216400 270.778442,99.212547 271.099121,99.182770 
	C273.424591,98.966866 277.744476,98.843170 277.766754,98.470802 
	C278.030396,94.066795 274.058197,95.797218 271.006653,94.693962 
M115.400536,334.709106 
	C115.474983,332.843750 115.842690,330.909698 115.432434,329.157867 
	C115.319817,328.676971 112.430359,328.121674 111.618835,328.709656 
	C110.566254,329.472351 109.502487,332.244263 109.870026,332.577362 
	C111.176331,333.761292 113.088295,334.276978 115.400536,334.709106 
M109.541901,170.378830 
	C111.025078,171.548584 112.401077,172.956818 114.072411,173.707947 
	C114.454735,173.879791 116.477188,171.858368 116.609154,170.715256 
	C116.737122,169.606674 115.150513,167.225189 114.756668,167.315720 
	C112.964897,167.727631 111.328270,168.814423 109.541901,170.378830 
z"/>
<path fill="#046FB5" opacity="1.000000" stroke="none" 
	d="
M219.220139,273.151855 
	C224.537430,262.362396 229.242538,251.656647 235.089951,241.616150 
	C240.127991,232.965393 246.142700,224.817581 252.336472,216.926895 
	C257.143738,210.802567 262.243073,204.520935 268.452789,200.020432 
	C272.567200,197.038513 278.882324,196.177765 284.192078,196.235153 
	C286.168030,196.256516 289.595795,201.519455 289.741394,204.519379 
	C290.139496,212.720596 289.158264,220.990311 288.688293,229.230896 
	C288.586670,231.013123 288.338379,232.786957 288.063293,235.492844 
	C293.302124,233.348175 297.820648,231.439453 302.384125,229.645065 
	C308.095825,227.399185 313.770630,225.019897 319.600952,223.128433 
	C324.072754,221.677734 326.818176,224.271652 325.773315,228.635437 
	C325.546112,229.584229 324.425690,230.814880 323.512299,231.024323 
	C316.865448,232.548325 312.422852,237.993805 309.152924,242.532562 
	C306.307007,246.482803 302.047577,247.952347 299.334412,251.664673 
	C296.644409,255.345291 292.216553,257.730255 288.680054,260.830811 
	C287.337524,262.007843 285.675690,263.445618 285.327576,265.022461 
	C283.912659,271.431793 283.051239,277.960754 281.793549,284.408112 
	C280.595276,290.550781 279.163086,296.647949 277.823853,302.762970 
	C276.887695,307.037323 275.931763,311.307343 274.990692,315.580627 
	C274.366058,318.417053 273.752075,321.255768 273.133301,324.093475 
	C272.457947,324.062073 271.782562,324.030640 271.107178,323.999237 
	C269.749329,315.427124 268.506470,306.834595 266.988464,298.290924 
	C266.141510,293.524048 265.499969,288.990814 271.197021,285.459442 
	C268.942963,285.222626 267.899017,285.112946 266.899353,285.007935 
	C266.408264,280.936157 265.942627,277.075684 265.375946,272.377380 
	C257.800079,275.691742 250.673325,278.783752 243.576614,281.943268 
	C242.548264,282.401062 241.668427,283.189362 240.712372,283.813232 
	C237.106400,286.166290 233.629074,288.344269 232.761932,293.320465 
	C232.316483,295.876770 229.937469,298.069794 228.550980,300.494904 
	C226.685165,303.758362 224.712723,306.988983 223.189880,310.413269 
	C221.306198,314.648987 216.459503,318.375031 213.346741,317.489502 
	C206.643356,315.582428 203.810516,311.419556 205.072311,304.911621 
	C205.630127,302.034576 206.655548,299.248230 207.743698,295.464508 
	C203.742874,296.769745 200.603485,298.218719 197.319778,298.717560 
	C195.089752,299.056366 192.657272,298.062683 190.315338,297.664886 
	C190.938065,295.721771 190.978928,293.131592 192.289352,291.953186 
	C196.758926,287.933899 201.519012,284.184631 206.470871,280.771423 
	C210.454361,278.025726 214.876343,275.916168 219.220139,273.151855 
M271.703156,233.460495 
	C272.524658,229.948349 275.785309,226.449890 271.520935,222.271454 
	C264.258972,233.351456 256.004059,243.320709 250.038940,255.934021 
	C255.724243,253.380463 260.558319,251.891998 264.552368,249.170654 
	C267.134064,247.411621 268.832184,244.014313 270.267181,241.033844 
	C271.224091,239.046341 271.020874,236.500259 271.703156,233.460495 
z"/>
<path fill="#036FB5" opacity="1.000000" stroke="none" 
	d="
M167.974640,246.960983 
	C162.774506,252.795975 157.591415,258.232422 156.746292,266.185028 
	C155.984177,273.356628 159.059814,276.645874 166.144623,276.005554 
	C179.309250,274.815796 191.014679,269.522705 202.286697,263.011475 
	C205.226395,261.313385 208.309830,259.864166 211.327255,258.300629 
	C211.642578,258.616608 211.957901,258.932587 212.273239,259.248535 
	C211.568909,260.588593 211.131729,262.193939 210.111984,263.220703 
	C206.543198,266.814026 202.725464,270.158508 199.094376,273.692139 
	C195.909775,276.791290 193.013992,280.202942 189.701691,283.152039 
	C180.681137,291.183472 169.342880,294.314575 158.001099,296.796295 
	C153.472565,297.787170 148.381851,296.341034 143.571182,295.792450 
	C142.668365,295.689514 141.888824,294.570282 141.036880,293.941071 
	C139.735931,292.980286 138.374191,291.176178 137.121429,291.244904 
	C132.942764,291.474365 133.115372,287.943268 132.214584,285.810913 
	C130.905945,282.713074 130.460693,279.252106 129.624863,275.951691 
	C129.432526,275.192230 129.003174,274.469910 128.929321,273.706665 
	C127.358551,257.472809 133.705429,243.638412 143.186569,231.349442 
	C148.555084,224.391098 154.998688,217.542770 162.424423,213.090698 
	C170.050430,208.518570 177.969925,202.908478 187.669861,202.966339 
	C197.440948,203.024612 205.813034,208.171555 208.594940,217.655151 
	C210.475891,224.067337 207.520218,231.554260 198.355331,236.028259 
	C192.251144,239.008148 185.800186,240.326706 178.986847,241.045990 
	C175.237610,241.441818 171.791992,244.713577 167.974640,246.960983 
z"/>
<path fill="#046FB5" opacity="1.000000" stroke="none" 
	d="
M401.990173,216.437958 
	C400.646759,223.007019 399.175385,229.554184 398.045074,236.159714 
	C397.742279,237.929230 398.479919,239.876770 398.986298,243.510452 
	C411.409912,237.041122 422.696960,231.163635 434.397736,225.070709 
	C432.817352,230.256424 431.390594,234.784592 427.808533,238.306458 
	C424.374329,241.682999 421.082611,245.204468 417.538727,248.857635 
	C418.084442,249.345139 418.926422,250.097336 420.091797,251.138443 
	C416.055084,252.462799 413.405548,257.674286 408.210114,253.636612 
	C408.882355,258.648712 404.043457,262.194397 398.355988,261.646210 
	C396.820892,261.498260 395.161957,262.540192 393.641846,262.356720 
	C392.002869,262.158905 389.871033,261.611694 388.979401,260.438080 
	C385.500153,255.858643 382.199677,251.103455 379.300873,246.140213 
	C377.901337,243.743958 377.541351,240.740585 376.794312,238.286819 
	C372.322327,243.780472 368.271332,249.499374 363.446289,254.466370 
	C359.010010,259.033203 353.957001,263.089294 348.788727,266.836670 
	C340.445740,272.885925 326.451569,266.405151 325.192413,256.129608 
	C324.077942,247.035187 326.004059,238.327866 329.229980,229.950760 
	C333.034271,220.071747 337.231293,210.341003 341.415985,200.613922 
	C342.252167,198.670319 343.430176,196.417953 345.111420,195.407944 
	C347.262390,194.115707 350.999023,192.602219 352.414978,193.572800 
	C354.966858,195.321976 358.168640,199.125214 357.801971,201.577454 
	C356.614197,209.520813 354.000488,217.260284 351.801788,225.040344 
	C349.880432,231.838821 347.777618,238.585999 345.754974,245.355850 
	C346.212128,245.795746 346.669281,246.235641 347.126434,246.675552 
	C349.782349,244.696686 352.795471,243.053497 355.028381,240.677185 
	C362.272552,232.967896 369.230804,224.989960 376.849976,216.688110 
	C385.597290,216.319824 393.793701,216.378891 401.990173,216.437958 
z"/>
<path fill="#E72E38" opacity="1.000000" stroke="none" 
	d="
M402.453094,216.355194 
	C393.793701,216.378891 385.597290,216.319824 377.050964,216.349182 
	C374.566803,216.317764 372.432495,216.197906 370.040039,216.063553 
	C370.040039,193.200165 370.040039,170.494934 370.040039,147.673065 
	C392.888367,147.673065 415.453857,147.673065 438.316040,147.673065 
	C438.316040,170.525284 438.316040,193.092178 438.316040,216.272446 
	C426.467590,216.272446 414.691803,216.272446 402.453094,216.355194 
M380.925171,211.070419 
	C388.727020,211.011444 396.528900,210.952484 405.342316,211.045074 
	C414.601685,211.045074 423.861084,211.045074 433.105896,211.045074 
	C433.105896,191.331360 433.105896,172.257309 433.105896,152.945984 
	C413.649689,152.945984 394.474182,152.945984 375.220947,152.945984 
	C375.220947,172.490540 375.220947,191.701889 375.220947,211.125931 
	C377.030121,211.038300 378.516357,210.966324 380.925171,211.070419 
z"/>
<path fill="#8E9498" opacity="1.000000" stroke="none" 
	d="
M206.205139,112.660767 
	C204.416763,103.297523 202.718613,94.341743 201.034195,85.458344 
	C205.352219,83.472298 205.352219,83.472298 210.095459,91.085342 
	C209.717789,88.151306 209.451065,86.079102 209.127747,83.567238 
	C210.380630,83.163406 211.699966,82.738159 213.732742,82.082954 
	C215.858261,92.931007 217.916245,103.434326 220.093933,114.548653 
	C218.196686,114.963722 216.524796,115.329483 214.620850,115.746017 
	C213.544266,113.205856 212.597046,110.970970 211.649841,108.736084 
	C211.392288,108.798317 211.134735,108.860542 210.877182,108.922768 
	C211.164581,111.124847 211.451996,113.326927 211.747742,115.592842 
	C208.164001,118.363159 206.824783,116.589920 206.205139,112.660767 
z"/>
<path fill="#8D9396" opacity="1.000000" stroke="none" 
	d="
M331.168549,108.176697 
	C331.763062,107.387451 332.199860,106.315086 332.989136,105.875397 
	C334.170715,105.217171 335.599945,105.003593 336.923859,104.600891 
	C337.047668,105.868393 337.729340,107.462082 337.208588,108.352699 
	C332.261169,116.813896 327.109528,125.155731 321.792145,133.901199 
	C320.089996,132.945892 318.597626,132.108322 317.011261,131.218018 
	C317.743225,128.868591 318.365936,126.869858 319.162109,124.314278 
	C316.069397,125.226768 315.750214,132.321960 310.667603,126.806892 
	C316.098480,117.859543 321.660370,108.696335 327.244202,99.497009 
	C332.662476,100.158089 332.313171,103.191574 330.414368,107.423233 
	C330.250824,108.294403 330.304810,108.565506 330.358795,108.836609 
	C330.628723,108.616638 330.898621,108.396667 331.168549,108.176697 
M329.498169,110.673996 
	C329.589417,110.599762 329.742065,110.534538 329.754608,110.448761 
	C329.767212,110.363106 329.639526,110.256882 329.573364,110.159660 
	C329.482117,110.233879 329.390839,110.308098 329.498169,110.673996 
z"/>
<path fill="#8D9397" opacity="1.000000" stroke="none" 
	d="
M151.559128,393.608032 
	C146.618210,391.175873 151.627762,388.267426 150.502335,385.187714 
	C149.107910,386.912933 147.885559,388.425262 146.430008,390.226135 
	C145.129913,389.370392 143.965225,388.603790 142.479294,387.625732 
	C148.414963,378.249207 154.143158,369.200470 159.764359,360.320709 
	C166.107712,361.656494 164.137787,365.233826 163.210342,369.021851 
	C164.444794,367.675873 165.679245,366.329926 167.196030,364.676117 
	C168.348572,365.331787 169.545822,366.012878 170.631882,366.630707 
	C170.523834,367.337677 170.569092,367.711426 170.413864,367.959991 
	C165.495895,375.837067 160.623245,383.744232 155.550079,391.520508 
	C154.837234,392.613190 153.128632,393.056244 151.559128,393.608032 
z"/>
<path fill="#8E9497" opacity="1.000000" stroke="none" 
	d="
M146.604538,113.568962 
	C147.396866,111.962029 148.189194,110.355095 149.452423,107.793106 
	C156.600067,117.668434 162.877655,126.341698 170.022934,136.213760 
	C167.342560,136.597397 165.613541,136.844879 163.518127,136.665985 
	C163.001862,135.959961 162.809509,135.713470 162.364380,135.259552 
	C161.992538,135.454010 161.830994,135.889008 161.759003,136.542053 
	C161.998489,137.039810 162.190979,137.286255 162.426041,137.499466 
	C161.929245,139.153427 161.432449,140.807404 160.935669,142.461365 
	C160.360458,142.479172 159.785248,142.496994 159.210037,142.514801 
	C152.880508,133.781586 146.550964,125.048370 139.538803,115.373322 
	C141.945618,114.744339 143.577148,114.317963 145.540558,114.329391 
	C146.155350,114.966644 146.438293,115.166107 146.721237,115.365562 
	C146.682343,114.766693 146.643433,114.167831 146.604538,113.568962 
M159.470703,133.634232 
	C159.902176,133.701569 160.333649,133.768890 160.765121,133.836227 
	C160.471970,133.624893 160.178802,133.413559 159.470703,133.634232 
z"/>
<path fill="#8E9498" opacity="1.000000" stroke="none" 
	d="
M275.515076,405.977173 
	C275.006073,406.402710 274.330872,407.214233 274.434753,407.909363 
	C274.941284,411.299805 275.655884,414.659210 276.375732,418.443970 
	C274.372742,418.708862 272.990204,418.891724 271.384827,419.104034 
	C270.921326,417.348206 270.469696,415.944122 270.184540,414.506989 
	C268.414459,405.585999 266.681763,396.657562 264.839233,387.233246 
	C267.322998,386.688416 269.522278,386.161316 271.740173,385.729828 
	C275.180481,385.060516 277.235779,386.697845 277.897156,389.936493 
	C279.693970,398.735321 281.352997,407.562286 283.088867,416.492249 
	C279.815979,418.731415 277.924103,418.007660 277.233887,414.128326 
	C276.768768,411.514313 276.219574,408.915283 275.515076,405.977173 
z"/>
<path fill="#8E9498" opacity="1.000000" stroke="none" 
	d="
M351.463684,129.412827 
	C350.456787,130.473053 349.449890,131.533279 348.178894,132.871597 
	C349.251556,133.881851 350.017303,134.705032 350.889221,135.393906 
	C351.670898,136.011490 352.569336,136.481262 353.685577,137.186371 
	C350.137695,141.245453 347.217590,144.625732 344.245239,147.959412 
	C343.495483,148.800323 342.578552,149.492203 341.771027,150.223053 
	C332.263611,142.848938 332.205597,142.269760 339.910889,133.708313 
	C343.142395,130.117737 346.322266,126.479286 349.611267,122.942238 
	C353.207367,119.074959 356.250610,118.780060 359.439911,121.824219 
	C362.969269,125.192947 361.730927,128.311157 359.007172,131.420547 
	C358.139679,132.410843 357.459564,133.565292 356.335907,135.148849 
	C354.568237,133.274826 353.500244,132.142593 352.599854,130.542328 
	C352.991089,129.820892 353.137482,129.528748 353.428955,129.097076 
	C353.929779,128.799301 354.112122,128.535843 354.465424,128.041046 
	C355.146027,127.150963 355.559662,126.425751 355.973267,125.700539 
	C355.764984,125.548492 355.556702,125.396446 355.348419,125.244400 
	C354.666168,125.976433 353.983917,126.708458 353.142334,127.562752 
	C352.777802,127.864082 352.600555,128.067505 352.247131,128.444077 
	C351.849884,128.866180 351.656799,129.139511 351.463684,129.412827 
z"/>
<path fill="#8E9497" opacity="1.000000" stroke="none" 
	d="
M90.067413,196.975784 
	C89.061447,196.881027 88.432846,196.829803 87.804237,196.778595 
	C87.693527,197.117950 87.582809,197.457321 87.472099,197.796677 
	C89.431480,198.475677 91.390862,199.154678 93.692436,199.952255 
	C95.178612,194.007263 98.791267,193.528931 103.578438,195.667816 
	C105.683884,196.608505 107.984879,197.104446 110.178711,197.855957 
	C114.071602,199.189499 115.129311,201.923294 113.981903,205.715759 
	C112.781029,209.684952 109.991638,210.913986 106.254791,209.800140 
	C100.061691,207.954117 93.924805,205.914688 87.790482,203.877731 
	C82.156822,202.007004 80.421204,199.207336 82.091515,194.933456 
	C83.820946,190.508301 87.087708,189.858704 93.543625,193.221436 
	C92.442444,194.571014 91.443611,195.795166 90.067413,196.975784 
z"/>
<path fill="#8E9498" opacity="1.000000" stroke="none" 
	d="
M83.170502,274.991211 
	C76.319138,274.804077 74.701813,273.310547 74.799164,268.147705 
	C74.864777,264.668976 76.626717,262.681854 79.866188,262.529053 
	C87.675552,262.160614 95.508614,261.864716 103.311333,262.136414 
	C104.934822,262.192963 107.574524,264.691498 107.775383,266.309265 
	C108.052757,268.543243 107.130577,271.972809 105.487518,273.116394 
	C103.697495,274.362274 100.495750,273.579865 97.909439,273.681702 
	C98.146751,272.158905 97.973007,270.344574 98.770966,269.219330 
	C99.273476,268.510651 101.231003,268.833740 102.618034,267.611603 
	C100.418510,267.436737 98.218979,267.261902 96.027245,267.087677 
	C94.917007,274.644287 94.917007,274.644287 83.170502,274.991211 
z"/>
<path fill="#8D9397" opacity="1.000000" stroke="none" 
	d="
M143.026947,345.017792 
	C144.470886,345.889771 145.914825,346.761780 147.944977,347.987823 
	C141.052979,355.335602 134.871429,362.212189 128.345383,368.744537 
	C125.689644,371.402802 122.486809,370.566528 119.961349,367.985870 
	C117.538292,365.509888 117.131691,362.654968 119.543266,359.992310 
	C125.649574,353.250244 131.885605,346.625702 138.408051,339.589050 
	C139.789261,341.045258 140.872513,342.187317 141.705261,343.834229 
	C140.200882,345.791840 138.947006,347.244629 137.484894,348.817383 
	C137.016235,349.138123 136.822906,349.390320 136.472153,349.938538 
	C136.759201,350.297882 137.270767,350.412628 137.925827,350.429596 
	C138.253983,350.179657 138.402832,349.998108 138.799973,349.613464 
	C140.398361,347.965759 141.712646,346.491760 143.026947,345.017792 
M135.761627,352.818268 
	C135.247009,352.703033 134.732407,352.587799 133.930740,352.668091 
	C133.746140,352.820282 133.597305,353.001831 132.901855,353.575287 
	C130.162201,356.621643 127.422531,359.667999 124.219421,363.090057 
	C124.174141,363.532715 124.128868,363.975342 124.083580,364.417999 
	C124.582909,364.196289 125.082237,363.974579 126.140343,363.372955 
	C128.862564,360.349609 131.584778,357.326233 134.723495,354.062897 
	C134.983917,353.862091 135.177292,353.609894 135.761627,352.818268 
z"/>
<path fill="#8D9397" opacity="1.000000" stroke="none" 
	d="
M246.759705,90.986511 
	C246.222519,88.839302 245.982666,86.946602 245.742813,85.053902 
	C245.495743,85.071487 245.248688,85.089073 245.001617,85.106659 
	C245.001617,88.290062 245.001617,91.473465 245.001617,95.169624 
	C252.365341,93.804024 251.935043,98.512154 251.676758,103.261452 
	C251.507538,106.372887 251.644791,109.500984 251.644791,112.674698 
	C249.168335,112.860329 247.364548,113.029427 245.556839,113.124161 
	C241.497040,113.336922 239.133545,111.400108 239.060928,107.334663 
	C238.930222,100.016335 238.753311,92.675003 239.236374,85.385742 
	C239.362152,83.487778 241.591385,80.628059 243.328186,80.218399 
	C245.470490,79.713104 249.290131,80.588783 250.247101,82.165337 
	C251.597244,84.389687 251.067123,87.804726 251.034805,90.707291 
	C251.032654,90.899933 248.443115,91.063782 246.759705,90.986511 
M244.307373,106.789955 
	C244.923859,106.695435 246.082291,106.570961 246.078964,106.510681 
	C245.925186,103.728188 245.670044,100.951302 245.426636,98.173759 
	C244.996384,98.204865 244.566132,98.235962 244.135880,98.267067 
	C244.135880,100.835251 244.135880,103.403442 244.307373,106.789955 
z"/>
<path fill="#8E9497" opacity="1.000000" stroke="none" 
	d="
M174.799591,95.969193 
	C175.884064,94.784447 176.968521,93.599701 178.935501,91.450851 
	C183.209915,101.403275 187.197540,110.079918 190.621292,118.973625 
	C191.902969,122.303001 189.476273,124.641945 186.287247,125.704834 
	C183.026581,126.791603 180.339661,126.006065 178.852707,122.680771 
	C175.200760,114.513863 171.604675,106.321976 167.724380,97.548340 
	C169.450241,96.884758 170.894547,96.329437 172.802826,96.213867 
	C176.816345,104.724876 180.365860,112.796150 183.915390,120.867416 
	C184.482346,120.616989 185.049316,120.366554 185.616287,120.116119 
	C182.010727,112.067146 178.405151,104.018166 174.799591,95.969193 
z"/>
<path fill="#8E9397" opacity="1.000000" stroke="none" 
	d="
M288.226196,109.211365 
	C291.125671,103.170464 293.844269,97.460915 296.596130,91.767464 
	C299.377655,86.012764 299.392090,86.019745 305.770172,89.289413 
	C303.411530,99.646179 301.025787,110.121864 298.614990,120.707588 
	C290.712555,120.734001 295.814850,114.959846 294.036957,111.126961 
	C292.304596,113.693192 290.965210,115.677269 289.446259,117.927338 
	C288.173737,117.508362 286.817474,117.061821 284.896027,116.429192 
	C286.029053,113.965591 287.044464,111.757675 288.226196,109.211365 
z"/>
<path fill="#8D9397" opacity="1.000000" stroke="none" 
	d="
M136.708786,149.505234 
	C136.813080,147.655746 136.917374,145.806274 137.021667,143.956787 
	C137.621185,143.863815 138.220718,143.770844 138.820251,143.677856 
	C140.717484,145.460678 142.742355,147.128204 144.481903,149.053497 
	C147.059082,151.905853 146.651978,154.869781 144.058533,157.478638 
	C141.463150,160.089417 138.432373,160.555054 135.637695,157.944412 
	C130.168304,152.835159 124.825958,147.586243 119.534126,142.292084 
	C116.935898,139.692734 117.399010,136.798553 119.646416,134.260880 
	C121.862083,131.759048 124.658363,130.807465 127.609276,132.989182 
	C129.703583,134.537582 131.524429,136.455826 133.972336,138.664673 
	C131.708511,140.384491 129.966660,141.707779 128.098801,143.126801 
	C130.466125,145.374130 132.842468,147.630005 135.695129,150.294662 
	C136.469727,150.703232 136.768005,150.703003 137.066284,150.702789 
	C136.947128,150.303589 136.827957,149.904419 136.708786,149.505234 
M138.824692,151.324081 
	C138.531967,151.329681 138.239243,151.335281 137.946518,151.340897 
	C138.061478,151.726379 138.176453,152.111862 138.598526,153.015839 
	C139.204498,153.318146 139.810471,153.620468 140.799774,154.113998 
	C140.502670,153.261932 140.471649,152.905075 140.281235,152.688004 
	C139.975327,152.339264 139.564041,152.082916 138.824692,151.324081 
z"/>
<path fill="#8E9498" opacity="1.000000" stroke="none" 
	d="
M309.821777,405.276062 
	C308.348938,402.654816 307.131805,400.313782 305.767853,397.690308 
	C307.461426,396.620728 308.939148,395.687500 309.530396,395.314117 
	C306.461212,392.061127 302.689850,389.110168 300.323914,385.289032 
	C297.428619,380.612915 298.589508,377.495605 302.419006,375.695160 
	C306.529205,373.762726 308.992615,375.037079 311.529449,380.424042 
	C311.952576,381.322601 312.331116,382.242188 312.930145,383.607697 
	C311.527435,384.369843 310.163086,385.111145 308.615814,385.951813 
	C307.900726,384.656555 307.360718,383.651611 306.794739,382.661499 
	C306.322296,381.834961 305.819489,381.025818 304.882935,380.517670 
	C305.154327,383.889191 306.078247,387.020416 310.011688,387.646393 
	C316.778656,388.723358 318.454498,394.132050 319.886536,399.365204 
	C320.358276,401.089233 319.173309,404.542328 317.789886,405.202911 
	C315.650665,406.224487 312.689850,405.525574 309.821777,405.276062 
z"/>
<path fill="#8E9498" opacity="1.000000" stroke="none" 
	d="
M208.573395,392.457458 
	C208.306046,394.270935 208.139221,395.704163 207.953339,397.300995 
	C212.369003,395.012177 208.807755,385.660034 218.110977,387.427063 
	C214.253525,397.467377 210.754883,407.083801 206.708527,416.463928 
	C206.199463,417.644012 202.806732,417.580139 199.723297,418.348450 
	C201.439011,406.154022 202.933701,395.530518 204.511581,384.315826 
	C206.291183,384.699524 207.761642,385.016541 209.563461,385.405029 
	C209.236465,387.857727 208.955185,389.967438 208.573395,392.457458 
z"/>
<path fill="#8E9498" opacity="1.000000" stroke="none" 
	d="
M368.386658,331.627930 
	C365.877380,330.675232 363.720551,329.872101 361.592224,329.079559 
	C362.453827,323.072632 366.262817,325.129944 370.728333,326.656067 
	C368.566864,324.110443 367.425964,322.766785 366.027374,321.119598 
	C366.816437,319.855988 367.647156,318.525665 368.485718,317.182831 
	C376.885864,324.463226 384.996277,331.492493 393.595306,338.945251 
	C393.203613,339.597015 392.410248,340.917175 391.896149,341.772675 
	C383.880249,338.312805 376.309692,335.045135 368.386658,331.627930 
z"/>
<path fill="#8E9497" opacity="1.000000" stroke="none" 
	d="
M234.763062,409.575928 
	C234.794403,402.310333 234.794403,395.508392 234.794403,388.345459 
	C238.123291,388.345459 241.013840,388.345459 245.700317,388.345459 
	C243.862473,390.832031 242.675156,392.438446 241.487854,394.044830 
	C241.084900,393.804932 240.681946,393.565033 240.278992,393.325104 
	C240.278992,395.938629 240.278992,398.552185 240.278992,400.558624 
	C241.918671,401.927338 243.241898,403.031891 244.565109,404.136414 
	C243.379074,405.380219 242.193069,406.624054 240.208466,408.705353 
	C240.208466,409.965637 240.208466,412.591339 240.208466,413.931427 
	C242.084579,416.384033 243.362656,418.054840 245.440262,420.770844 
	C240.823853,420.770844 238.043213,420.770844 234.731720,420.770844 
	C234.731720,417.161407 234.731720,413.600494 234.763062,409.575928 
z"/>
<path fill="#8D9396" opacity="1.000000" stroke="none" 
	d="
M348.766785,353.720093 
	C347.249481,353.244934 346.049591,352.579193 344.250671,351.581116 
	C347.286804,348.339294 349.855530,345.596558 353.455475,341.752716 
	C354.183472,344.219025 354.540436,345.772308 355.106506,347.245148 
	C355.627686,348.601044 356.078613,350.178986 357.069550,351.127014 
	C362.689453,356.503387 368.462250,361.719971 374.543976,367.323486 
	C373.329529,368.723450 372.327271,369.878876 371.098267,371.295624 
	C365.035645,365.728882 359.374603,360.403534 353.536041,355.280548 
	C352.408264,354.290955 350.586090,354.092743 348.766785,353.720093 
z"/>
<path fill="#8F9599" opacity="1.000000" stroke="none" 
	d="
M98.695053,238.210983 
	C94.319473,237.571091 90.385399,236.968384 86.443008,236.426117 
	C85.306190,236.269745 84.046158,235.963211 83.012428,236.279877 
	C77.870369,237.855072 74.756668,235.305557 75.589851,229.367523 
	C86.165863,230.949142 96.740013,232.530487 107.488449,234.137894 
	C108.198189,238.164200 106.856552,239.705872 103.054535,238.961075 
	C101.752411,238.705994 100.440712,238.499725 98.695053,238.210983 
z"/>
<path fill="#8D9397" opacity="1.000000" stroke="none" 
	d="
M92.698654,298.749329 
	C99.410950,296.277832 105.758400,293.943420 112.386452,291.505798 
	C113.092232,293.289398 113.616051,294.613159 114.322159,296.397614 
	C109.404198,298.262451 104.701126,299.788788 100.230057,301.824677 
	C96.818909,303.378021 93.859688,305.988190 90.389412,307.320984 
	C88.568901,308.020172 86.019463,307.206696 83.927704,306.618896 
	C83.125923,306.393616 81.995956,304.301208 82.190620,304.076172 
	C83.172318,302.941406 84.435829,301.915894 85.799637,301.277588 
	C87.892311,300.298096 90.147545,299.665924 92.698654,298.749329 
z"/>
<path fill="#8F9598" opacity="1.000000" stroke="none" 
	d="
M187.660858,376.467102 
	C190.186996,377.377625 191.281494,378.415649 189.892944,380.972534 
	C185.237900,389.544220 180.746033,398.204559 176.077545,407.047211 
	C173.560226,406.421112 170.428940,406.409180 172.350067,402.602448 
	C176.673904,394.034668 181.235077,385.586182 185.761551,377.122253 
	C185.990021,376.695007 186.801056,376.579254 187.660858,376.467102 
z"/>
<path fill="#8E9498" opacity="1.000000" stroke="none" 
	d="
M345.808319,382.178650 
	C347.028046,383.949432 348.033569,385.432648 349.179626,387.123108 
	C347.811127,388.203644 346.683624,389.093903 345.059082,390.376648 
	C338.563812,381.357574 332.222687,372.552460 325.714508,363.515442 
	C327.272980,362.426300 328.451569,361.602631 330.136749,360.424896 
	C335.393738,367.725464 340.493927,374.808289 345.808319,382.178650 
z"/>
<path fill="#92979B" opacity="1.000000" stroke="none" 
	d="
M271.413208,94.771805 
	C274.058197,95.797218 278.030396,94.066795 277.766754,98.470802 
	C277.744476,98.843170 273.424591,98.966866 271.099121,99.182770 
	C270.778442,99.212547 270.365326,99.216400 270.130920,99.045654 
	C268.806610,98.081024 267.523773,97.059448 266.226807,96.057274 
	C267.820099,95.602837 269.413361,95.148399 271.413208,94.771805 
z"/>
<path fill="#EDEEEF" opacity="1.000000" stroke="none" 
	d="
M174.514862,95.966858 
	C178.405151,104.018166 182.010727,112.067146 185.616287,120.116119 
	C185.049316,120.366554 184.482346,120.616989 183.915390,120.867416 
	C180.365860,112.796150 176.816345,104.724876 173.178986,96.306274 
	C173.470795,95.960800 173.850464,95.962662 174.514862,95.966858 
z"/>
<path fill="#93999C" opacity="1.000000" stroke="none" 
	d="
M115.085709,334.877441 
	C113.088295,334.276978 111.176331,333.761292 109.870026,332.577362 
	C109.502487,332.244263 110.566254,329.472351 111.618835,328.709656 
	C112.430359,328.121674 115.319817,328.676971 115.432434,329.157867 
	C115.842690,330.909698 115.474983,332.843750 115.085709,334.877441 
z"/>
<path fill="#909599" opacity="1.000000" stroke="none" 
	d="
M109.588867,170.018646 
	C111.328270,168.814423 112.964897,167.727631 114.756668,167.315720 
	C115.150513,167.225189 116.737122,169.606674 116.609154,170.715256 
	C116.477188,171.858368 114.454735,173.879791 114.072411,173.707947 
	C112.401077,172.956818 111.025078,171.548584 109.588867,170.018646 
z"/>
<path fill="#EDEEEF" opacity="1.000000" stroke="none" 
	d="
M137.693146,348.697449 
	C138.947006,347.244629 140.200882,345.791840 141.730438,344.174133 
	C142.167725,344.292938 142.374039,344.539215 142.825989,344.882935 
	C141.712646,346.491760 140.398361,347.965759 138.610291,349.328949 
	C137.988724,349.044617 137.840942,348.871033 137.693146,348.697449 
z"/>
<path fill="#F4F9FC" opacity="1.000000" stroke="none" 
	d="
M271.520020,233.832336 
	C271.020874,236.500259 271.224091,239.046341 270.267181,241.033844 
	C268.832184,244.014313 267.134064,247.411621 264.552368,249.170654 
	C260.558319,251.891998 255.724243,253.380463 250.038940,255.934021 
	C256.004059,243.320709 264.258972,233.351456 271.520935,222.271454 
	C275.785309,226.449890 272.524658,229.948349 271.520020,233.832336 
z"/>
<path fill="#FEFEFF" opacity="1.000000" stroke="none" 
	d="
M380.002594,210.894333 
	C378.516357,210.966324 377.030121,211.038300 375.220947,211.125931 
	C375.220947,191.701889 375.220947,172.490540 375.220947,152.945984 
	C394.474182,152.945984 413.649689,152.945984 433.105896,152.945984 
	C433.105896,172.257309 433.105896,191.331360 433.105896,211.045074 
	C423.861084,211.045074 414.601685,211.045074 404.876404,210.579376 
	C406.493195,206.805237 408.629669,203.529114 410.642761,200.178879 
	C412.493500,197.098938 414.542786,194.060013 415.756683,190.730331 
	C416.063232,189.889465 412.412537,187.945526 412.487396,186.615875 
	C412.698151,182.872849 409.318512,183.454590 407.819000,181.914169 
	C402.696716,176.652039 398.285919,177.650055 394.934174,184.052444 
	C390.187012,193.120163 385.001038,201.958160 380.002594,210.894333 
z"/>
<path fill="#0570B5" opacity="1.000000" stroke="none" 
	d="
M380.463867,210.982376 
	C385.001038,201.958160 390.187012,193.120163 394.934174,184.052444 
	C398.285919,177.650055 402.696716,176.652039 407.819000,181.914169 
	C409.318512,183.454590 412.698151,182.872849 412.487396,186.615875 
	C412.412537,187.945526 416.063232,189.889465 415.756683,190.730331 
	C414.542786,194.060013 412.493500,197.098938 410.642761,200.178879 
	C408.629669,203.529114 406.493195,206.805237 404.370636,210.503601 
	C396.528900,210.952484 388.727020,211.011444 380.463867,210.982376 
z"/>
<path fill="#FEFEFF" opacity="1.000000" stroke="none" 
	d="
M329.398865,110.528152 
	C329.390839,110.308098 329.482117,110.233879 329.573364,110.159668 
	C329.639526,110.256882 329.767212,110.363106 329.754608,110.448761 
	C329.742065,110.534538 329.589417,110.599762 329.398865,110.528152 
z"/>
<path fill="#FEFEFF" opacity="1.000000" stroke="none" 
	d="
M331.000458,108.014038 
	C330.898621,108.396667 330.628723,108.616638 330.358795,108.836609 
	C330.304810,108.565506 330.250824,108.294403 330.336609,107.785553 
	C330.476410,107.547806 330.832367,107.851372 331.000458,108.014038 
z"/>
<path fill="#FEFEFF" opacity="1.000000" stroke="none" 
	d="
M146.383560,113.724113 
	C146.643433,114.167831 146.682343,114.766693 146.721237,115.365562 
	C146.438293,115.166107 146.155350,114.966644 145.810028,114.496033 
	C145.885956,114.109673 146.024261,113.994469 146.383560,113.724113 
z"/>
<path fill="#FEFEFF" opacity="1.000000" stroke="none" 
	d="
M159.678177,133.418213 
	C160.178802,133.413559 160.471970,133.624893 160.765121,133.836227 
	C160.333649,133.768890 159.902176,133.701569 159.678177,133.418213 
z"/>
<path fill="#FEFEFF" opacity="1.000000" stroke="none" 
	d="
M161.669464,136.324005 
	C161.830994,135.889008 161.992538,135.454010 162.132034,135.461029 
	C161.963150,136.043381 161.816299,136.183701 161.669464,136.324005 
z"/>
<path fill="#FEFEFF" opacity="1.000000" stroke="none" 
	d="
M162.656860,137.298630 
	C162.190979,137.286255 161.998489,137.039810 161.759003,136.542053 
	C161.816299,136.183701 161.963150,136.043381 162.342346,135.701584 
	C162.809509,135.713470 163.001862,135.959961 163.241226,136.457642 
	C163.183014,136.816406 163.035339,136.957108 162.656860,137.298630 
z"/>
<path fill="#FEFEFF" opacity="1.000000" stroke="none" 
	d="
M353.301666,127.440491 
	C353.983917,126.708458 354.666168,125.976433 355.348419,125.244400 
	C355.556702,125.396446 355.764984,125.548492 355.973267,125.700539 
	C355.559662,126.425751 355.146027,127.150963 354.249939,127.839340 
	C353.612213,127.681816 353.456940,127.561150 353.301666,127.440491 
z"/>
<path fill="#FEFEFF" opacity="1.000000" stroke="none" 
	d="
M351.688538,129.658813 
	C351.656799,129.139511 351.849884,128.866180 352.425385,128.678558 
	C352.940704,128.908798 353.073639,129.053329 353.206543,129.197861 
	C353.137482,129.528748 352.991089,129.820892 352.573792,130.227432 
	C352.224579,130.221985 352.069000,130.063385 351.688538,129.658813 
z"/>
<path fill="#FEFEFF" opacity="1.000000" stroke="none" 
	d="
M352.629517,128.529785 
	C352.600555,128.067505 352.777802,127.864082 353.142334,127.562744 
	C353.456940,127.561150 353.612213,127.681816 353.982971,128.004196 
	C354.112122,128.535843 353.929779,128.799301 353.428955,129.097076 
	C353.073639,129.053329 352.940704,128.908798 352.629517,128.529785 
z"/>
<path fill="#EDEEEF" opacity="1.000000" stroke="none" 
	d="
M124.682869,362.714355 
	C127.422531,359.667999 130.162201,356.621643 133.382721,353.678589 
	C134.011398,353.955566 134.159195,354.129211 134.307007,354.302856 
	C131.584778,357.326233 128.862564,360.349609 125.650803,363.290710 
	C125.001801,363.043793 124.842331,362.879089 124.682869,362.714355 
z"/>
<path fill="#EDEEEF" opacity="1.000000" stroke="none" 
	d="
M125.371414,363.480652 
	C125.082237,363.974579 124.582909,364.196289 124.083588,364.417999 
	C124.128868,363.975342 124.174141,363.532715 124.451141,362.902222 
	C124.842331,362.879089 125.001801,363.043793 125.371414,363.480652 
z"/>
<path fill="#EDEEEF" opacity="1.000000" stroke="none" 
	d="
M134.217789,352.472565 
	C134.732407,352.587799 135.247009,352.703033 135.273041,352.838043 
	C134.595551,352.729401 134.406677,352.600983 134.217789,352.472565 
z"/>
<path fill="#EDEEEF" opacity="1.000000" stroke="none" 
	d="
M133.673920,353.497314 
	C133.597305,353.001831 133.746140,352.820282 134.074265,352.570312 
	C134.406677,352.600983 134.595551,352.729401 135.044037,353.082031 
	C135.177292,353.609894 134.983917,353.862091 134.515244,354.182861 
	C134.159195,354.129211 134.011398,353.955566 133.673920,353.497314 
z"/>
<path fill="#EDEEEF" opacity="1.000000" stroke="none" 
	d="
M137.782318,350.527374 
	C137.270767,350.412628 136.759201,350.297882 136.731689,350.162720 
	C137.404587,350.270660 137.593445,350.399017 137.782318,350.527374 
z"/>
<path fill="#EDEEEF" opacity="1.000000" stroke="none" 
	d="
M138.326172,349.502686 
	C138.402832,349.998108 138.253983,350.179657 137.925827,350.429596 
	C137.593445,350.399017 137.404587,350.270660 136.956207,349.918121 
	C136.822906,349.390320 137.016235,349.138123 137.484894,348.817383 
	C137.840942,348.871033 137.988724,349.044617 138.326172,349.502686 
z"/>
<path fill="#CCCFD0" opacity="1.000000" stroke="none" 
	d="
M244.221619,106.380791 
	C244.135880,103.403442 244.135880,100.835251 244.135880,98.267067 
	C244.566132,98.235962 244.996384,98.204865 245.426636,98.173759 
	C245.670044,100.951302 245.925186,103.728188 246.078964,106.510681 
	C246.082291,106.570961 244.923859,106.695435 244.221619,106.380791 
z"/>
<path fill="#FEFEFF" opacity="1.000000" stroke="none" 
	d="
M139.197281,151.787521 
	C139.564041,152.082916 139.975327,152.339264 140.281235,152.688004 
	C140.471649,152.905075 140.502670,153.261932 140.799774,154.113998 
	C139.810471,153.620468 139.204498,153.318146 138.682098,152.592743 
	C138.909561,152.042267 139.053421,151.914886 139.197281,151.787521 
z"/>
<path fill="#FEFEFF" opacity="1.000000" stroke="none" 
	d="
M136.471375,149.668457 
	C136.827957,149.904419 136.947128,150.303589 137.066284,150.702789 
	C136.768005,150.703003 136.469727,150.703232 135.986679,150.458160 
	C135.945938,150.085815 136.089951,149.958740 136.471375,149.668457 
z"/>
<path fill="#FEFEFF" opacity="1.000000" stroke="none" 
	d="
M138.528564,152.333496 
	C138.176453,152.111862 138.061478,151.726379 137.946518,151.340897 
	C138.239243,151.335281 138.531967,151.329681 139.010986,151.555801 
	C139.053421,151.914886 138.909561,152.042267 138.528564,152.333496 
z"/>
</svg>