<?xml version="1.0" standalone="no"?>
<!DOCTYPE svg PUBLIC "-//W3C//DTD SVG 20010904//EN"
 "http://www.w3.org/TR/2001/REC-SVG-20010904/DTD/svg10.dtd">
<svg version="1.0" xmlns="http://www.w3.org/2000/svg"
 width="500.000000pt" height="500.000000pt" viewBox="0 0 500.000000 500.000000"
 preserveAspectRatio="xMidYMid meet">

<g transform="translate(0.000000,500.000000) scale(0.100000,-0.100000)"
fill="#000000" stroke="none">
<path d="M4060 3441 l0 -470 52 -3 53 -3 -55 -63 c-30 -35 -84 -93 -120 -130
-36 -37 -83 -87 -106 -112 -72 -78 -109 -110 -131 -110 -12 0 -24 3 -26 8 -5
8 16 87 58 222 14 47 35 123 45 169 11 46 26 97 35 114 8 16 15 45 15 63 0 18
4 35 9 39 32 19 -57 125 -106 125 -48 0 -112 -87 -154 -209 -11 -30 -23 -57
-28 -61 -7 -4 -54 -129 -113 -295 -25 -73 -39 -154 -36 -202 3 -29 2 -53 -2
-53 -18 0 12 -108 42 -151 32 -47 33 -47 97 -53 37 -3 90 -4 120 -3 48 3 58 8
83 37 15 19 28 38 28 42 0 4 4 8 9 8 49 0 297 241 273 265 -4 4 1 11 11 16 9
6 17 19 17 29 0 11 6 20 14 20 16 0 39 -57 30 -72 -4 -5 2 -22 13 -36 11 -15
26 -44 34 -66 8 -23 33 -54 61 -78 26 -21 45 -44 42 -51 -2 -7 9 -19 25 -29
25 -14 30 -14 35 -2 6 17 57 19 73 3 8 -8 13 -8 17 0 4 6 18 11 31 11 14 0 39
13 57 30 28 25 31 31 18 39 -12 8 -12 13 -2 23 10 10 18 10 42 -4 17 -9 30
-13 30 -8 0 5 10 12 23 16 12 4 32 14 45 22 l23 15 -22 15 -21 15 31 24 c17
13 31 30 31 37 0 6 16 18 35 25 27 9 40 22 52 52 8 22 28 47 44 56 22 13 27
22 23 40 -4 14 2 33 16 53 21 29 21 30 2 30 -11 0 -31 -9 -44 -20 -30 -23
-210 -130 -253 -149 -16 -7 -61 -24 -100 -37 -66 -23 -71 -24 -83 -7 -22 30 2
268 29 298 5 5 9 17 9 27 0 17 16 18 255 18 l255 0 0 470 0 470 -470 0 -470 0
0 -469z m878 2 l-3 -408 -202 -3 c-199 -2 -203 -2 -203 18 0 31 27 80 70 125
46 49 95 138 87 160 -4 8 -19 21 -34 27 -15 7 -29 13 -31 14 -2 1 2 12 8 25
11 20 10 21 -9 16 -16 -4 -27 2 -43 24 -24 33 -79 49 -103 29 -8 -6 -19 -9
-24 -6 -5 4 -27 -29 -48 -71 -21 -43 -40 -80 -43 -83 -3 -3 -16 -25 -29 -50
-106 -202 -130 -234 -177 -228 l-29 3 -3 408 -2 407 410 0 410 0 -2 -407z"/>
<path d="M2816 3234 c-21 -7 -49 -11 -61 -8 -29 7 -69 -14 -145 -77 -43 -36
-59 -55 -55 -68 4 -12 -4 -20 -28 -29 -19 -7 -41 -26 -51 -44 -11 -18 -45 -63
-75 -99 -65 -77 -152 -215 -232 -367 -31 -59 -72 -138 -92 -175 -20 -38 -37
-75 -37 -83 0 -8 -5 -14 -11 -14 -7 0 -9 -10 -7 -24 3 -15 0 -27 -8 -30 -7 -3
-16 -16 -19 -28 -4 -17 -20 -29 -55 -41 -28 -10 -62 -29 -76 -42 -15 -14 -34
-25 -42 -25 -8 0 -36 -16 -62 -35 -26 -19 -55 -35 -64 -35 -9 0 -16 -5 -16
-11 0 -6 -20 -34 -45 -62 -54 -59 -56 -87 -9 -100 25 -7 49 -3 118 21 99 35
97 37 64 -73 -30 -101 -19 -139 52 -177 52 -29 84 -35 95 -18 3 5 17 10 31 10
19 0 24 5 24 24 0 13 7 29 15 36 8 7 13 16 10 20 -6 10 28 72 70 125 35 45 75
123 75 147 0 17 72 80 114 99 16 7 25 18 22 26 -4 9 3 13 22 13 15 0 42 9 60
20 18 11 42 20 53 20 11 0 50 16 88 35 37 19 72 35 78 35 11 0 26 -92 24 -148
-1 -32 0 -33 29 -27 38 8 38 1 -1 -43 -31 -35 -31 -35 -24 -116 4 -45 11 -89
16 -98 5 -10 7 -29 3 -42 -3 -14 -3 -34 1 -46 5 -17 9 -19 21 -9 13 11 14 8 7
-17 -10 -37 -7 -92 5 -107 6 -7 12 -23 14 -37 3 -22 6 -20 27 23 19 40 21 50
10 63 -11 14 -10 18 5 29 16 12 17 18 6 51 -7 21 -9 39 -3 43 5 3 21 35 36 71
26 63 45 189 45 286 -1 22 7 57 17 77 10 22 15 47 11 61 -3 14 -2 27 3 30 4 3
11 18 14 34 8 41 41 78 98 108 27 15 48 32 46 38 -2 6 18 27 44 48 26 20 50
47 54 58 4 14 12 19 23 16 23 -7 49 15 54 44 1 14 13 29 25 35 30 15 88 78 85
93 -2 6 3 12 10 12 21 0 135 57 144 72 7 11 5 11 -9 0 -16 -14 -37 -9 -37 8 0
5 9 12 20 15 31 10 24 26 -7 19 -23 -5 -26 -4 -15 7 39 42 -15 35 -162 -21
-55 -21 -148 -59 -205 -84 -68 -30 -108 -43 -114 -37 -7 7 -6 41 3 98 7 48 14
147 16 220 4 141 -2 163 -47 163 -21 0 -26 16 -6 23 9 3 9 7 -2 20 -16 20 -33
20 -85 1z m-79 -375 c10 -27 9 -40 -12 -96 -14 -36 -25 -78 -25 -93 0 -83 -53
-160 -119 -173 -18 -4 -59 -23 -91 -43 -58 -36 -87 -38 -75 -5 13 35 92 159
142 225 29 38 53 74 53 79 0 15 93 136 105 137 6 0 16 -14 22 -31z"/>
<path d="M1455 3125 c-33 -11 -70 -26 -82 -33 -12 -7 -29 -12 -38 -12 -9 0
-19 -9 -22 -20 -3 -11 -10 -21 -17 -21 -6 -1 -21 -3 -33 -4 -12 -1 -34 -11
-49 -21 -15 -11 -34 -24 -43 -29 -30 -19 -61 -49 -61 -61 0 -6 -21 -32 -47
-57 -27 -26 -57 -56 -67 -67 -11 -11 -25 -20 -32 -20 -14 0 -68 -90 -149 -245
l-57 -110 -2 -133 c-1 -96 3 -137 11 -144 7 -6 13 -20 13 -32 0 -12 6 -31 14
-41 9 -13 11 -28 5 -47 -4 -15 -4 -28 0 -28 5 0 11 -13 14 -28 4 -22 11 -28
31 -27 13 0 28 3 32 8 13 13 26 7 20 -9 -6 -15 -4 -15 10 -3 14 11 16 10 14
-6 -5 -45 0 -53 38 -60 64 -12 135 -11 140 3 2 6 10 12 18 12 12 0 13 -4 3
-22 -11 -21 -11 -22 4 -9 10 7 17 10 17 6 0 -4 6 -3 13 3 6 5 36 13 65 17 29
4 70 15 92 26 21 10 46 19 54 19 8 0 17 4 20 9 3 5 21 12 40 15 19 4 40 13 47
22 7 9 29 24 49 34 20 10 42 26 49 34 7 9 17 13 22 10 5 -3 9 4 9 15 0 12 6
21 13 21 18 0 67 48 67 66 0 8 16 22 36 32 27 12 42 29 55 60 11 25 23 41 30
37 5 -4 28 12 50 36 39 42 47 59 30 59 -16 0 -105 -41 -122 -56 -50 -45 -299
-147 -411 -168 -129 -24 -154 -22 -194 18 -29 29 -34 41 -34 83 0 59 33 144
80 203 47 60 131 140 147 140 6 0 16 7 21 17 6 10 16 14 26 10 9 -4 16 -2 16
3 0 5 10 9 23 9 45 -2 153 14 177 26 14 7 45 21 69 31 71 29 122 76 143 131
26 68 24 122 -7 163 -14 19 -25 39 -25 46 0 6 -7 14 -15 18 -8 3 -15 12 -15
21 0 8 -7 15 -15 15 -24 0 -28 2 -70 28 -53 34 -137 37 -220 7z"/>
</g>
</svg>
