<svg version="1.1" id="Layer_1" xmlns="http://www.w3.org/2000/svg" xmlns:xlink="http://www.w3.org/1999/xlink" x="0px" y="0px"
	 width="100%" viewBox="0 0 200 200" enable-background="new 0 0 200 200" xml:space="preserve">
<path fill="#000000" opacity="1.000000" stroke="none" 
	d="
M100.000000,201.000000 
	C66.687195,201.000000 33.874397,201.000000 1.030797,201.000000 
	C1.030797,134.395569 1.030797,67.791107 1.030797,1.093328 
	C67.562645,1.093328 134.125458,1.093328 200.844147,1.093328 
	C200.844147,67.666382 200.844147,134.333145 200.844147,201.000000 
	C167.458054,201.000000 133.979034,201.000000 100.000000,201.000000 
M150.701752,91.782669 
	C148.129837,94.818222 145.557922,97.853775 142.986023,100.889328 
	C142.604111,100.655014 142.222198,100.420700 141.840286,100.186378 
	C143.248123,94.527267 144.390610,88.783615 146.157059,83.238747 
	C147.335510,79.539627 146.614975,77.077080 143.133316,75.665466 
	C139.597778,74.232002 136.238998,74.463661 134.244019,78.275291 
	C131.824356,82.898369 129.616211,87.632164 128.084702,90.752831 
	C120.273766,93.312065 113.585297,95.503532 106.996986,97.662178 
	C106.996986,92.865517 107.322731,88.012825 106.848534,83.239609 
	C106.636925,81.109566 104.649605,77.317162 103.754715,77.399338 
	C98.832108,77.851387 93.262489,78.124619 89.326881,80.655190 
	C84.786125,83.574860 81.078278,88.380516 78.140495,93.075378 
	C72.602180,101.926109 68.141579,111.449158 62.651157,120.333145 
	C60.957249,123.074036 57.374596,124.647652 54.656750,126.755730 
	C54.375134,126.352417 54.093521,125.949104 53.811905,125.545792 
	C55.515823,120.976852 62.100243,119.424934 61.795086,112.029671 
	C58.206829,113.527634 55.445541,114.668777 52.693447,115.831680 
	C47.129154,118.182892 41.691227,120.917366 35.970161,122.786774 
	C31.379076,124.286949 28.564354,121.448906 30.383028,117.425819 
	C33.101749,111.411743 36.357178,105.728516 44.079659,104.818169 
	C47.124565,104.459236 50.187279,103.546982 53.036716,102.384010 
	C58.612324,100.108368 60.911793,95.659264 59.974091,89.836769 
	C59.313461,85.734703 54.404373,81.580605 49.695568,81.002426 
	C40.442707,79.866302 32.804600,84.020386 26.304688,89.531326 
	C20.158592,94.742302 15.321818,101.310509 11.810575,108.920685 
	C9.236961,114.498680 9.894779,119.721657 10.711336,125.199158 
	C11.059910,127.537415 11.089954,130.414856 12.466905,132.008728 
	C15.616199,135.654160 19.781588,138.911407 24.895660,137.857803 
	C32.012562,136.391617 38.927307,133.944168 46.308746,132.293961 
	C46.440823,132.414078 46.572903,132.534195 46.278667,133.246460 
	C46.070419,134.746964 45.513378,137.504883 45.706501,137.558456 
	C48.394394,138.304047 51.184975,138.679459 53.012638,138.987259 
	C54.215469,141.921539 54.644283,145.797348 56.806179,147.641968 
	C61.073086,151.282639 66.202606,148.929565 69.063499,143.478271 
	C73.392075,135.230438 77.267578,126.283279 89.094536,125.679314 
	C90.099266,134.451859 91.139648,143.535721 92.168968,152.523026 
	C97.046921,153.988892 98.509659,151.449890 98.984871,147.645172 
	C99.228241,145.696671 99.345634,143.727783 99.682983,141.796585 
	C100.508728,137.069427 101.212997,132.304565 102.379005,127.658508 
	C103.337883,123.837799 104.027771,119.463722 106.372078,116.585152 
	C110.350113,111.700500 115.517563,107.778809 120.233253,103.505531 
	C121.145340,102.679016 122.277954,102.095863 124.042877,100.905281 
	C123.901894,104.084419 124.024529,106.383789 123.654030,108.600739 
	C122.921989,112.980972 123.623375,117.930580 127.403793,119.291611 
	C131.663651,120.825256 137.617767,121.169426 141.524719,119.297012 
	C146.673294,116.829544 150.545853,111.699570 155.150024,107.549347 
	C155.787079,108.793961 156.197357,110.333366 157.163345,111.338921 
	C159.658936,113.936646 160.975998,118.933136 165.623550,117.783363 
	C170.466827,116.585167 175.441101,114.752228 179.511139,111.961563 
	C182.758896,109.734695 184.846527,105.732002 187.236084,102.366318 
	C188.872467,100.061462 190.142990,97.496849 192.004333,94.318832 
	C182.522675,93.127205 177.919434,101.332916 169.568130,101.911850 
	C170.442993,98.036995 171.216293,94.611946 172.917404,91.039871 
	C179.513428,91.039871 186.109436,91.039871 192.749832,91.039871 
	C192.749832,76.700722 192.749832,63.106941 192.749832,49.326736 
	C178.449432,49.326736 164.404617,49.326736 150.041260,49.326736 
	C150.041260,62.957661 150.030060,76.260818 150.081909,89.563721 
	C150.084015,90.100204 150.682236,90.634354 150.701752,91.782669 
z"/>
<path fill="#005BAC" opacity="1.000000" stroke="none" 
	d="
M45.928577,131.916702 
	C38.927307,133.944168 32.012562,136.391617 24.895660,137.857803 
	C19.781588,138.911407 15.616199,135.654160 12.466905,132.008728 
	C11.089954,130.414856 11.059910,127.537415 10.711336,125.199158 
	C9.894779,119.721657 9.236961,114.498680 11.810575,108.920685 
	C15.321818,101.310509 20.158592,94.742302 26.304688,89.531326 
	C32.804600,84.020386 40.442707,79.866302 49.695568,81.002426 
	C54.404373,81.580605 59.313461,85.734703 59.974091,89.836769 
	C60.911793,95.659264 58.612324,100.108368 53.036716,102.384010 
	C50.187279,103.546982 47.124565,104.459236 44.079659,104.818169 
	C36.357178,105.728516 33.101749,111.411743 30.383028,117.425819 
	C28.564354,121.448906 31.379076,124.286949 35.970161,122.786774 
	C41.691227,120.917366 47.129154,118.182892 52.693447,115.831680 
	C55.445541,114.668777 58.206829,113.527634 61.795086,112.029671 
	C62.100243,119.424934 55.515823,120.976852 53.811905,125.545792 
	C54.093521,125.949104 54.375134,126.352417 54.656750,126.755730 
	C57.374596,124.647652 60.957249,123.074036 62.651157,120.333145 
	C68.141579,111.449158 72.602180,101.926109 78.140495,93.075378 
	C81.078278,88.380516 84.786125,83.574860 89.326881,80.655190 
	C93.262489,78.124619 98.832108,77.851387 103.754715,77.399338 
	C104.649605,77.317162 106.636925,81.109566 106.848534,83.239609 
	C107.322731,88.012825 106.996986,92.865517 106.996986,97.662178 
	C113.585297,95.503532 120.273766,93.312065 128.084702,90.752831 
	C129.616211,87.632164 131.824356,82.898369 134.244019,78.275291 
	C136.238998,74.463661 139.597778,74.232002 143.133316,75.665466 
	C146.614975,77.077080 147.335510,79.539627 146.157059,83.238747 
	C144.390610,88.783615 143.248123,94.527267 141.840286,100.186378 
	C142.222198,100.420700 142.604111,100.655014 142.986023,100.889328 
	C145.557922,97.853775 148.129837,94.818222 151.280548,91.404968 
	C158.569443,91.080467 165.279526,91.133682 171.989594,91.186897 
	C171.216293,94.611946 170.442993,98.036995 169.568130,101.911850 
	C177.919434,101.332916 182.522675,93.127205 192.004333,94.318832 
	C190.142990,97.496849 188.872467,100.061462 187.236084,102.366318 
	C184.846527,105.732002 182.758896,109.734695 179.511139,111.961563 
	C175.441101,114.752228 170.466827,116.585167 165.623550,117.783363 
	C160.975998,118.933136 159.658936,113.936646 157.163345,111.338921 
	C156.197357,110.333366 155.787079,108.793961 155.150024,107.549347 
	C150.545853,111.699570 146.673294,116.829544 141.524719,119.297012 
	C137.617767,121.169426 131.663651,120.825256 127.403793,119.291611 
	C123.623375,117.930580 122.921989,112.980972 123.654030,108.600739 
	C124.024529,106.383789 123.901894,104.084419 124.042877,100.905281 
	C122.277954,102.095863 121.145340,102.679016 120.233253,103.505531 
	C115.517563,107.778809 110.350113,111.700500 106.372078,116.585152 
	C104.027771,119.463722 103.337883,123.837799 102.379005,127.658508 
	C101.212997,132.304565 100.508728,137.069427 99.682983,141.796585 
	C99.345634,143.727783 99.228241,145.696671 98.984871,147.645172 
	C98.509659,151.449890 97.046921,153.988892 92.168968,152.523026 
	C91.139648,143.535721 90.099266,134.451859 89.094536,125.679314 
	C77.267578,126.283279 73.392075,135.230438 69.063499,143.478271 
	C66.202606,148.929565 61.073086,151.282639 56.806179,147.641968 
	C54.644283,145.797348 54.215469,141.921539 53.012638,138.987259 
	C51.184975,138.679459 48.394394,138.304047 45.706501,137.558456 
	C45.513378,137.504883 46.070419,134.746964 46.688797,132.773102 
	C47.187801,131.946564 47.276669,131.593353 47.365540,131.240158 
	C46.886551,131.465668 46.407566,131.691193 45.928577,131.916702 
M50.862801,128.753815 
	C51.127693,128.422501 51.392582,128.091187 51.657471,127.759880 
	C51.307575,127.911591 50.957680,128.063293 50.862801,128.753815 
z"/>
<path fill="#E40113" opacity="1.000000" stroke="none" 
	d="
M172.453506,91.113388 
	C165.279526,91.133682 158.569443,91.080467 151.431046,91.098419 
	C150.682236,90.634354 150.084015,90.100204 150.081909,89.563721 
	C150.030060,76.260818 150.041260,62.957661 150.041260,49.326736 
	C164.404617,49.326736 178.449432,49.326736 192.749832,49.326736 
	C192.749832,63.106941 192.749832,76.700722 192.749832,91.039871 
	C186.109436,91.039871 179.513428,91.039871 172.453506,91.113388 
M156.310013,85.745621 
	C162.212814,85.773926 168.115631,85.802231 174.933029,85.963318 
	C178.522980,85.963318 182.112915,85.963318 185.574188,85.963318 
	C185.574188,74.911079 185.574188,64.541832 185.574188,54.316833 
	C175.564529,54.316833 165.979279,54.316833 156.169373,54.316833 
	C156.169373,64.742249 156.169373,74.857613 156.310013,85.745621 
z"/>
<path fill="#000000" opacity="1.000000" stroke="none" 
	d="
M50.735291,128.484406 
	C50.957680,128.063293 51.307575,127.911591 51.657471,127.759880 
	C51.392582,128.091187 51.127693,128.422501 50.735291,128.484406 
z"/>
<path fill="#000000" opacity="1.000000" stroke="none" 
	d="
M46.118660,132.105331 
	C46.407566,131.691193 46.886551,131.465668 47.365540,131.240158 
	C47.276669,131.593353 47.187801,131.946564 46.901955,132.477036 
	C46.572903,132.534195 46.440823,132.414078 46.118660,132.105331 
z"/>
<path fill="#000000" opacity="1.000000" stroke="none" 
	d="
M156.169373,84.972977 
	C156.169373,74.857613 156.169373,64.742249 156.169373,54.316833 
	C165.979279,54.316833 175.564529,54.316833 185.574188,54.316833 
	C185.574188,64.541832 185.574188,74.911079 185.574188,85.963318 
	C182.112915,85.963318 178.522980,85.963318 174.492203,85.551804 
	C175.071045,83.876633 176.237534,82.703255 177.081192,81.331360 
	C179.120682,78.014870 181.655060,74.845512 178.004990,70.781723 
	C175.044312,67.485466 171.454956,66.098587 167.513611,67.222351 
	C165.787979,67.714363 164.512299,70.360428 163.379364,72.237801 
	C160.859879,76.412766 158.559219,80.719780 156.169373,84.972977 
z"/>
<path fill="#005BAC" opacity="1.000000" stroke="none" 
	d="
M156.239685,85.359299 
	C158.559219,80.719780 160.859879,76.412766 163.379364,72.237801 
	C164.512299,70.360428 165.787979,67.714363 167.513611,67.222351 
	C171.454956,66.098587 175.044312,67.485466 178.004990,70.781723 
	C181.655060,74.845512 179.120682,78.014870 177.081192,81.331360 
	C176.237534,82.703255 175.071045,83.876633 174.034912,85.485413 
	C168.115631,85.802231 162.212814,85.773926 156.239685,85.359299 
z"/>
</svg>