<svg version="1.1" id="Layer_1" xmlns="http://www.w3.org/2000/svg" xmlns:xlink="http://www.w3.org/1999/xlink" x="0px" y="0px"
	 width="100%" viewBox="0 0 1032 214" enable-background="new 0 0 1032 214" xml:space="preserve">
<path fill="#FEFEFE" opacity="1.000000" stroke="none" 
	d="
M826.000000,215.000000 
	C551.000000,215.000000 276.000000,215.000000 1.000000,215.000000 
	C1.000000,198.921341 1.000000,182.929337 1.209428,166.504868 
	C1.418856,166.072418 1.843295,166.049286 1.914443,166.448212 
	C4.559920,186.967957 20.207201,200.973495 40.352722,200.983536 
	C112.493683,201.019470 184.634659,200.999329 256.775635,200.987778 
	C258.202057,200.987549 259.628448,200.833084 260.796082,200.765549 
	C260.796082,186.522949 260.796082,172.779526 260.796082,158.641510 
	C201.022659,158.641510 141.614624,158.641510 82.158005,158.641510 
	C82.158005,146.335693 82.158005,134.437851 82.158005,121.948074 
	C141.999466,121.948074 201.517929,121.948074 260.967224,121.948074 
	C260.967224,107.732300 260.967224,94.113213 260.967224,79.973007 
	C201.235245,79.973007 141.695389,79.973007 82.192612,79.973007 
	C82.192612,67.567665 82.192612,55.688850 82.192612,43.354782 
	C141.943100,43.354782 201.335724,43.354782 260.964478,43.354782 
	C260.964478,29.274317 260.964478,15.654152 261.009766,1.776741 
	C261.036713,1.346330 261.018341,1.173165 261.000000,1.000000 
	C276.354218,1.000000 291.708466,1.000000 307.540771,1.277641 
	C308.053680,1.737188 308.088470,1.919094 308.069092,2.560312 
	C308.014923,16.436340 308.014923,29.853060 308.014923,43.763298 
	C339.391937,43.763298 370.097290,43.763298 401.261963,43.763298 
	C401.261963,96.466881 401.261963,148.666870 401.261963,200.704651 
	C427.974609,200.704651 454.218323,200.704651 480.970154,200.704651 
	C480.970154,148.225388 480.970154,96.038040 480.970154,43.225739 
	C512.161621,43.225739 542.846802,43.225739 573.717834,43.225739 
	C573.717834,29.132006 573.717834,15.666142 573.799988,1.902945 
	C573.921448,1.403740 573.960754,1.201870 574.000000,1.000000 
	C586.687561,1.000000 599.375122,1.000000 612.593445,1.300175 
	C613.176758,1.797842 613.229248,1.995333 613.227966,2.645781 
	C613.174194,68.997704 613.174194,134.896667 613.174194,200.780090 
	C640.156433,200.780090 666.430298,200.780090 693.256104,200.780090 
	C693.256104,148.355362 693.256104,96.147629 693.256104,43.923012 
	C733.356689,43.923012 772.902710,43.923012 812.485901,43.923012 
	C812.485901,65.366890 812.485901,86.423386 812.485901,108.057724 
	C781.485046,108.057724 750.829956,108.057724 723.180908,108.057724 
	C756.686340,142.532318 791.381897,178.231445 826.087036,214.200043 
	C826.064453,214.646347 826.032227,214.823166 826.000000,215.000000 
z"/>
<path fill="#FEFEFE" opacity="1.000000" stroke="none" 
	d="
M1033.000000,201.000000 
	C1033.000000,205.650528 1033.000000,210.301071 1033.000000,215.000000 
	C995.645813,215.000000 958.291565,215.000000 920.507385,214.709137 
	C920.001038,214.238144 919.924683,214.058029 919.751221,213.570709 
	C885.155212,177.777252 850.656311,142.291016 817.154846,107.830757 
	C840.584045,107.830757 866.584290,107.830757 892.825317,107.830757 
	C892.825317,83.837860 893.408691,60.366917 892.637817,36.940540 
	C892.038086,18.714870 877.917542,4.426213 860.041809,1.669902 
	C859.994751,1.449911 860.000000,1.000000 860.000000,1.000000 
	C890.687561,1.000000 921.375122,1.000000 952.503296,1.259705 
	C952.974243,1.690876 953.004639,1.862343 952.949341,2.493438 
	C952.863586,68.869957 952.863586,134.786850 952.863586,200.918686 
	C979.600037,200.918686 1005.737549,200.918686 1032.155518,200.951233 
	C1032.623901,200.989182 1032.811890,200.994583 1033.000000,201.000000 
z"/>
<path fill="#869FC7" opacity="1.000000" stroke="none" 
	d="
M573.531372,1.000000 
	C573.960754,1.201870 573.921448,1.403740 573.351807,1.857780 
	C529.038269,2.072680 485.255035,2.007265 441.471802,2.005994 
	C397.022278,2.004704 352.572754,2.066713 308.123230,2.101001 
	C308.088470,1.919094 308.053680,1.737188 308.009460,1.277641 
	C396.354218,1.000000 484.708466,1.000000 573.531372,1.000000 
z"/>
<path fill="#869FC7" opacity="1.000000" stroke="none" 
	d="
M260.531342,1.000000 
	C261.018341,1.173165 261.036713,1.346330 260.543701,1.763271 
	C175.556747,2.003918 91.081207,2.000065 6.605667,2.003509 
	C5.108306,2.003570 3.610949,2.091207 2.087094,1.853295 
	C2.040399,1.379074 2.020200,1.189537 2.000000,1.000000 
	C88.020897,1.000000 174.041794,1.000000 260.531342,1.000000 
z"/>
<path fill="#FF9980" opacity="1.000000" stroke="none" 
	d="
M859.531372,1.000000 
	C860.000000,1.000000 859.994751,1.449911 859.570190,1.726539 
	C778.853821,2.000330 698.562012,1.996301 618.270203,2.002932 
	C616.607361,2.003069 614.944580,2.126768 613.281738,2.192824 
	C613.229248,1.995333 613.176758,1.797842 613.062134,1.300175 
	C695.020874,1.000000 777.041809,1.000000 859.531372,1.000000 
z"/>
<path fill="#C2CFE2" opacity="1.000000" stroke="none" 
	d="
M1033.000000,200.531342 
	C1032.811890,200.994583 1032.623901,200.989182 1032.207520,200.490494 
	C1031.986206,175.680679 1032.010254,151.364136 1031.996094,127.047630 
	C1031.972046,85.411316 1031.924194,43.775021 1031.912842,1.853844 
	C1031.959595,1.379314 1031.979858,1.189657 1032.000000,1.000001 
	C1032.333374,2.329700 1032.957275,3.659185 1032.958252,4.989127 
	C1033.005859,70.013618 1033.000000,135.038147 1033.000000,200.531342 
z"/>
<path fill="#C2CFE2" opacity="1.000000" stroke="none" 
	d="
M1.500000,1.000000 
	C2.020200,1.189537 2.040399,1.379074 2.039495,2.310397 
	C2.011984,34.457066 2.023241,65.861961 1.993281,97.266823 
	C1.971408,120.194336 1.895253,143.121796 1.843295,166.049286 
	C1.843295,166.049286 1.418856,166.072418 1.209428,166.036209 
	C1.000000,111.000000 1.000000,56.000000 1.500000,1.000000 
z"/>
<path fill="#FF9980" opacity="1.000000" stroke="none" 
	d="
M919.848389,213.877930 
	C919.924683,214.058029 920.001038,214.238144 920.038696,214.709137 
	C888.979126,215.000000 857.958191,215.000000 826.468628,215.000000 
	C826.032227,214.823166 826.064453,214.646347 826.550537,214.208740 
	C857.952454,213.924637 888.900452,213.901276 919.848389,213.877930 
z"/>
<path fill="#869FC7" opacity="1.000000" stroke="none" 
	d="
M1031.531372,1.000000 
	C1031.979858,1.189657 1031.959595,1.379314 1031.454712,1.800450 
	C1004.991760,2.032557 979.013428,2.033184 953.035095,2.033811 
	C953.004639,1.862343 952.974243,1.690876 952.971924,1.259705 
	C979.020935,1.000000 1005.041809,1.000000 1031.531372,1.000000 
z"/>
<path fill="#FF3502" opacity="1.000000" stroke="none" 
	d="
M919.751221,213.570709 
	C888.900452,213.901276 857.952454,213.924637 826.540955,213.939270 
	C791.381897,178.231445 756.686340,142.532318 723.180908,108.057724 
	C750.829956,108.057724 781.485046,108.057724 812.485901,108.057724 
	C812.485901,86.423386 812.485901,65.366890 812.485901,43.923012 
	C772.902710,43.923012 733.356689,43.923012 693.256104,43.923012 
	C693.256104,96.147629 693.256104,148.355362 693.256104,200.780090 
	C666.430298,200.780090 640.156433,200.780090 613.174194,200.780090 
	C613.174194,134.896667 613.174194,68.997704 613.227966,2.645780 
	C614.944580,2.126768 616.607361,2.003069 618.270203,2.002932 
	C698.562012,1.996301 778.853821,2.000330 859.617249,1.946530 
	C877.917542,4.426213 892.038086,18.714870 892.637817,36.940540 
	C893.408691,60.366917 892.825317,83.837860 892.825317,107.830757 
	C866.584290,107.830757 840.584045,107.830757 817.154846,107.830757 
	C850.656311,142.291016 885.155212,177.777252 919.751221,213.570709 
z"/>
<path fill="#0B3F8B" opacity="1.000000" stroke="none" 
	d="
M1.914443,166.448212 
	C1.895253,143.121796 1.971408,120.194336 1.993281,97.266823 
	C2.023241,65.861961 2.011984,34.457066 2.065991,2.595082 
	C3.610949,2.091207 5.108306,2.003570 6.605667,2.003509 
	C91.081207,2.000065 175.556747,2.003918 260.498383,2.020516 
	C260.964478,15.654152 260.964478,29.274317 260.964478,43.354782 
	C201.335724,43.354782 141.943100,43.354782 82.192612,43.354782 
	C82.192612,55.688850 82.192612,67.567665 82.192612,79.973007 
	C141.695389,79.973007 201.235245,79.973007 260.967224,79.973007 
	C260.967224,94.113213 260.967224,107.732300 260.967224,121.948074 
	C201.517929,121.948074 141.999466,121.948074 82.158005,121.948074 
	C82.158005,134.437851 82.158005,146.335693 82.158005,158.641510 
	C141.614624,158.641510 201.022659,158.641510 260.796082,158.641510 
	C260.796082,172.779526 260.796082,186.522949 260.796082,200.765549 
	C259.628448,200.833084 258.202057,200.987549 256.775635,200.987778 
	C184.634659,200.999329 112.493683,201.019470 40.352722,200.983536 
	C20.207201,200.973495 4.559920,186.967957 1.914443,166.448212 
z"/>
<path fill="#0B3F8B" opacity="1.000000" stroke="none" 
	d="
M308.069092,2.560312 
	C352.572754,2.066713 397.022278,2.004704 441.471802,2.005994 
	C485.255035,2.007265 529.038269,2.072680 573.269653,2.155116 
	C573.717834,15.666142 573.717834,29.132006 573.717834,43.225739 
	C542.846802,43.225739 512.161621,43.225739 480.970154,43.225739 
	C480.970154,96.038040 480.970154,148.225388 480.970154,200.704651 
	C454.218323,200.704651 427.974609,200.704651 401.261963,200.704651 
	C401.261963,148.666870 401.261963,96.466881 401.261963,43.763298 
	C370.097290,43.763298 339.391937,43.763298 308.014923,43.763298 
	C308.014923,29.853060 308.014923,16.436340 308.069092,2.560312 
z"/>
<path fill="#0B3F8B" opacity="1.000000" stroke="none" 
	d="
M952.949341,2.493438 
	C979.013428,2.033184 1004.991760,2.032557 1031.428223,2.085323 
	C1031.924194,43.775021 1031.972046,85.411316 1031.996094,127.047630 
	C1032.010254,151.364136 1031.986206,175.680679 1031.927246,200.457947 
	C1005.737549,200.918686 979.600037,200.918686 952.863586,200.918686 
	C952.863586,134.786850 952.863586,68.869957 952.949341,2.493438 
z"/>
</svg>