<?xml version="1.0" standalone="no"?>
<!DOCTYPE svg PUBLIC "-//W3C//DTD SVG 20010904//EN"
 "http://www.w3.org/TR/2001/REC-SVG-20010904/DTD/svg10.dtd">
<svg version="1.0" xmlns="http://www.w3.org/2000/svg"
 width="1032.000000pt" height="214.000000pt" viewBox="0 0 1032.000000 214.000000"
 preserveAspectRatio="xMidYMid meet">

<g transform="translate(0.000000,214.000000) scale(0.100000,-0.100000)"
fill="#000000" stroke="none">
<path d="M12 1277 l3 -852 33 -67 c40 -82 119 -157 200 -190 l57 -23 1148 -3
1147 -2 0 210 0 210 -895 0 -895 0 0 185 0 185 895 0 895 0 0 210 0 210 -895
0 -895 0 0 185 0 185 895 0 895 0 0 205 0 205 -1295 0 -1295 0 2 -853z"/>
<path d="M3070 1925 l0 -205 465 0 465 0 0 -790 0 -790 400 0 400 0 0 790 0
790 465 0 465 0 0 205 0 205 -1330 0 -1330 0 0 -205z"/>
<path d="M6130 1135 l0 -995 395 0 395 0 0 790 0 790 600 0 600 0 0 -325 0
-325 -467 -1 -468 0 535 -529 535 -530 468 0 468 0 -533 530 -533 529 393 1
393 0 -3 398 -3 397 -32 60 c-38 74 -105 138 -181 173 l-57 27 -1252 3 -1253
2 0 -995z"/>
<path d="M9520 1135 l0 -995 395 0 395 0 0 995 0 995 -395 0 -395 0 0 -995z"/>
</g>
</svg>
