<?xml version="1.0" standalone="no"?>
<!DOCTYPE svg PUBLIC "-//W3C//DTD SVG 20010904//EN"
 "http://www.w3.org/TR/2001/REC-SVG-20010904/DTD/svg10.dtd">
<svg version="1.0" xmlns="http://www.w3.org/2000/svg"
 width="175.000000pt" height="175.000000pt" viewBox="0 0 175.000000 175.000000"
 preserveAspectRatio="xMidYMid meet">

<g transform="translate(0.000000,175.000000) scale(0.100000,-0.100000)"
fill="#000000" stroke="none">
<path d="M1 1357 c1 -353 2 -385 14 -322 62 332 303 595 630 686 38 10 81 19
95 18 14 0 0 -6 -30 -12 l-55 -12 0 -76 0 -76 50 13 c28 8 61 13 75 13 14 0
-6 -7 -44 -16 -368 -78 -622 -434 -567 -793 26 -167 85 -282 206 -406 107
-108 210 -166 360 -199 33 -7 48 -14 34 -14 -14 -1 -47 5 -72 13 -41 12 -63 7
-38 -8 5 -4 5 -22 0 -43 -18 -79 -14 -90 39 -101 26 -5 37 -10 25 -11 -30 -1
-177 46 -238 77 -239 120 -410 342 -466 602 l-18 85 0 -387 -1 -387 875 0 874
0 0 874 0 874 -874 0 -875 0 1 -392z m1042 376 c-7 -2 -21 -2 -30 0 -10 3 -4
5 12 5 17 0 24 -2 18 -5z m44 -9 c-3 -3 -12 -4 -19 -1 -8 3 -5 6 6 6 11 1 17
-2 13 -5z m-277 -19 c0 -8 -8 -16 -17 -16 -17 -1 -17 -2 0 -6 9 -2 17 -8 17
-13 0 -5 -8 -11 -17 -13 -13 -3 -12 -5 5 -6 34 -2 21 -26 -14 -26 -27 0 -29 3
-32 42 -3 43 -5 42 51 52 4 0 7 -6 7 -14z m119 1 c7 -8 11 -27 9 -43 -3 -25
-7 -28 -38 -28 -31 0 -35 3 -38 28 -4 32 13 57 38 57 10 0 23 -6 29 -14z m198
8 c-3 -3 -12 -4 -19 -1 -8 3 -5 6 6 6 11 1 17 -2 13 -5z m-405 -32 c-7 -2 -7
-14 -1 -35 11 -40 12 -37 -6 -37 -9 0 -18 12 -21 30 -4 17 -13 30 -21 30 -26
0 -7 25 23 30 27 5 50 -10 26 -18z m298 18 c0 -5 -8 -10 -17 -10 -13 0 -14 -3
-5 -12 16 -16 15 -28 -3 -28 -8 0 -15 -7 -15 -15 0 -8 -7 -15 -16 -15 -13 0
-15 7 -10 31 3 17 6 38 6 45 0 9 11 14 30 14 17 0 30 -4 30 -10z m94 -16 c24
-9 19 -27 -5 -21 -20 5 -20 5 -4 -13 30 -33 5 -61 -39 -44 -23 9 -20 27 3 21
17 -4 18 -2 9 13 -12 18 -5 50 11 50 5 0 16 -3 25 -6z m156 -24 c33 -17 60
-33 60 -35 0 -5 -119 52 -129 61 -13 12 16 1 69 -26z m-62 -18 c2 -8 -5 -11
-20 -10 -17 2 -24 -3 -26 -19 -2 -16 2 -23 12 -23 9 0 16 -4 16 -10 0 -14 -33
-13 -48 2 -17 17 -15 38 5 60 18 20 54 21 61 0z m42 -22 c0 -18 -30 -70 -40
-70 -14 0 -12 16 5 50 15 29 35 40 35 20z m136 -31 c3 -6 -5 -3 -20 6 -14 10
-26 19 -26 22 0 7 39 -17 46 -28z m-78 9 c19 -19 14 -30 -10 -24 -13 3 -17 3
-10 0 17 -8 15 -27 -3 -20 -17 6 -20 -5 -4 -21 17 -17 -4 -23 -25 -7 -19 13
-19 16 -3 49 17 36 34 44 55 23z m-400 -5 c-15 -2 -42 -2 -60 0 -18 2 -6 4 27
4 33 0 48 -2 33 -4z m85 -10 c-7 -2 -21 -2 -30 0 -10 3 -4 5 12 5 17 0 24 -2
18 -5z m50 -10 c-7 -2 -19 -2 -25 0 -7 3 -2 5 12 5 14 0 19 -2 13 -5z m468
-90 c45 -47 105 -126 125 -164 25 -50 8 -32 -32 34 -21 34 -76 100 -123 147
-47 47 -68 71 -46 53 22 -17 56 -49 76 -70z m-396 72 c39 -17 21 -18 -25 0
-19 7 -28 14 -20 14 8 0 29 -6 45 -14z m246 -12 c0 -16 3 -22 6 -15 4 12 33
18 33 7 0 -3 -10 -19 -22 -35 -28 -39 -52 -40 -45 -3 5 25 4 26 -8 10 -8 -12
-15 -14 -20 -8 -7 12 31 71 46 71 5 0 9 -12 10 -27z m-161 -23 c22 -11 40 -23
40 -25 0 -5 -79 32 -89 41 -11 10 14 2 49 -16z m257 -35 c7 -21 -6 -33 -17
-16 -10 17 -40 7 -40 -14 0 -8 5 -15 10 -15 6 0 10 -7 10 -15 0 -12 -4 -13
-19 -6 -27 15 -32 35 -15 60 18 25 62 28 71 6z m-87 -94 l76 -76 -70 65 c-39
36 -84 76 -101 88 -22 17 -24 20 -6 11 13 -6 59 -46 101 -88z m137 40 c14 -23
5 -35 -14 -19 -11 9 -12 7 -7 -7 6 -15 3 -16 -17 -10 -21 7 -22 6 -10 -9 20
-24 5 -33 -19 -11 l-20 18 27 29 c31 33 44 35 60 9z m68 -91 c3 -5 -6 -26 -21
-45 -29 -39 -27 -42 17 -20 32 17 59 11 40 -8 -15 -15 -14 -27 3 -21 8 3 17 1
20 -5 4 -6 -11 -19 -33 -31 -27 -13 -42 -16 -47 -9 -3 6 -1 16 5 22 16 16 14
27 -4 20 -19 -7 -44 24 -38 47 3 12 -3 20 -19 24 -22 7 -21 8 12 21 43 17 57
18 65 5z m-54 -142 c43 -85 35 -85 -10 -1 -21 40 -42 79 -47 86 -5 7 -1 4 10
-7 10 -12 31 -47 47 -78z m183 -28 c3 -14 -3 -7 -13 15 -11 22 -20 45 -20 50
0 15 26 -37 33 -65z m-44 -8 c0 -15 -9 -27 -26 -34 -23 -11 -29 -10 -45 11
-26 32 -24 37 19 54 41 16 52 10 52 -31z m57 -44 c-3 -8 -6 -5 -6 6 -1 11 2
17 5 13 3 -3 4 -12 1 -19z m-1254 -82 l22 19 -19 -22 c-29 -35 -36 -28 -34 30
l2 52 3 -49 4 -48 22 18z m67 71 c0 -2 -12 -14 -27 -28 l-28 -24 24 28 c23 25
31 32 31 24z m133 -12 c-3 -9 -8 -14 -10 -11 -3 3 -2 9 2 15 9 16 15 13 8 -4z
m257 -105 l0 -120 -37 2 c-37 1 -37 1 -5 5 l32 4 0 115 c0 63 2 114 5 114 3 0
5 -54 5 -120z m100 116 c0 -2 -9 -6 -20 -9 -11 -3 -18 -1 -14 4 5 9 34 13 34
5z m198 -49 l37 -4 -42 -1 c-42 -2 -43 -2 -42 31 2 29 2 29 6 5 4 -23 10 -27
41 -31z m-618 40 c0 -2 -12 -14 -27 -28 l-28 -24 24 28 c23 25 31 32 31 24z
m1127 -19 c-3 -8 -6 -5 -6 6 -1 11 2 17 5 13 3 -3 4 -12 1 -19z m-33 -4 c9
-24 7 -54 -4 -54 -5 0 -10 5 -10 10 0 7 -13 8 -35 4 -23 -4 -35 -2 -35 5 0 6
14 14 30 18 17 3 30 12 30 19 0 19 16 18 24 -2z m-571 -21 c-18 -2 -48 -2 -65
0 -18 2 -4 4 32 4 36 0 50 -2 33 -4z m235 0 l-38 -4 0 -90 0 -89 -37 2 c-37 1
-37 1 -5 5 l32 4 0 90 0 89 43 -2 42 -1 -37 -4z m219 -15 c-3 -8 -6 -5 -6 6
-1 11 2 17 5 13 3 -3 4 -12 1 -19z m160 -10 c-3 -7 -5 -2 -5 12 0 14 2 19 5
13 2 -7 2 -19 0 -25z m-1106 -5 c-12 -20 -14 -14 -5 12 4 9 9 14 11 11 3 -2 0
-13 -6 -23z m-101 -8 l-24 -25 34 -38 35 -37 -40 37 -39 37 24 26 c13 14 26
25 28 25 3 0 -5 -11 -18 -25z m180 15 c0 -5 -5 -10 -11 -10 -5 0 -7 5 -4 10 3
6 8 10 11 10 2 0 4 -4 4 -10z m80 -35 c0 -5 -5 -3 -10 5 -5 8 -10 20 -10 25 0
6 5 3 10 -5 5 -8 10 -19 10 -25z m185 -5 l20 -25 -22 19 c-13 11 -23 24 -23
29 0 6 1 8 3 6 1 -2 11 -15 22 -29z m173 14 c12 -8 22 -20 22 -26 0 -7 -6 -3
-14 7 -9 13 -32 21 -67 26 l-54 6 45 2 c27 0 55 -5 68 -15z m-467 -21 c-12
-20 -14 -14 -5 12 4 9 9 14 11 11 3 -2 0 -13 -6 -23z m906 -5 c-3 -7 -5 -2 -5
12 0 14 2 19 5 13 2 -7 2 -19 0 -25z m123 -3 c0 -28 -19 -35 -21 -7 -1 16 -2
16 -6 0 -5 -21 -19 -23 -26 -5 -3 7 -6 5 -6 -5 -1 -27 -31 -22 -31 5 0 32 7
37 52 37 34 0 38 -3 38 -25z m-1234 -37 l29 -33 -32 29 -33 30 0 -47 0 -47
-37 2 c-37 1 -37 1 -5 5 31 4 32 6 32 49 0 24 4 44 8 44 5 0 21 -15 38 -32z
m631 7 c1 -15 0 -15 -3 -3 -4 12 -19 18 -57 21 l-52 4 55 -1 c47 -1 55 -4 57
-21z m-446 -12 c-12 -20 -14 -14 -5 12 4 9 9 14 11 11 3 -2 0 -13 -6 -23z
m159 -8 c0 -5 -5 -3 -10 5 -5 8 -10 20 -10 25 0 6 5 3 10 -5 5 -8 10 -19 10
-25z m777 -87 c-2 -24 -4 -7 -4 37 0 44 2 63 4 43 2 -21 2 -57 0 -80z m-847
92 c0 -5 -19 -9 -42 -9 l-43 2 40 7 c22 4 41 8 43 9 1 0 2 -3 2 -9z m-169 -23
c-10 -9 -11 -8 -5 6 3 10 9 15 12 12 3 -3 0 -11 -7 -18z m476 16 c-20 -2 -52
-2 -70 0 -17 2 0 4 38 4 39 0 53 -2 32 -4z m653 -8 c13 -16 10 -49 -5 -47 -5
1 -10 8 -10 15 0 6 -10 13 -22 15 -18 3 -23 -2 -23 -18 0 -12 -4 -18 -10 -15
-14 8 -13 38 2 53 16 16 53 15 68 -3z m-1066 -29 c-9 -24 -116 -23 -135 2 -11
14 -11 15 1 5 21 -19 119 -17 127 2 3 9 7 14 9 12 3 -2 2 -12 -2 -21z m196 -8
c0 -5 -36 -8 -80 -8 -44 0 -80 3 -80 8 0 4 34 6 75 4 69 -3 74 -2 69 15 -5 15
-4 15 5 3 6 -8 11 -18 11 -22z m315 12 c-3 -5 -12 -10 -18 -10 -7 0 -6 4 3 10
19 12 23 12 15 0z m-72 -17 c-24 -2 -62 -2 -85 0 -24 2 -5 4 42 4 47 0 66 -2
43 -4z m606 -29 c34 -7 42 -24 11 -24 -11 0 -20 -4 -20 -10 0 -5 7 -10 15 -10
8 0 15 -7 15 -15 0 -16 -12 -18 -59 -9 -34 7 -42 24 -11 24 11 0 20 5 20 10 0
6 -7 10 -15 10 -8 0 -15 7 -15 15 0 16 12 18 59 9z m-771 -21 l-208 -3 0 -40
0 -40 203 -2 202 -3 -190 -3 c-243 -4 -695 27 -695 48 0 8 157 28 315 40 55 4
208 7 340 6 l240 -1 -207 -2z m330 -10 c-16 -2 -40 -2 -55 0 -16 2 -3 4 27 4
30 0 43 -2 28 -4z m115 -10 c-13 -2 -33 -2 -45 0 -13 2 -3 4 22 4 25 0 35 -2
23 -4z m85 -10 c-10 -2 -26 -2 -35 0 -10 3 -2 5 17 5 19 0 27 -2 18 -5z m87
-13 c-3 -5 -17 -10 -31 -10 -13 0 -24 5 -24 10 0 6 14 10 31 10 17 0 28 -4 24
-10z m52 -37 c-3 -10 -5 -4 -5 12 0 17 2 24 5 18 2 -7 2 -21 0 -30z m-139 20
c-10 -2 -28 -2 -40 0 -13 2 -5 4 17 4 22 1 32 -1 23 -4z m-95 -10 c-13 -2 -33
-2 -45 0 -13 2 -3 4 22 4 25 0 35 -2 23 -4z m351 -10 c5 -3 -2 -14 -15 -24
-20 -15 -21 -19 -6 -19 9 0 17 -4 17 -10 0 -12 -15 -13 -59 -4 -31 7 -44 34
-16 34 8 0 15 5 15 10 0 6 -4 10 -10 10 -5 0 -10 5 -10 11 0 11 63 5 84 -8z
m-466 0 c-16 -2 -40 -2 -55 0 -16 2 -3 4 27 4 30 0 43 -2 28 -4z m499 -45 c-3
-7 -5 -2 -5 12 0 14 2 19 5 13 2 -7 2 -19 0 -25z m-160 0 c-3 -8 -6 -5 -6 6
-1 11 2 17 5 13 3 -3 4 -12 1 -19z m148 -58 c-9 -41 -17 -33 -9 9 4 17 9 30
11 27 3 -2 2 -19 -2 -36z m-64 20 c36 -20 17 -70 -26 -70 -25 0 -45 18 -45 40
0 35 34 49 71 30z m-125 -77 c-8 -15 -15 -25 -16 -21 0 12 23 58 27 54 3 -2
-2 -17 -11 -33z m78 -8 c20 -8 36 -20 36 -25 0 -13 -16 -13 -42 1 -15 8 -22 8
-28 -1 -13 -21 -28 -7 -19 18 10 26 7 26 53 7z m77 -32 c-12 -20 -14 -14 -5
12 4 9 9 14 11 11 3 -2 0 -13 -6 -23z m-923 -40 l-1 -48 -4 42 c-3 29 -9 43
-21 46 -12 3 -11 5 6 6 20 1 22 -3 20 -46z m48 34 c-24 -18 -17 -50 14 -58 14
-4 18 -7 9 -8 -9 -1 -24 -10 -34 -21 -13 -15 -29 -20 -59 -18 l-41 1 38 4 c20
2 37 9 37 14 0 6 4 8 9 4 15 -8 25 15 12 28 -21 21 -6 67 23 67 5 0 2 -6 -8
-13z m49 3 c3 -6 -1 -7 -9 -4 -18 7 -21 14 -7 14 6 0 13 -4 16 -10z m65 3
c-39 -5 -50 -16 -50 -53 0 -14 -5 -32 -11 -40 -8 -12 -9 -11 -6 5 3 11 8 37
12 58 6 36 7 37 48 35 40 -1 41 -1 7 -5z m98 -40 l-1 -48 -4 42 c-3 29 -9 43
-21 46 -12 3 -11 5 6 6 20 1 22 -3 20 -46z m470 6 c-13 -23 -38 -58 -56 -78
-33 -36 -33 -36 3 13 20 27 43 62 51 77 8 16 17 29 20 29 3 0 -5 -19 -18 -41z
m-759 -26 l-2 -28 -4 28 c-2 15 -9 27 -14 27 -5 0 -9 7 -9 16 0 14 2 14 15 0
8 -8 14 -27 14 -43z m260 0 l-2 -28 -4 28 c-2 15 -9 27 -14 27 -5 0 -9 7 -9
16 0 14 2 14 15 0 8 -8 14 -27 14 -43z m-154 17 c-5 -8 -11 -8 -17 -2 -6 6 -7
16 -3 22 5 8 11 8 17 2 6 -6 7 -16 3 -22z m755 5 c20 -24 4 -65 -24 -65 -26 0
-56 23 -56 44 0 34 57 49 80 21z m70 -13 c0 -5 -7 -17 -15 -28 -14 -18 -14
-17 -4 9 12 27 19 34 19 19z m-763 -24 c-3 -8 -6 -5 -6 6 -1 11 2 17 5 13 3
-3 4 -12 1 -19z m30 -10 c-3 -7 -5 -2 -5 12 0 14 2 19 5 13 2 -7 2 -19 0 -25z
m113 -13 c0 -11 -11 -15 -42 -13 l-43 1 38 4 c20 2 37 8 37 14 0 5 2 9 5 9 3
0 5 -7 5 -15z m-207 -12 c-7 -2 -19 -2 -25 0 -7 3 -2 5 12 5 14 0 19 -2 13 -5z
m84 1 c-3 -3 -12 -4 -19 -1 -8 3 -5 6 6 6 11 1 17 -2 13 -5z m625 -19 c8 -19
8 -28 -2 -40 -19 -23 -31 -18 -24 9 7 27 -12 44 -29 27 -9 -9 -8 -11 6 -6 20
8 23 -8 3 -24 -18 -15 -40 11 -31 39 10 31 62 28 77 -5z m82 13 c-67 -118
-209 -258 -321 -317 -45 -23 -22 -3 38 34 83 51 178 142 235 225 26 39 49 70
51 70 2 0 1 -6 -3 -12z m-224 -41 c0 -2 -12 -14 -27 -28 l-28 -24 24 28 c23
25 31 32 31 24z m58 -26 c9 -5 25 -12 35 -15 10 -3 15 -11 12 -17 -4 -6 -14
-8 -22 -5 -11 4 -13 2 -10 -9 12 -31 -12 -23 -32 11 -12 19 -21 37 -21 40 0 7
19 5 38 -5z m-151 -55 c-37 -33 -175 -112 -182 -104 -2 2 29 20 68 40 40 21
88 51 107 67 19 17 37 30 40 30 3 0 -12 -15 -33 -33z m71 -43 c-4 -22 -22 -20
-26 1 -2 10 3 16 13 16 10 0 15 -7 13 -17z m-92 -71 l24 -42 -36 -17 c-30 -15
-36 -15 -44 -3 -5 8 -6 18 -4 22 3 4 -1 5 -9 2 -19 -7 -30 35 -15 54 6 7 19
11 29 9 12 -3 16 0 12 10 -13 33 20 6 43 -35z m-221 -12 c-11 -5 -29 -8 -40
-8 -16 0 -15 2 5 8 34 11 60 11 35 0z m97 -24 c4 -6 8 -21 8 -33 0 -13 0 -26
1 -30 0 -5 -13 -14 -30 -20 -29 -12 -31 -11 -46 18 -14 25 -14 35 -3 59 10 24
17 28 38 23 14 -3 28 -11 32 -17z m-169 7 c-7 -2 -19 -2 -25 0 -7 3 -2 5 12 5
14 0 19 -2 13 -5z m-85 -10 c-21 -2 -57 -2 -80 0 -24 2 -7 4 37 4 44 0 63 -2
43 -4z m127 -40 c4 -21 7 -43 8 -48 1 -6 -2 -12 -8 -13 -11 -4 -23 30 -24 71
-1 40 17 33 24 -10z m-260 0 c-3 -42 -16 -83 -26 -83 -5 0 -9 7 -9 15 0 10
-10 15 -30 15 -35 0 -38 15 -8 41 17 16 18 19 5 19 -10 0 -17 5 -17 10 0 6 20
10 44 10 42 0 44 -1 41 -27z m125 11 c0 -7 6 -15 13 -18 10 -5 10 -7 0 -12 -7
-3 -13 -21 -13 -40 0 -19 -4 -34 -10 -34 -5 0 -10 7 -10 15 0 10 -10 15 -29
15 -26 0 -29 4 -33 38 -3 20 0 40 5 43 17 12 77 6 77 -7z m90 -54 c-6 -11 -17
-20 -25 -20 -19 0 -19 14 0 30 8 7 15 16 15 21 0 5 -7 9 -15 9 -24 0 -17 18 8
22 26 4 35 -28 17 -62z m220 -4 c-14 -7 -36 -16 -50 -20 -14 -3 -7 3 15 13 45
22 73 27 35 7z m-83 -32 c-3 -3 -12 -4 -19 -1 -8 3 -5 6 6 6 11 1 17 -2 13 -5z
m-40 -10 c-3 -3 -12 -4 -19 -1 -8 3 -5 6 6 6 11 1 17 -2 13 -5z m-44 -11 c-7
-2 -19 -2 -25 0 -7 3 -2 5 12 5 14 0 19 -2 13 -5z"/>
<path d="M890 1670 c0 -11 4 -20 9 -20 11 0 22 26 14 34 -12 12 -23 5 -23 -14z"/>
<path d="M1618 1172 c-10 -2 -18 -8 -18 -13 0 -13 27 -11 35 2 9 13 4 16 -17
11z"/>
<path d="M1614 639 c-6 -10 11 -28 28 -29 17 0 17 20 -1 30 -14 7 -22 7 -27
-1z"/>
<path d="M1546 491 c-8 -12 21 -34 34 -26 8 5 8 11 -1 21 -13 16 -25 18 -33 5z"/>
<path d="M1270 160 c-9 -6 -10 -10 -3 -10 6 0 15 5 18 10 8 12 4 12 -15 0z"/>
</g>
</svg>
