<?xml version="1.0" standalone="no"?>
<!DOCTYPE svg PUBLIC "-//W3C//DTD SVG 20010904//EN"
 "http://www.w3.org/TR/2001/REC-SVG-20010904/DTD/svg10.dtd">
<svg version="1.0" xmlns="http://www.w3.org/2000/svg"
 width="176.000000pt" height="176.000000pt" viewBox="0 0 176.000000 176.000000"
 preserveAspectRatio="xMidYMid meet">
<metadata>
Created by potrace 1.16, written by Peter Selinger 2001-2019
</metadata>
<g transform="translate(0.000000,176.000000) scale(0.100000,-0.100000)"
fill="#000000" stroke="none">
<path d="M838 1753 c23 -2 61 -2 85 0 23 2 4 4 -43 4 -47 0 -66 -2 -42 -4z"/>
<path d="M743 1743 c9 -2 23 -2 30 0 6 3 -1 5 -18 5 -16 0 -22 -2 -12 -5z"/>
<path d="M993 1743 c9 -2 23 -2 30 0 6 3 -1 5 -18 5 -16 0 -22 -2 -12 -5z"/>
<path d="M688 1733 c7 -3 16 -2 19 1 4 3 -2 6 -13 5 -11 0 -14 -3 -6 -6z"/>
<path d="M1058 1733 c7 -3 16 -2 19 1 4 3 -2 6 -13 5 -11 0 -14 -3 -6 -6z"/>
<path d="M648 1723 c7 -3 16 -2 19 1 4 3 -2 6 -13 5 -11 0 -14 -3 -6 -6z"/>
<path d="M1098 1723 c7 -3 16 -2 19 1 4 3 -2 6 -13 5 -11 0 -14 -3 -6 -6z"/>
<path d="M767 1713 c-9 -9 -9 -71 1 -76 4 -3 16 -1 27 4 17 6 17 8 3 8 -19 1
-26 21 -8 21 6 0 10 5 10 11 0 5 -4 8 -9 4 -5 -3 -12 -1 -16 5 -3 5 1 10 9 10
9 0 16 5 16 10 0 11 -23 14 -33 3z"/>
<path d="M874 1706 c-11 -28 1 -61 22 -64 28 -4 48 22 40 53 -5 18 -13 25 -32
25 -13 0 -27 -6 -30 -14z m46 -20 c0 -14 -4 -27 -9 -30 -13 -9 -32 19 -25 38
10 25 34 19 34 -8z"/>
<path d="M970 1703 c0 -10 -3 -28 -6 -40 -4 -14 -2 -23 5 -23 6 0 11 7 11 16
0 10 6 14 15 10 8 -3 15 -1 15 4 0 6 -7 10 -15 10 -24 0 -17 20 8 21 21 0 21
1 2 9 -30 13 -35 12 -35 -7z"/>
<path d="M693 1703 c-13 -2 -23 -9 -23 -14 0 -6 5 -7 10 -4 6 3 13 -2 16 -12
3 -10 10 -27 15 -38 7 -15 8 -12 4 14 -3 19 0 40 6 47 6 8 8 13 3 13 -5 -1
-19 -4 -31 -6z"/>
<path d="M540 1690 c-8 -5 -10 -10 -5 -10 6 0 17 5 25 10 8 5 11 10 5 10 -5 0
-17 -5 -25 -10z"/>
<path d="M1200 1690 c8 -5 20 -10 25 -10 6 0 3 5 -5 10 -8 5 -19 10 -25 10 -5
0 -3 -5 5 -10z"/>
<path d="M636 1665 c10 -45 10 -47 -2 -52 -6 -2 -17 11 -25 28 -15 38 -24 24
-9 -15 7 -20 16 -27 33 -24 18 2 22 9 20 37 0 18 -6 38 -13 45 -9 8 -10 4 -4
-19z"/>
<path d="M1080 1671 c0 -11 5 -23 10 -26 20 -12 10 -26 -10 -15 -12 7 -20 7
-20 1 0 -12 37 -24 50 -16 15 9 12 35 -5 41 -23 9 -18 26 6 19 15 -5 19 -4 15
4 -12 19 -46 13 -46 -8z"/>
<path d="M533 1648 c-13 -6 -23 -15 -23 -20 0 -5 5 -6 11 -3 5 4 15 -7 22 -24
6 -17 15 -31 20 -31 5 0 6 8 1 18 -4 9 -7 29 -7 45 0 15 0 27 -1 26 -1 0 -11
-5 -23 -11z"/>
<path d="M1144 1633 c-8 -28 19 -59 40 -45 7 4 4 8 -7 10 -27 6 -18 47 10 46
12 0 20 3 17 8 -3 4 -16 8 -29 8 -18 0 -26 -7 -31 -27z"/>
<path d="M391 1609 c-118 -79 -228 -204 -295 -336 -40 -79 -31 -78 12 2 20 39
51 90 68 115 42 60 180 191 238 225 41 24 54 35 42 35 -2 0 -31 -19 -65 -41z"/>
<path d="M1300 1646 c0 -2 21 -16 46 -31 58 -34 196 -165 238 -225 17 -25 48
-76 68 -115 43 -80 52 -81 12 -2 -59 116 -133 208 -232 288 -67 54 -132 96
-132 85z"/>
<path d="M1226 1611 c-9 -16 -16 -36 -16 -43 1 -7 10 4 21 25 11 22 18 41 15
44 -2 3 -12 -9 -20 -26z"/>
<path d="M470 1615 c0 -14 31 -65 41 -65 11 0 -15 55 -31 65 -5 3 -10 3 -10 0z"/>
<path d="M1261 1585 l-20 -35 20 -11 c12 -6 23 -8 26 -5 3 3 -2 8 -11 12 -9 3
-14 10 -11 15 3 4 13 5 23 2 14 -6 15 -4 5 9 -15 17 -7 29 13 21 21 -8 17 5
-5 17 -16 8 -22 4 -40 -25z"/>
<path d="M853 1603 c15 -2 39 -2 55 0 15 2 2 4 -28 4 -30 0 -43 -2 -27 -4z"/>
<path d="M419 1579 c-13 -11 -19 -18 -12 -14 7 3 20 -6 29 -20 9 -14 20 -25
25 -25 5 0 3 11 -6 24 -8 13 -13 31 -9 40 8 21 1 20 -27 -5z"/>
<path d="M763 1593 c9 -2 23 -2 30 0 6 3 -1 5 -18 5 -16 0 -22 -2 -12 -5z"/>
<path d="M973 1593 c9 -2 23 -2 30 0 6 3 -1 5 -18 5 -16 0 -22 -2 -12 -5z"/>
<path d="M708 1583 c6 -2 18 -2 25 0 6 3 1 5 -13 5 -14 0 -19 -2 -12 -5z"/>
<path d="M1028 1583 c6 -2 18 -2 25 0 6 3 1 5 -13 5 -14 0 -19 -2 -12 -5z"/>
<path d="M1322 1540 c-24 -32 -20 -40 8 -15 15 14 16 12 12 -15 -5 -36 10 -39
32 -5 20 30 21 56 1 29 -14 -18 -14 -18 -15 9 0 35 -11 34 -38 -3z"/>
<path d="M600 1550 c-8 -5 -10 -10 -5 -10 6 0 17 5 25 10 8 5 11 10 5 10 -5 0
-17 -5 -25 -10z"/>
<path d="M1140 1550 c8 -5 20 -10 25 -10 6 0 3 5 -5 10 -8 5 -19 10 -25 10 -5
0 -3 -5 5 -10z"/>
<path d="M357 1539 c-9 -6 -17 -17 -17 -24 0 -15 10 -19 43 -16 9 1 17 -1 17
-5 0 -4 -8 -13 -17 -20 -10 -7 -13 -14 -6 -14 6 0 19 7 28 16 20 20 3 44 -25
37 -22 -6 -28 12 -7 20 6 2 10 7 7 10 -3 3 -13 1 -23 -4z"/>
<path d="M472 1480 c-61 -41 -172 -152 -192 -192 -7 -13 1 -7 17 12 60 75 117
130 171 166 65 44 78 54 70 54 -3 0 -33 -18 -66 -40z"/>
<path d="M1225 1514 c6 -6 36 -27 68 -49 79 -52 169 -154 215 -242 20 -39 38
-70 40 -68 2 2 -13 36 -34 77 -44 84 -181 228 -254 267 -25 13 -40 20 -35 15z"/>
<path d="M1412 1503 c-22 -9 -35 -43 -21 -59 17 -21 31 -17 17 6 -10 15 -10
22 0 32 10 10 17 10 32 0 22 -13 27 -3 8 16 -13 13 -16 13 -36 5z"/>
<path d="M315 1470 c18 -20 18 -20 -16 -14 l-34 7 29 -32 c30 -31 50 -35 25
-5 -13 16 -11 17 14 10 33 -8 35 3 4 32 -29 28 -46 29 -22 2z"/>
<path d="M1457 1432 c-27 -29 -27 -29 -7 -47 11 -10 20 -13 20 -7 0 6 -5 14
-10 17 -6 4 -8 11 -4 16 3 6 12 5 21 -3 14 -11 15 -10 8 12 -7 22 -6 23 9 11
23 -19 30 -8 8 12 -17 16 -20 15 -45 -11z"/>
<path d="M240 1422 c0 -9 25 -33 48 -46 25 -14 11 11 -18 32 -16 13 -30 19
-30 14z"/>
<path d="M170 1331 c-8 -16 -4 -22 25 -40 34 -20 35 -20 45 -1 15 28 -4 60
-35 60 -14 0 -29 -8 -35 -19z m48 0 c8 -5 12 -16 10 -25 -3 -15 -5 -15 -26 -1
-31 23 -16 47 16 26z"/>
<path d="M1518 1343 c-20 -5 -25 -24 -5 -20 7 1 11 -7 10 -20 -2 -13 0 -23 3
-23 7 0 53 53 54 63 0 7 -33 8 -62 0z m42 -7 c0 -3 -4 -8 -10 -11 -5 -3 -10
-1 -10 4 0 6 5 11 10 11 6 0 10 -2 10 -4z"/>
<path d="M1573 1282 c-18 -9 -33 -19 -33 -24 0 -11 7 -10 31 3 20 10 20 10 3
-16 -22 -33 -13 -40 25 -20 35 18 41 30 10 20 -19 -6 -20 -5 -9 15 17 32 9 39
-27 22z"/>
<path d="M137 1273 c-15 -14 -5 -33 24 -49 26 -13 33 -14 40 -2 14 21 10 32
-6 18 -13 -10 -15 -9 -16 11 0 13 -3 18 -6 12 -2 -7 -11 -13 -19 -13 -8 0 -11
6 -8 15 6 16 2 20 -9 8z"/>
<path d="M234 1209 c-14 -28 -24 -53 -22 -55 2 -2 16 21 31 51 15 30 25 55 22
55 -3 0 -16 -23 -31 -51z"/>
<path d="M107 1203 c-29 -28 27 -79 58 -53 8 7 15 20 15 28 0 13 -3 12 -14 -4
-12 -15 -18 -17 -33 -8 -10 7 -17 19 -15 28 3 17 -1 20 -11 9z"/>
<path d="M1608 1197 c-45 -18 -31 -61 18 -55 25 2 29 7 29 32 0 34 -9 38 -47
23z m42 -15 c0 -12 -23 -32 -37 -32 -17 0 -17 27 0 33 19 8 37 8 37 -1z"/>
<path d="M51 1169 c-6 -18 -11 -37 -10 -43 0 -6 7 7 15 28 8 22 12 41 10 43
-2 2 -9 -10 -15 -28z"/>
<path d="M1690 1195 c0 -5 5 -17 10 -25 5 -8 10 -10 10 -5 0 6 -5 17 -10 25
-5 8 -10 11 -10 5z"/>
<path d="M1711 1134 c0 -11 3 -14 6 -6 3 7 2 16 -1 19 -3 4 -6 -2 -5 -13z"/>
<path d="M196 1125 c-3 -9 -6 -22 -5 -28 0 -7 5 -1 10 12 5 13 8 26 5 28 -2 2
-6 -3 -10 -12z"/>
<path d="M1551 1135 c1 -19 18 -51 18 -35 0 8 -4 22 -9 30 -5 8 -9 11 -9 5z"/>
<path d="M80 1125 c0 -3 10 -10 23 -14 22 -9 22 -9 -5 -16 -16 -4 -28 -11 -28
-16 0 -5 1 -9 3 -9 1 0 17 -4 35 -9 20 -6 32 -6 32 0 0 5 -7 9 -15 9 -8 0 -15
5 -15 10 0 6 9 10 19 10 29 0 35 18 9 25 -53 15 -58 16 -58 10z"/>
<path d="M31 1094 c0 -11 3 -14 6 -6 3 7 2 16 -1 19 -3 4 -6 -2 -5 -13z"/>
<path d="M370 1000 l0 -110 35 0 35 0 0 48 0 47 46 -47 c43 -45 48 -48 98 -48
l53 0 28 73 c15 39 31 76 35 80 6 7 50 -84 50 -104 0 -5 -16 -9 -36 -9 -29 0
-35 -3 -30 -16 3 -9 6 -18 6 -20 0 -2 32 -4 70 -4 39 0 70 3 69 8 0 4 -20 52
-43 107 l-42 100 -40 3 -39 3 -39 -96 c-21 -52 -41 -95 -45 -95 -4 0 -25 18
-46 40 l-39 40 47 48 c26 26 47 51 47 55 0 4 -13 7 -29 7 -23 0 -41 -12 -75
-47 l-46 -48 0 48 0 47 -35 0 -35 0 0 -110z"/>
<path d="M850 1000 l0 -110 30 0 30 0 0 110 0 110 -30 0 -30 0 0 -110z"/>
<path d="M977 1092 c-22 -24 -22 -75 1 -95 10 -9 40 -17 72 -19 47 -3 55 -6
55 -23 0 -18 -8 -20 -67 -23 -60 -3 -68 -5 -68 -22 0 -18 7 -20 83 -20 95 0
117 13 117 67 0 41 -22 57 -89 63 -48 4 -56 8 -56 25 0 18 8 20 63 23 54 3 62
6 62 22 0 18 -7 20 -78 20 -64 0 -82 -4 -95 -18z"/>
<path d="M1180 1091 c0 -16 8 -20 38 -23 l37 -3 3 -87 3 -88 29 0 30 0 0 90 0
90 35 0 c28 0 35 4 35 20 0 19 -7 20 -105 20 -97 0 -105 -1 -105 -19z"/>
<path d="M1721 1094 c0 -11 3 -14 6 -6 3 7 2 16 -1 19 -3 4 -6 -2 -5 -13z"/>
<path d="M1672 1074 c-7 -8 -22 -14 -32 -14 -11 0 -20 -4 -20 -10 0 -5 13 -7
31 -3 21 4 34 1 40 -8 7 -11 9 -9 9 6 0 32 -13 45 -28 29z"/>
<path d="M22 1050 c0 -14 2 -19 5 -12 2 6 2 18 0 25 -3 6 -5 1 -5 -13z"/>
<path d="M1731 1054 c0 -11 3 -14 6 -6 3 7 2 16 -1 19 -3 4 -6 -2 -5 -13z"/>
<path d="M172 1030 c0 -14 2 -19 5 -12 2 6 2 18 0 25 -3 6 -5 1 -5 -13z"/>
<path d="M1582 1030 c0 -14 2 -19 5 -12 2 6 2 18 0 25 -3 6 -5 1 -5 -13z"/>
<path d="M60 1020 c-17 -10 -16 -12 27 -34 40 -20 49 -20 32 0 -11 14 -10 18
6 30 17 13 16 14 -16 14 -19 0 -41 -4 -49 -10z"/>
<path d="M12 990 c0 -19 2 -27 5 -17 2 9 2 25 0 35 -3 9 -5 1 -5 -18z"/>
<path d="M1742 990 c0 -19 2 -27 5 -17 2 9 2 25 0 35 -3 9 -5 1 -5 -18z"/>
<path d="M1653 1003 c-16 -3 -23 -11 -23 -29 0 -13 5 -24 11 -24 5 0 7 5 4 10
-3 6 -3 15 1 22 5 7 11 5 21 -7 12 -17 13 -17 13 -2 0 22 17 22 23 0 3 -11 5
-7 6 10 1 28 -5 30 -56 20z"/>
<path d="M163 960 c0 -25 2 -35 4 -22 2 12 2 32 0 45 -2 12 -4 2 -4 -23z"/>
<path d="M1593 965 c0 -22 2 -30 4 -17 2 12 2 30 0 40 -3 9 -5 -1 -4 -23z"/>
<path d="M73 946 c29 -13 27 -26 -4 -26 -10 0 -21 -5 -24 -10 -8 -12 38 -4 70
13 19 10 18 11 -10 23 -16 7 -37 13 -45 13 -8 0 -3 -6 13 -13z"/>
<path d="M1649 921 c-14 -11 -18 -22 -13 -36 8 -19 8 -18 14 5 8 33 38 38 48
9 5 -13 11 -18 15 -12 21 34 -31 61 -64 34z"/>
<path d="M1753 885 c0 -27 2 -38 4 -22 2 15 2 37 0 50 -2 12 -4 0 -4 -28z"/>
<path d="M3 880 c0 -25 2 -35 4 -22 2 12 2 32 0 45 -2 12 -4 2 -4 -23z"/>
<path d="M52 863 c-15 -28 -3 -43 33 -43 40 0 46 7 34 38 -10 27 -54 30 -67 5z
m56 -10 c2 -8 -6 -13 -22 -13 -25 0 -33 10 -19 24 10 10 36 3 41 -11z"/>
<path d="M1648 839 c26 -10 25 -36 -2 -31 -9 2 -16 -1 -16 -7 0 -5 18 -11 40
-13 22 -2 40 0 40 4 0 5 -7 8 -15 8 -8 0 -15 7 -15 15 0 8 7 15 15 15 8 0 15
5 15 10 0 6 -19 10 -42 9 -37 0 -40 -2 -20 -10z"/>
<path d="M163 805 c0 -22 2 -30 4 -17 2 12 2 30 0 40 -3 9 -5 -1 -4 -23z"/>
<path d="M1593 805 c0 -22 2 -30 4 -17 2 12 2 30 0 40 -3 9 -5 -1 -4 -23z"/>
<path d="M790 790 l0 -43 253 7 c244 6 468 26 437 39 -33 13 -248 29 -462 34
l-228 6 0 -43z"/>
<path d="M12 780 c0 -19 2 -27 5 -17 2 9 2 25 0 35 -3 9 -5 1 -5 -18z"/>
<path d="M1743 775 c0 -22 2 -30 4 -17 2 12 2 30 0 40 -3 9 -5 -1 -4 -23z"/>
<path d="M78 784 c-36 -19 -35 -30 3 -38 53 -10 66 -8 44 8 -16 12 -17 16 -6
30 18 21 -3 21 -41 0z"/>
<path d="M172 740 c0 -14 2 -19 5 -12 2 6 2 18 0 25 -3 6 -5 1 -5 -13z"/>
<path d="M1638 753 c27 -5 29 -19 2 -26 -26 -7 -26 -27 -1 -27 11 0 26 -3 35
-6 9 -3 16 -1 16 5 0 6 -10 11 -22 12 -22 0 -22 1 2 12 14 6 27 13 30 15 10 7
-27 22 -55 20 -23 0 -25 -2 -7 -5z"/>
<path d="M1581 734 c0 -11 3 -14 6 -6 3 7 2 16 -1 19 -3 4 -6 -2 -5 -13z"/>
<path d="M22 710 c0 -14 2 -19 5 -12 2 6 2 18 0 25 -3 6 -5 1 -5 -13z"/>
<path d="M1732 710 c0 -14 2 -19 5 -12 2 6 2 18 0 25 -3 6 -5 1 -5 -13z"/>
<path d="M181 694 c0 -11 3 -14 6 -6 3 7 2 16 -1 19 -3 4 -6 -2 -5 -13z"/>
<path d="M1571 694 c0 -11 3 -14 6 -6 3 7 2 16 -1 19 -3 4 -6 -2 -5 -13z"/>
<path d="M113 676 c-47 -31 -42 -46 15 -46 42 1 45 2 29 15 -11 7 -26 11 -35
8 -10 -4 -6 3 8 14 34 29 22 35 -17 9z"/>
<path d="M31 664 c0 -11 3 -14 6 -6 3 7 2 16 -1 19 -3 4 -6 -2 -5 -13z"/>
<path d="M1721 664 c0 -11 3 -14 6 -6 3 7 2 16 -1 19 -3 4 -6 -2 -5 -13z"/>
<path d="M1600 647 c0 -46 50 -65 70 -26 15 27 -3 49 -41 49 -24 0 -29 -4 -29
-23z m58 -10 c2 -11 -3 -17 -17 -17 -23 0 -35 15 -26 31 10 15 39 6 43 -14z"/>
<path d="M200 635 c0 -5 5 -17 10 -25 5 -8 10 -10 10 -5 0 6 -5 17 -10 25 -5
8 -10 11 -10 5z"/>
<path d="M1546 625 c-9 -26 -7 -32 5 -12 6 10 9 21 6 23 -2 3 -7 -2 -11 -11z"/>
<path d="M166 596 c3 -8 1 -17 -5 -21 -6 -3 -11 -1 -11 4 0 6 -4 11 -10 11 -5
0 -7 -7 -4 -15 4 -8 2 -15 -4 -15 -5 0 -13 7 -16 16 -4 9 -9 14 -12 11 -3 -3
-1 -14 5 -26 10 -18 14 -19 44 -6 17 7 32 18 31 24 -2 26 -5 31 -14 31 -5 0
-7 -6 -4 -14z"/>
<path d="M220 584 c0 -6 7 -19 16 -30 14 -18 14 -18 3 6 -14 31 -19 36 -19 24z"/>
<path d="M1507 539 c-15 -27 -25 -49 -22 -49 6 0 58 90 54 95 -2 2 -16 -19
-32 -46z"/>
<path d="M1566 574 c-9 -24 -7 -28 9 -14 12 10 21 10 41 1 30 -13 34 -14 34
-2 0 8 -52 31 -70 31 -5 0 -11 -7 -14 -16z"/>
<path d="M60 575 c0 -5 5 -17 10 -25 5 -8 10 -10 10 -5 0 6 -5 17 -10 25 -5 8
-10 11 -10 5z"/>
<path d="M1686 565 c-9 -26 -7 -32 5 -12 6 10 9 21 6 23 -2 3 -7 -2 -11 -11z"/>
<path d="M186 534 c-3 -8 -9 -13 -14 -10 -4 2 -14 1 -22 -4 -11 -7 -12 -14 -2
-34 l11 -26 36 21 c39 23 46 34 15 24 -22 -7 -26 5 -9 22 7 7 7 13 1 17 -5 3
-13 -1 -16 -10z m-6 -33 c0 -17 -18 -21 -24 -6 -3 9 0 15 9 15 8 0 15 -4 15
-9z"/>
<path d="M725 540 c-3 -5 -1 -10 4 -10 6 0 11 -13 11 -30 0 -16 -4 -30 -10
-30 -5 0 -10 -4 -10 -10 0 -5 14 -10 30 -10 17 0 30 5 30 10 0 6 -4 10 -10 10
-5 0 -10 18 -10 40 0 28 -4 40 -14 40 -8 0 -18 -4 -21 -10z"/>
<path d="M805 530 c-8 -26 1 -40 26 -40 10 0 19 -4 19 -10 0 -5 -9 -10 -20
-10 -22 0 -27 -16 -7 -23 35 -12 63 35 47 78 -12 32 -55 35 -65 5z m40 -20
c-5 -8 -11 -8 -17 -2 -6 6 -7 16 -3 22 5 8 11 8 17 2 6 -6 7 -16 3 -22z"/>
<path d="M890 540 c0 -5 9 -10 20 -10 17 0 18 -3 10 -26 -6 -14 -10 -32 -10
-40 0 -25 15 -15 26 19 6 17 14 40 19 50 6 14 2 17 -29 17 -20 0 -36 -4 -36
-10z"/>
<path d="M985 540 c-3 -5 -1 -10 4 -10 6 0 11 -13 11 -30 0 -16 -4 -30 -10
-30 -5 0 -10 -4 -10 -10 0 -5 14 -10 30 -10 17 0 30 5 30 10 0 6 -4 10 -10 10
-5 0 -10 18 -10 40 0 28 -4 40 -14 40 -8 0 -18 -4 -21 -10z"/>
<path d="M267 499 c31 -53 99 -130 154 -175 51 -42 186 -120 194 -112 2 2 -31
21 -73 43 -87 44 -203 149 -252 226 -35 54 -52 68 -23 18z"/>
<path d="M1542 518 c-32 -32 18 -87 53 -58 21 18 19 36 -7 54 -27 19 -31 19
-46 4z m47 -21 c6 -8 8 -17 4 -20 -11 -12 -41 -7 -46 7 -10 27 22 36 42 13z"/>
<path d="M1657 495 c-9 -19 -15 -35 -12 -35 7 0 37 61 33 66 -3 2 -12 -12 -21
-31z"/>
<path d="M90 505 c0 -19 97 -161 149 -217 66 -72 156 -140 243 -184 37 -19 71
-34 75 -34 5 0 -29 20 -74 44 -152 79 -253 174 -344 321 -27 43 -49 75 -49 70z"/>
<path d="M1405 403 c-38 -42 -97 -94 -129 -115 -66 -43 -84 -57 -46 -38 49 25
111 72 159 120 42 42 98 111 89 110 -2 -1 -34 -35 -73 -77z"/>
<path d="M208 459 c-20 -11 -24 -54 -7 -64 34 -22 84 30 59 60 -14 17 -28 18
-52 4z m40 -26 c-2 -10 -13 -19 -26 -21 -24 -4 -29 7 -10 26 18 18 40 15 36
-5z"/>
<path d="M1493 443 c-16 -6 -17 -39 -2 -49 6 -3 16 -1 22 5 8 8 6 11 -6 11 -9
0 -17 5 -17 11 0 6 10 9 23 7 17 -2 22 -9 20 -31 -2 -32 2 -34 17 -6 9 16 8
25 -6 40 -17 19 -28 22 -51 12z"/>
<path d="M1598 398 c-81 -122 -183 -212 -321 -284 -45 -24 -79 -44 -74 -44 4
0 38 15 75 34 120 61 231 155 306 261 48 67 59 85 53 85 -2 0 -20 -24 -39 -52z"/>
<path d="M276 386 c-4 -15 -15 -26 -29 -29 -18 -3 -17 -5 7 -6 24 -1 27 -3 16
-16 -18 -22 -4 -18 30 7 16 11 27 25 24 30 -3 5 -13 3 -22 -4 -13 -11 -15 -10
-10 15 6 33 -8 36 -16 3z"/>
<path d="M1440 378 c0 -2 9 -21 20 -43 15 -30 20 -34 20 -17 0 16 6 22 23 23
19 0 18 2 -8 11 -16 6 -36 15 -42 21 -7 5 -13 8 -13 5z"/>
<path d="M1366 282 c-3 -6 -1 -14 5 -17 15 -10 25 3 12 16 -7 7 -13 7 -17 1z"/>
<path d="M360 270 c0 -5 5 -10 10 -10 6 0 10 5 10 10 0 6 -4 10 -10 10 -5 0
-10 -4 -10 -10z"/>
<path d="M1260 244 c0 -3 4 -14 10 -24 7 -13 6 -19 -6 -24 -9 -3 -12 -2 -9 4
9 14 -24 25 -37 12 -8 -8 -8 -15 0 -25 7 -8 9 -17 5 -21 -4 -4 0 -4 10 0 13 4
16 2 11 -9 -10 -26 15 -29 49 -7 30 21 26 22 -15 5 -13 -5 -18 -2 -18 10 0 9
4 14 8 11 4 -2 14 -1 21 3 10 7 10 14 -3 40 -15 28 -26 39 -26 25z"/>
<path d="M475 230 c3 -5 1 -10 -6 -10 -6 0 -9 -8 -6 -20 3 -11 1 -20 -4 -20
-5 0 -9 -6 -9 -13 0 -15 49 -42 58 -32 3 3 1 5 -4 5 -6 0 -19 6 -30 14 -18 14
-18 15 9 25 16 6 25 15 22 21 -3 5 -2 10 4 10 6 0 8 7 5 15 -4 8 -15 15 -26
15 -10 0 -16 -4 -13 -10z m15 -30 c0 -5 -2 -10 -4 -10 -3 0 -8 5 -11 10 -3 6
-1 10 4 10 6 0 11 -4 11 -10z"/>
<path d="M1150 220 c-8 -5 -10 -10 -5 -10 6 0 17 5 25 10 8 5 11 10 5 10 -5 0
-17 -5 -25 -10z"/>
<path d="M516 192 c-20 -39 -18 -46 7 -27 11 8 17 22 15 37 -3 22 -5 21 -22
-10z"/>
<path d="M698 183 c7 -3 16 -2 19 1 4 3 -2 6 -13 5 -11 0 -14 -3 -6 -6z"/>
<path d="M1048 183 c7 -3 16 -2 19 1 4 3 -2 6 -13 5 -11 0 -14 -3 -6 -6z"/>
<path d="M618 170 c31 -13 28 -32 -5 -27 -16 2 -22 2 -15 0 7 -3 10 -9 6 -14
-3 -5 -10 -6 -16 -3 -7 4 -8 2 -4 -4 4 -7 14 -12 22 -12 8 0 14 -7 14 -15 0
-8 5 -15 10 -15 6 0 10 7 10 15 0 8 -4 15 -10 15 -5 0 -10 5 -10 11 0 6 8 8
18 5 13 -5 18 0 20 18 1 17 -5 25 -21 30 -33 9 -45 6 -19 -4z"/>
<path d="M738 173 c6 -2 18 -2 25 0 6 3 1 5 -13 5 -14 0 -19 -2 -12 -5z"/>
<path d="M998 173 c6 -2 18 -2 25 0 6 3 1 5 -13 5 -14 0 -19 -2 -12 -5z"/>
<path d="M1106 149 c-9 -16 -13 -29 -7 -29 5 0 13 -9 16 -20 3 -11 13 -20 21
-20 8 0 12 4 9 10 -3 5 0 7 9 4 8 -3 20 -3 25 0 15 9 2 36 -17 36 -13 0 -12 3
4 14 20 16 21 15 -29 30 -8 2 -22 -9 -31 -25z m36 -2 c-12 -7 -19 -17 -15 -22
4 -4 2 -5 -5 -1 -17 10 3 36 27 36 12 -1 10 -4 -7 -13z"/>
<path d="M833 163 c26 -2 68 -2 95 0 26 2 4 3 -48 3 -52 0 -74 -1 -47 -3z"/>
<path d="M1032 130 c0 -14 4 -38 8 -55 l8 -30 0 35 c0 19 -3 44 -8 55 -8 18
-9 18 -8 -5z"/>
<path d="M723 133 c9 -2 17 -14 17 -26 0 -18 2 -19 10 -7 17 27 11 40 -17 39
-17 -1 -21 -3 -10 -6z"/>
<path d="M766 113 c-8 -33 -36 -47 -36 -18 0 13 -3 13 -20 3 -22 -14 -9 -28
27 -28 12 0 24 -8 26 -17 3 -12 5 -8 6 9 0 14 5 28 9 30 5 2 5 14 2 28 -6 24
-7 24 -14 -7z"/>
<path d="M840 130 c-8 -5 -10 -10 -3 -10 6 0 9 -9 6 -20 -4 -16 0 -20 17 -20
17 0 21 4 17 20 -3 11 0 20 6 20 7 0 5 5 -3 10 -8 5 -17 10 -20 10 -3 0 -12
-5 -20 -10z"/>
<path d="M901 108 c-1 -36 -3 -38 -33 -39 l-33 -2 30 -4 c16 -3 33 -9 36 -15
9 -15 16 57 8 79 -5 12 -8 7 -8 -19z"/>
<path d="M980 130 c-13 -8 -12 -10 3 -10 21 0 22 -9 1 -38 -8 -12 -11 -22 -5
-22 14 0 31 33 31 59 0 23 -7 26 -30 11z"/>
<path d="M668 33 c7 -3 16 -2 19 1 4 3 -2 6 -13 5 -11 0 -14 -3 -6 -6z"/>
<path d="M1078 33 c7 -3 16 -2 19 1 4 3 -2 6 -13 5 -11 0 -14 -3 -6 -6z"/>
<path d="M713 23 c9 -2 23 -2 30 0 6 3 -1 5 -18 5 -16 0 -22 -2 -12 -5z"/>
<path d="M1023 23 c9 -2 23 -2 30 0 6 3 -1 5 -18 5 -16 0 -22 -2 -12 -5z"/>
<path d="M788 13 c18 -2 45 -2 60 0 15 2 0 4 -33 4 -33 0 -45 -2 -27 -4z"/>
<path d="M918 13 c18 -2 45 -2 60 0 15 2 0 4 -33 4 -33 0 -45 -2 -27 -4z"/>
</g>
</svg>
