<svg version="1.1" id="Layer_1" xmlns="http://www.w3.org/2000/svg" xmlns:xlink="http://www.w3.org/1999/xlink" x="0px" y="0px"
	 width="100%" viewBox="0 0 175 175" enable-background="new 0 0 175 175" xml:space="preserve">
<path fill="#FEFEFF" opacity="1.000000" stroke="none" 
	d="
M1.000001,79.000000 
	C1.000000,53.073589 1.000000,27.147177 1.000000,1.000000 
	C26.353800,1.000000 51.708241,1.000000 77.357498,1.354704 
	C72.773766,2.870648 67.895226,4.031887 62.649750,5.212418 
	C57.858101,7.162178 53.433392,9.092646 48.656136,11.058962 
	C43.964455,13.951082 39.625320,16.807354 34.993286,19.787907 
	C31.183073,23.295851 27.665764,26.679512 23.877411,30.186005 
	C23.020819,31.104134 22.435270,31.899433 21.560919,32.880955 
	C18.461395,37.293064 15.650676,41.518951 12.561939,45.963295 
	C9.450193,53.536221 6.493866,60.846779 3.836807,68.264534 
	C2.593219,71.736282 1.927579,75.415054 1.000001,79.000000 
z"/>
<path fill="#FEFEFF" opacity="1.000000" stroke="none" 
	d="
M77.000000,176.000000 
	C51.738834,176.000000 26.477669,176.000000 1.000000,176.000000 
	C1.000000,150.312851 1.000000,124.625084 1.329948,98.678802 
	C3.493154,108.463661 5.284806,118.520157 10.853163,127.732697 
	C12.264353,130.377853 13.621012,132.693298 15.065495,135.338303 
	C17.014465,138.143387 18.875614,140.618927 20.883980,143.403564 
	C24.695469,147.406006 28.359739,151.099319 32.243481,155.054169 
	C35.599007,157.567581 38.735058,159.819504 42.084854,162.340256 
	C48.860481,165.374634 55.422367,168.140198 62.324322,171.058777 
	C63.753269,171.827454 64.775002,172.667542 65.943489,173.017136 
	C69.599220,174.110916 73.310341,175.019608 77.000000,176.000000 
z"/>
<path fill="#FDFEFE" opacity="1.000000" stroke="none" 
	d="
M98.000000,0.999999 
	C123.925926,1.000000 149.851852,1.000000 176.000000,1.000000 
	C176.000000,26.020456 176.000000,51.041569 175.648636,76.341461 
	C172.168640,55.106411 162.489197,37.163918 145.882568,22.619616 
	C140.538559,18.855871 135.334167,15.394341 129.907684,11.662394 
	C121.791908,8.642251 113.898247,5.892523 105.609116,3.026680 
	C102.809090,2.273709 100.404541,1.636854 98.000000,0.999999 
z"/>
<path fill="#FDFEFE" opacity="1.000000" stroke="none" 
	d="
M176.000000,101.000000 
	C176.000000,125.927353 176.000000,150.854706 176.000000,176.000000 
	C150.979523,176.000000 125.958420,176.000000 100.589188,175.666504 
	C101.162193,175.165771 102.083321,174.998520 103.390274,174.803986 
	C110.517769,172.542221 117.259438,170.307755 124.361862,167.990601 
	C132.529892,162.734436 140.337143,157.560928 148.452515,152.236237 
	C161.953995,139.486313 170.513290,124.308609 174.262802,106.425789 
	C174.650421,104.577049 175.411957,102.806717 176.000000,101.000000 
z"/>
<path fill="#2370B6" opacity="1.000000" stroke="none" 
	d="
M176.000000,100.531364 
	C175.411957,102.806717 174.650421,104.577049 174.262802,106.425789 
	C170.513290,124.308609 161.953995,139.486313 148.414886,151.778473 
	C148.055756,149.947327 148.042374,148.422775 148.386597,146.748657 
	C149.576721,145.083542 150.409241,143.567978 151.325699,141.899612 
	C150.170547,141.305481 148.494049,140.443207 146.943695,139.218323 
	C147.411850,138.168732 147.753891,137.481750 148.417694,136.926849 
	C149.940781,137.145081 151.142075,137.231216 152.556885,137.547760 
	C152.923706,137.920807 153.077026,138.063446 153.192490,138.543701 
	C153.856934,139.000519 154.559219,139.119751 155.261505,139.238968 
	C155.274872,137.315414 156.066040,134.806564 155.146713,133.584869 
	C152.938095,130.649857 150.265366,131.681198 147.974274,133.918579 
	C147.289322,133.108490 146.719986,132.573685 146.245056,131.715149 
	C157.248550,116.535553 161.705902,99.910873 160.129578,81.581093 
	C158.846786,66.664505 152.696915,53.804085 144.054016,41.883949 
	C144.582535,40.753502 144.806351,39.824627 145.393723,38.787395 
	C147.706665,36.974457 149.656036,35.269875 151.847214,33.353874 
	C150.688110,30.141989 148.478043,30.980324 145.929657,32.852982 
	C145.878555,29.329502 145.950378,26.125666 146.022217,22.921827 
	C162.489197,37.163918 172.168640,55.106411 175.648636,76.810120 
	C176.000000,84.687576 176.000000,92.375153 176.000000,100.531364 
M158.458420,132.037704 
	C162.040176,131.048782 163.183380,128.820435 160.799179,125.898788 
	C159.870575,124.760834 157.603806,124.178391 156.024979,124.306824 
	C155.063370,124.385040 153.288696,126.863197 153.540436,127.295097 
	C154.574860,129.069839 156.246140,130.473404 158.458420,132.037704 
M168.171051,114.858574 
	C168.079987,113.616165 168.450607,111.721748 167.804016,111.263893 
	C166.352463,110.236061 164.270370,109.251923 162.687988,109.548119 
	C161.601349,109.751534 159.923538,112.535347 160.290543,113.455833 
	C160.879303,114.932533 162.805695,116.163155 164.439255,116.816635 
	C165.274185,117.150642 166.700897,116.005287 168.171051,114.858574 
M159.485199,55.248470 
	C161.098785,54.363777 162.712387,53.479084 164.325974,52.594391 
	C164.207336,52.288761 164.088684,51.983128 163.970047,51.677498 
	C162.758240,51.677498 161.546417,51.677498 160.587341,51.677498 
	C161.173721,50.171421 161.690689,48.843658 162.691696,46.272644 
	C159.043686,48.168903 156.760162,49.355892 155.129623,50.203453 
	C155.828445,52.313725 156.171188,53.788361 156.836685,55.099121 
	C157.045044,55.509480 158.123093,55.478271 159.485199,55.248470 
M165.044922,91.460350 
	C165.656677,92.762207 166.268448,94.064064 166.929352,95.470497 
	C165.865631,95.935242 164.821899,96.391251 163.778168,96.847267 
	C163.830750,97.181801 163.883316,97.516342 163.935898,97.850876 
	C166.559647,98.017952 169.183411,98.185028 172.932037,98.423737 
	C170.824646,96.677963 169.824905,95.849785 168.619843,94.851494 
	C170.220688,94.045586 171.205276,93.549911 173.322968,92.483810 
	C169.936920,92.007729 167.870209,91.717148 165.044922,91.460350 
M170.979294,76.065475 
	C168.441147,76.231995 165.903000,76.398514 162.879044,76.596909 
	C163.430679,78.933647 163.779037,80.409271 164.427597,83.156525 
	C165.160431,80.740265 165.503845,79.607986 165.929352,78.205025 
	C166.805878,79.371201 167.392044,80.151062 168.138702,81.144455 
	C168.715073,79.921059 169.073349,79.160561 169.482239,78.292656 
	C170.094467,79.224892 170.549286,79.917427 171.004089,80.609955 
	C171.283768,80.508926 171.563446,80.407890 171.843140,80.306854 
	C171.760254,79.067520 171.677383,77.828178 170.979294,76.065475 
M157.609497,41.218250 
	C155.043503,41.930107 152.477509,42.641964 150.400635,43.218124 
	C151.787308,45.392300 152.843323,47.048054 154.393311,49.478287 
	C155.770325,46.697369 156.988998,44.236237 157.609497,41.218250 
z"/>
<path fill="#55C2EE" opacity="1.000000" stroke="none" 
	d="
M10.798632,127.402992 
	C5.284806,118.520157 3.493154,108.463661 1.329948,98.210144 
	C1.000000,91.978844 1.000000,85.957695 1.000001,79.468269 
	C1.927579,75.415054 2.593219,71.736282 3.836807,68.264534 
	C6.493866,60.846779 9.450193,53.536221 12.703616,46.262337 
	C13.770766,46.907562 14.418223,47.472202 14.928012,48.334129 
	C14.554598,50.307590 14.318852,51.983757 14.057156,53.975304 
	C13.776147,54.848644 13.521091,55.406612 12.891235,55.884872 
	C9.212079,58.788879 9.452452,59.953266 14.003475,63.263031 
	C14.001675,63.508801 14.003043,64.000351 13.693310,64.136520 
	C9.097012,66.338661 10.785505,69.209518 12.408657,71.898140 
	C11.534154,72.956985 10.770510,73.881599 9.727303,74.891708 
	C9.142396,75.204414 8.837051,75.431641 8.531706,75.658859 
	C9.274676,76.068016 10.017648,76.477173 11.132244,76.917900 
	C12.000763,76.966064 12.497656,76.982658 13.036560,77.365623 
	C12.932859,79.203773 12.787147,80.675545 12.291178,82.118698 
	C9.811077,81.491272 7.681231,80.892464 5.551386,80.293648 
	C5.436426,80.652267 5.321465,81.010880 5.206505,81.369492 
	C6.544472,82.110962 7.882439,82.852432 9.215239,83.598358 
	C7.784737,84.326241 6.359405,85.049667 4.934072,85.773094 
	C5.070648,86.111496 5.207224,86.449890 5.343801,86.788284 
	C7.540613,86.448853 9.737426,86.109428 11.923493,86.141685 
	C11.484232,87.074745 11.055716,87.636124 10.270664,88.233185 
	C5.714858,88.578217 4.282657,90.702988 5.467088,94.944740 
	C8.123994,94.944740 10.552317,94.944740 12.985569,95.220245 
	C12.993138,95.679436 12.995776,95.863121 12.691998,96.215363 
	C10.118064,97.710182 7.850548,99.036446 5.583033,100.362709 
	C5.717643,100.884865 5.852253,101.407021 5.986863,101.929176 
	C8.679340,102.378708 11.371818,102.828239 14.051615,103.458237 
	C14.038933,103.638710 14.011249,103.999489 13.749704,104.199203 
	C13.738929,105.315941 13.989698,106.232979 14.034288,107.421753 
	C11.959438,109.116020 10.090771,110.538544 8.768900,111.544823 
	C10.811631,113.236870 12.461680,114.603653 14.032141,116.305862 
	C13.983562,117.097916 14.014572,117.554543 14.032749,118.253235 
	C14.019916,118.495308 14.185525,118.950958 14.036667,119.224205 
	C12.990220,119.138527 12.092632,118.779610 10.681999,118.215538 
	C11.234993,120.113434 11.637918,121.496277 11.889744,123.239258 
	C11.425309,124.867264 11.111971,126.135124 10.798632,127.402992 
z"/>
<path fill="#2991CF" opacity="1.000000" stroke="none" 
	d="
M63.016685,5.193125 
	C67.895226,4.031887 72.773766,2.870648 77.826157,1.354704 
	C79.388893,1.000000 80.777779,1.000000 82.545120,1.358346 
	C82.224976,3.164260 81.526390,4.611827 80.455200,6.060601 
	C78.938271,5.719831 77.793953,5.377855 75.736328,4.762941 
	C76.285652,8.362081 76.694908,11.043448 77.121239,13.836735 
	C79.101067,13.564192 80.573517,13.361493 82.068924,13.476559 
	C82.398338,14.802516 82.704781,15.810710 82.598267,16.903378 
	C75.802200,18.378597 69.419098,19.769344 63.023457,20.767490 
	C63.012020,19.327496 63.013123,18.280107 63.395851,17.175358 
	C67.878151,14.971174 67.940865,11.943862 63.718140,7.796659 
	C63.318653,6.802518 63.167671,5.997822 63.016685,5.193125 
M72.526176,8.137808 
	C72.555550,7.430665 72.584923,6.723521 72.614288,6.016376 
	C70.963318,6.420515 69.312347,6.824653 67.774994,7.200979 
	C69.354454,10.118946 70.636330,12.487158 71.918205,14.855371 
	C72.310127,14.704926 72.702042,14.554483 73.093956,14.404040 
	C72.801270,12.538379 72.508575,10.672718 72.526176,8.137808 
z"/>
<path fill="#2B93D0" opacity="1.000000" stroke="none" 
	d="
M77.375000,176.000000 
	C73.310341,175.019608 69.599220,174.110916 65.943489,173.017136 
	C64.775002,172.667542 63.753269,171.827454 62.358952,170.755188 
	C62.413311,169.841995 62.773109,169.385376 63.429359,168.830627 
	C64.154289,167.823288 64.582771,166.914093 65.305290,165.881165 
	C66.923553,162.422989 66.762871,160.901077 64.990417,159.982574 
	C64.994331,160.012054 65.052528,159.999832 64.904076,159.747726 
	C64.196289,159.386566 63.636948,159.277496 63.056499,158.825867 
	C63.026577,158.025833 63.017769,157.568359 63.317520,157.006317 
	C69.087700,157.980347 74.549324,159.058929 79.979507,160.424667 
	C79.614922,161.146805 79.281769,161.581772 78.602829,162.066040 
	C74.528069,163.168976 71.977142,165.292603 71.275703,169.481476 
	C73.788582,170.028915 75.988350,170.508133 78.540649,171.080734 
	C79.262115,172.782745 79.631058,174.391373 80.000000,176.000000 
	C79.250000,176.000000 78.500000,176.000000 77.375000,176.000000 
z"/>
<path fill="#1F88C9" opacity="1.000000" stroke="none" 
	d="
M80.827805,6.059395 
	C81.526390,4.611827 82.224976,3.164260 82.961784,1.358346 
	C83.000000,1.000000 83.500000,1.000000 84.015152,1.296430 
	C87.353539,1.395239 90.176765,1.197620 93.000000,1.000000 
	C93.444443,1.000000 93.888893,1.000000 94.629898,1.359623 
	C94.596588,2.870579 94.266724,4.021913 93.593109,5.102613 
	C90.586098,4.010802 88.063438,4.161217 87.526985,7.371343 
	C87.258858,8.975838 87.988312,11.572026 89.187950,12.427325 
	C91.790413,14.282786 93.712692,12.357556 95.336945,9.998484 
	C95.985199,9.995671 96.355621,9.993324 96.752243,10.424025 
	C96.837646,11.712638 96.896866,12.568206 96.719780,13.604256 
	C95.657814,14.787169 94.832161,15.789599 93.549812,16.832592 
	C89.732483,16.855072 86.371857,16.836988 83.011223,16.818905 
	C82.704781,15.810710 82.398338,14.802516 82.129692,13.161328 
	C81.772430,12.070541 81.377365,11.612748 80.983170,10.848969 
	C80.980103,10.339026 80.976181,10.135072 81.031082,9.613003 
	C81.058456,8.867484 81.027000,8.440080 80.976860,7.694263 
	C80.934830,7.164493 80.911499,6.953136 80.860458,6.572300 
	C80.832748,6.402820 80.827805,6.059395 80.827805,6.059395 
z"/>
<path fill="#1A82C4" opacity="1.000000" stroke="none" 
	d="
M93.936859,5.173246 
	C94.266724,4.021913 94.596588,2.870579 94.963226,1.359623 
	C95.750000,1.000000 96.500000,1.000000 97.625000,0.999999 
	C100.404541,1.636854 102.809090,2.273709 105.606995,3.456470 
	C106.330109,6.985697 106.659859,9.969020 106.912575,13.289112 
	C106.891663,14.082187 106.947777,14.538491 106.874405,15.294672 
	C106.499496,16.633839 106.254074,17.673132 105.613281,18.708450 
	C101.480789,18.066996 97.743645,17.429514 94.006508,16.792030 
	C94.832161,15.789599 95.657814,14.787169 97.074905,13.530581 
	C98.801025,11.854879 99.935730,10.433334 100.991508,9.110656 
	C100.681023,8.904584 99.977936,8.437946 98.993111,7.784320 
	C100.554901,7.202591 101.571983,6.823751 102.589073,6.444912 
	C102.543434,6.169835 102.497787,5.894759 102.452148,5.619682 
	C100.924309,5.381098 99.396469,5.142515 97.594780,4.861167 
	C97.261536,6.828940 96.993797,8.409959 96.726051,9.990978 
	C96.355621,9.993324 95.985199,9.995671 95.290962,9.641301 
	C94.623726,7.914139 94.280289,6.543693 93.936859,5.173246 
z"/>
<path fill="#1F88C9" opacity="1.000000" stroke="none" 
	d="
M78.948624,162.016739 
	C79.281769,161.581772 79.614922,161.146805 80.438934,160.389771 
	C84.622009,160.219208 88.314224,160.370667 92.005287,160.860931 
	C91.968781,161.876190 91.933426,162.552658 91.591110,163.177628 
	C90.872910,163.135025 90.461662,163.143890 89.769859,163.149597 
	C88.997986,163.363388 88.506668,163.580322 87.970261,163.513977 
	C87.270935,163.177750 86.616699,163.124802 85.784691,163.120178 
	C85.606911,163.168472 85.244400,163.102554 84.932358,163.089722 
	C84.203133,163.411926 83.785942,163.746948 83.368752,164.081970 
	C83.819870,164.393875 84.270996,164.705780 84.878387,165.275513 
	C85.380646,166.008575 85.726631,166.483810 85.803452,167.052856 
	C85.340134,167.851822 85.145981,168.556976 84.958328,169.433655 
	C84.964828,169.605209 84.981110,169.948151 85.111603,170.318405 
	C87.269249,171.486176 89.296410,172.283691 91.641403,173.130768 
	C92.306168,174.120224 92.653084,175.060120 93.000000,176.000000 
	C88.975456,176.000000 84.950912,176.000000 80.463181,176.000000 
	C79.631058,174.391373 79.262115,172.782745 78.527504,170.717255 
	C78.424095,167.512512 78.686356,164.764618 78.948624,162.016739 
z"/>
<path fill="#1B84C6" opacity="1.000000" stroke="none" 
	d="
M93.416664,176.000000 
	C92.653084,175.060120 92.306168,174.120224 91.830673,172.792679 
	C91.791641,170.600098 91.881180,168.795166 92.237595,166.892212 
	C92.285286,166.212967 92.066109,165.631760 91.849739,164.746780 
	C91.867722,164.038376 91.882896,163.633743 91.898071,163.229111 
	C91.933426,162.552658 91.968781,161.876190 92.421532,160.748474 
	C94.560623,160.238235 96.282326,160.179276 98.002739,160.539261 
	C98.000969,165.972137 98.000488,170.986069 98.000000,176.000000 
	C96.611107,176.000000 95.222221,176.000000 93.416664,176.000000 
z"/>
<path fill="#1680C3" opacity="1.000000" stroke="none" 
	d="
M98.333328,176.000000 
	C98.000488,170.986069 98.000969,165.972137 98.355965,160.421448 
	C100.141899,159.641159 101.573326,159.397614 103.012093,159.540009 
	C103.014442,164.894379 103.009445,169.862839 103.004456,174.831268 
	C102.083321,174.998520 101.162193,175.165771 100.120529,175.666504 
	C99.555557,176.000000 99.111107,176.000000 98.333328,176.000000 
z"/>
<path fill="#4CB5E6" opacity="1.000000" stroke="none" 
	d="
M92.550018,1.000000 
	C90.176765,1.197620 87.353539,1.395239 84.265152,1.296430 
	C86.700012,1.000000 89.400032,1.000000 92.550018,1.000000 
z"/>
<path fill="#4CB6E7" opacity="1.000000" stroke="none" 
	d="
M14.011248,103.999489 
	C14.011249,103.999489 14.038933,103.638710 14.115364,103.096649 
	C13.794002,100.385323 13.396209,98.216064 12.998415,96.046799 
	C12.995776,95.863121 12.993138,95.679436 13.079445,94.815880 
	C13.117289,92.755898 13.066186,91.375793 13.278105,89.768509 
	C13.400710,88.043495 13.260291,86.545662 13.161550,84.673225 
	C13.015962,83.581520 12.828696,82.864426 12.641433,82.147324 
	C12.787147,80.675545 12.932859,79.203773 13.224360,77.099785 
	C13.876378,75.698227 14.836693,74.913246 14.810846,74.162201 
	C14.694098,70.769669 14.298307,67.386742 14.003043,64.000351 
	C14.003043,64.000351 14.001675,63.508801 14.383087,63.243095 
	C19.258125,61.377056 19.284052,61.333462 18.019648,57.878117 
	C16.951330,58.713490 15.824673,59.594486 14.698015,60.475479 
	C14.220688,58.971844 13.743361,57.468212 13.266035,55.964577 
	C13.521091,55.406612 13.776147,54.848644 14.410156,54.099068 
	C16.566807,54.649300 18.344505,55.391144 20.492701,56.287598 
	C21.174068,54.512978 21.713385,53.108330 22.032446,52.277340 
	C19.317614,50.624889 17.191647,49.330868 15.065680,48.036842 
	C14.418223,47.472202 13.770766,46.907562 12.981632,46.043880 
	C15.650676,41.518951 18.461395,37.293064 21.726074,33.261333 
	C22.094326,36.061150 22.008621,38.666813 21.576525,41.274010 
	C19.422550,42.463421 17.614965,43.651295 15.807383,44.839169 
	C15.972402,45.277691 16.137421,45.716213 16.302441,46.154736 
	C19.480228,46.086807 20.601027,51.879330 24.897173,49.086868 
	C25.524538,50.280567 26.113457,51.122093 26.610672,52.290749 
	C14.036595,75.155365 13.704653,98.097351 24.052708,121.747284 
	C23.196175,122.392586 22.516075,122.691345 21.669971,122.754654 
	C20.994013,122.301064 20.484060,122.082916 19.981461,121.541458 
	C19.981697,120.787048 19.974581,120.355934 19.943317,119.588493 
	C18.300133,117.796577 16.681091,116.341003 15.245159,114.587296 
	C18.157593,111.675804 15.257675,109.386688 14.977186,106.632271 
	C14.636503,105.546143 14.323875,104.772820 14.011248,103.999489 
M16.047176,67.308792 
	C16.330610,66.937302 16.642281,66.581497 16.866840,66.177299 
	C16.900280,66.117104 16.523901,65.829216 16.337116,65.646667 
	C16.114981,66.088936 15.892847,66.531197 16.047176,67.308792 
z"/>
<path fill="#329DD6" opacity="1.000000" stroke="none" 
	d="
M63.014221,17.232719 
	C63.013123,18.280107 63.012020,19.327496 62.787922,21.010452 
	C57.871677,23.734224 53.178429,25.822432 48.270912,27.508316 
	C47.614281,26.696733 47.171909,26.287476 46.898983,25.532463 
	C47.082497,24.458364 47.096569,23.730019 47.511620,22.998444 
	C52.077839,23.035635 51.084270,20.227545 50.645710,17.876701 
	C50.215500,15.570631 49.563396,13.305957 49.008678,11.023114 
	C53.433392,9.092646 57.858101,7.162178 62.649750,5.212418 
	C63.167671,5.997822 63.318653,6.802518 63.638130,8.190969 
	C64.135773,10.761179 64.464912,12.747634 64.794052,14.734090 
	C64.430367,14.891860 64.066673,15.049629 63.702988,15.207399 
	C62.527855,13.384567 61.352718,11.561735 60.177582,9.738903 
	C59.671947,10.021063 59.166313,10.303223 58.660679,10.585382 
	C60.111862,12.801161 61.563042,15.016940 63.014221,17.232719 
M50.517815,13.411883 
	C50.517815,13.411883 50.584545,13.523084 50.517815,13.411883 
z"/>
<path fill="#36A3DB" opacity="1.000000" stroke="none" 
	d="
M46.729538,25.878220 
	C47.171909,26.287476 47.614281,26.696733 48.081581,27.764183 
	C44.800159,30.985798 41.493797,33.549225 37.880577,35.872375 
	C37.315472,34.634811 37.057232,33.637531 36.783844,32.384029 
	C36.708237,31.791327 36.647781,31.454842 36.984489,31.067919 
	C37.646450,30.983984 37.911243,30.950489 38.548973,30.905258 
	C40.028324,29.696621 41.134735,28.499720 42.241146,27.302818 
	C40.815022,26.245741 39.388901,25.188667 37.962776,24.131592 
	C38.110779,24.052336 38.258778,23.973080 38.406780,23.893824 
	C37.938183,23.265886 37.469589,22.637947 36.939560,21.626015 
	C36.347481,20.715889 35.816833,20.189758 35.286186,19.663628 
	C39.625320,16.807354 43.964455,13.951082 48.656136,11.058962 
	C49.563396,13.305957 50.215500,15.570631 50.645710,17.876701 
	C51.084270,20.227545 52.077839,23.035635 47.270523,22.746849 
	C46.076321,20.699619 45.524193,18.900753 44.768185,16.437639 
	C43.092739,17.765417 41.579124,18.964947 40.065510,20.164474 
	C41.301731,19.219791 42.537952,18.275108 43.774178,17.330423 
	C44.759296,20.179689 45.744415,23.028955 46.729538,25.878220 
z"/>
<path fill="#4CB5E6" opacity="1.000000" stroke="none" 
	d="
M21.922916,41.272472 
	C22.008621,38.666813 22.094326,36.061150 22.014877,33.075111 
	C22.435270,31.899433 23.020819,31.104134 24.210983,30.333565 
	C27.316336,30.300091 29.817074,30.241886 32.233795,30.552832 
	C32.087242,31.430254 32.024704,31.938528 31.986116,32.790100 
	C30.824831,34.268547 29.639597,35.403694 28.205856,36.776844 
	C29.243422,37.339504 30.499119,38.020454 31.754814,38.701401 
	C31.675022,39.068119 31.595228,39.434837 31.515436,39.801556 
	C29.592756,39.651337 27.670076,39.501118 25.418610,39.325211 
	C25.260000,40.619183 25.106789,41.869114 24.678873,42.996113 
	C23.577084,42.339611 22.749998,41.806042 21.922916,41.272472 
z"/>
<path fill="#41ABE0" opacity="1.000000" stroke="none" 
	d="
M32.317810,30.183681 
	C29.817074,30.241886 27.316336,30.300091 24.482027,30.210735 
	C27.665764,26.679512 31.183073,23.295851 34.993286,19.787907 
	C35.816833,20.189758 36.347481,20.715889 36.671413,21.854149 
	C35.675220,23.756317 34.885746,25.046360 34.096272,26.336403 
	C36.134819,26.873606 38.173367,27.410807 39.988087,27.889027 
	C39.537643,28.641731 38.856838,29.779364 38.176037,30.916996 
	C37.911243,30.950489 37.646450,30.983984 36.700180,30.928089 
	C34.785072,30.620358 33.551441,30.402020 32.317810,30.183681 
z"/>
<path fill="#34A0D8" opacity="1.000000" stroke="none" 
	d="
M63.132904,168.928757 
	C62.773109,169.385376 62.413311,169.841995 62.018883,170.602173 
	C55.422367,168.140198 48.860481,165.374634 42.402290,162.056122 
	C42.670094,159.734604 42.839104,157.966492 42.997303,156.197403 
	C43.328003,152.499252 43.652996,148.800598 44.298496,145.210785 
	C50.747429,149.249908 56.878193,153.180405 63.008957,157.110886 
	C63.017769,157.568359 63.026577,158.025833 63.199608,159.128113 
	C63.926731,159.848557 64.489632,159.924194 65.052528,159.999832 
	C65.052528,159.999832 64.994331,160.012054 64.814423,160.360123 
	C63.597481,161.139175 62.526440,161.504578 61.533043,162.019699 
	C60.547970,162.530518 59.641109,163.192184 58.699951,163.787689 
	C59.457317,164.543411 60.214684,165.299133 61.079994,166.339386 
	C61.836254,167.392181 62.484581,168.160477 63.132904,168.928757 
M46.476570,155.452911 
	C45.889442,159.466995 49.029022,157.673080 50.624321,157.906769 
	C51.282280,158.003143 52.127575,156.820618 52.887665,156.219772 
	C51.930702,155.481735 50.973740,154.743698 49.340206,153.996094 
	C48.562630,154.315338 47.785053,154.634567 46.476570,155.452911 
z"/>
<path fill="#39A6DD" opacity="1.000000" stroke="none" 
	d="
M43.980331,145.102142 
	C43.652996,148.800598 43.328003,152.499252 42.997303,156.197403 
	C42.839104,157.966492 42.670094,159.734604 42.188545,161.787292 
	C38.735058,159.819504 35.599007,157.567581 32.300426,154.665924 
	C32.099293,150.079041 32.060688,146.141907 32.193512,141.963379 
	C32.579292,140.791565 32.793644,139.861160 33.040455,138.592117 
	C33.421215,137.417419 33.769524,136.581390 34.410164,135.927704 
	C37.795109,139.107437 40.887718,142.104782 43.980331,145.102142 
M38.768436,151.500015 
	C38.321869,150.443863 37.875301,149.387695 37.428734,148.331543 
	C36.844658,148.753159 36.260586,149.174789 35.676510,149.596405 
	C36.498684,150.330627 37.320858,151.064835 38.768436,151.500015 
z"/>
<path fill="#42AEE2" opacity="1.000000" stroke="none" 
	d="
M32.022079,142.204788 
	C32.060688,146.141907 32.099293,150.079041 32.080956,154.404404 
	C28.359739,151.099319 24.695469,147.406006 21.209808,143.275909 
	C22.260309,142.559311 23.132198,142.279465 24.372890,142.053223 
	C25.478287,142.210083 26.214880,142.313324 26.951672,142.547867 
	C26.951872,142.679184 26.974792,142.940781 26.973120,143.292465 
	C28.654991,143.164352 30.338533,142.684570 32.022079,142.204788 
z"/>
<path fill="#4FBCEB" opacity="1.000000" stroke="none" 
	d="
M19.967463,119.924828 
	C19.974581,120.355934 19.981697,120.787048 19.856293,121.890915 
	C18.943340,123.032448 18.117477,123.440712 17.393400,123.984512 
	C16.374046,124.750076 14.486065,126.140930 14.605166,126.355186 
	C15.465200,127.902359 16.737867,129.220154 17.932835,130.979584 
	C18.384508,131.926819 18.783142,132.505127 19.170067,133.404190 
	C19.109438,134.149979 19.060514,134.574982 18.608250,135.000244 
	C17.129160,135.003220 16.053415,135.005981 14.977671,135.008743 
	C13.621012,132.693298 12.264353,130.377853 10.853163,127.732697 
	C11.111971,126.135124 11.425309,124.867264 12.249244,123.253624 
	C15.162381,121.913513 17.564922,120.919174 19.967463,119.924828 
z"/>
<path fill="#52B9E8" opacity="1.000000" stroke="none" 
	d="
M15.065494,135.338303 
	C16.053415,135.005981 17.129160,135.003220 18.794512,135.300308 
	C22.277321,140.225632 25.117201,137.063675 28.166183,135.917694 
	C26.910734,138.195892 25.457413,140.097748 24.004089,141.999603 
	C23.132198,142.279465 22.260309,142.559311 21.062592,142.966797 
	C18.875614,140.618927 17.014465,138.143387 15.065494,135.338303 
z"/>
<path fill="#2176BA" opacity="1.000000" stroke="none" 
	d="
M145.882568,22.619616 
	C145.950378,26.125666 145.878555,29.329502 145.769409,33.156624 
	C143.336075,35.188541 143.543533,36.954391 145.030167,38.895752 
	C144.806351,39.824627 144.582535,40.753502 143.762177,41.739792 
	C138.056335,37.221539 132.947021,32.645859 128.141190,27.928780 
	C131.277145,23.488327 126.479446,23.427000 125.198914,21.528458 
	C126.808716,18.395735 128.469254,15.164273 130.129791,11.932810 
	C135.334167,15.394341 140.538559,18.855871 145.882568,22.619616 
M133.385620,21.855572 
	C132.577026,23.052355 131.768448,24.249136 130.511642,26.109335 
	C132.242126,25.736795 133.221695,25.525915 134.242065,25.306248 
	C134.623367,26.514034 135.006027,27.726170 135.388687,28.938305 
	C136.004745,28.873878 136.620804,28.809450 137.236862,28.745024 
	C137.092087,25.598198 136.947327,22.451372 136.738266,17.907360 
	C135.070053,19.839548 134.450668,20.556936 133.385620,21.855572 
z"/>
<path fill="#177CBF" opacity="1.000000" stroke="none" 
	d="
M129.907684,11.662395 
	C128.469254,15.164273 126.808716,18.395735 125.198914,21.528458 
	C126.479446,23.427000 131.277145,23.488327 127.787094,27.917641 
	C120.089218,24.936077 113.048935,21.824251 106.008644,18.712425 
	C106.254074,17.673132 106.499496,16.633839 107.219131,15.418487 
	C109.272011,15.077691 110.850685,14.912957 112.429352,14.748224 
	C111.911644,13.203988 111.393944,11.659750 110.988052,10.008048 
	C111.099861,9.900584 111.322884,9.685044 111.675835,9.748968 
	C112.331116,9.748980 112.644608,9.714768 112.930557,9.607274 
	C113.053734,9.560968 113.119850,9.362873 113.211891,9.233734 
	C111.860764,8.793798 110.509628,8.353861 109.158493,7.913921 
	C109.296967,9.418123 109.435440,10.922326 109.344742,12.652063 
	C108.970047,13.034982 108.824509,13.192367 108.400055,13.263231 
	C107.743958,13.101920 107.366783,13.027131 106.989601,12.952342 
	C106.659859,9.969020 106.330109,6.985697 106.002480,3.572585 
	C113.898247,5.892523 121.791908,8.642251 129.907684,11.662395 
M120.969070,12.878787 
	C121.012718,12.555641 121.056366,12.232495 120.883171,11.230460 
	C119.188026,11.342982 116.756287,10.822883 115.981079,11.725496 
	C114.974419,12.897586 114.776031,15.342942 115.225960,16.963688 
	C115.484314,17.894331 117.713882,18.277754 119.289520,19.017059 
	C118.257690,16.663742 117.618401,15.205680 116.979103,13.747619 
	C118.178230,13.388028 119.377365,13.028437 120.969070,12.878787 
z"/>
<path fill="#1470B7" opacity="1.000000" stroke="none" 
	d="
M148.095917,136.794769 
	C147.753891,137.481750 147.411850,138.168732 146.610138,139.040390 
	C145.587509,139.662323 144.479645,140.368973 144.542786,140.496689 
	C145.618774,142.673080 146.839859,144.777740 148.028976,146.898209 
	C148.042374,148.422775 148.055756,149.947327 148.106781,151.929657 
	C140.337143,157.560928 132.529892,162.734436 124.360985,167.593750 
	C124.434349,166.139328 124.869347,164.999084 125.628387,163.879761 
	C126.994804,163.280487 128.037186,162.660278 129.055756,162.017639 
	C129.031937,161.995193 129.026047,162.059799 129.317169,162.045166 
	C129.750717,161.681778 129.893112,161.333023 130.274689,160.986633 
	C130.513855,160.988998 130.991730,161.010773 131.053146,161.156677 
	C131.212082,161.348236 131.309616,161.393890 131.407135,161.439545 
	C131.276245,161.289047 131.145355,161.138550 131.024384,160.719055 
	C130.028671,159.972366 129.023056,159.494675 128.029358,158.673218 
	C128.039352,157.875198 128.037430,157.420929 128.027313,156.640625 
	C127.371719,155.851944 126.724297,155.389282 125.859833,154.686523 
	C124.800255,154.410889 123.957726,154.375351 123.078445,153.920441 
	C123.006889,152.940872 122.972069,152.380646 123.108078,151.523499 
	C132.636459,146.897141 139.544586,139.648026 146.150665,132.038864 
	C146.719986,132.573685 147.289322,133.108490 147.952576,134.244202 
	C148.062988,135.494995 148.079453,136.144882 148.095917,136.794769 
z"/>
<path fill="#127CBF" opacity="1.000000" stroke="none" 
	d="
M122.937256,151.820435 
	C122.972069,152.380646 123.006889,152.940872 122.903709,154.168335 
	C119.553192,157.565079 123.645340,158.697968 124.106895,160.739288 
	C124.179352,160.838364 124.628288,161.024368 124.653366,161.389526 
	C124.887093,162.456070 125.095726,163.157455 125.304359,163.858841 
	C124.869347,164.999084 124.434349,166.139328 124.000229,167.676422 
	C117.259438,170.307755 110.517769,172.542221 103.390282,174.803986 
	C103.009445,169.862839 103.014442,164.894379 103.391167,159.441101 
	C110.154350,156.577667 116.545799,154.199051 122.937256,151.820435 
M119.012024,165.982559 
	C119.012024,165.982559 119.051414,165.968933 118.942238,165.269363 
	C118.642937,163.686813 118.343628,162.104263 117.896957,159.742493 
	C114.896362,160.800980 112.099358,161.787628 108.517769,163.051056 
	C110.608215,164.869232 111.827484,165.929688 113.027756,167.674408 
	C113.756836,167.801132 114.485916,167.927856 115.903023,168.159592 
	C116.939804,167.788712 117.976593,167.417831 119.440079,166.899002 
	C119.302887,166.581512 119.165695,166.264038 119.012024,165.982559 
z"/>
<path fill="#FDFEFE" opacity="1.000000" stroke="none" 
	d="
M123.108086,151.523499 
	C116.545799,154.199051 110.154350,156.577667 103.383820,159.055176 
	C101.573326,159.397614 100.141899,159.641159 98.357246,160.002502 
	C96.282326,160.179276 94.560623,160.238235 92.422684,160.409668 
	C88.314224,160.370667 84.622009,160.219208 80.470367,160.102631 
	C74.549324,159.058929 69.087700,157.980347 63.317520,157.006317 
	C56.878193,153.180405 50.747429,149.249908 44.298496,145.210785 
	C40.887718,142.104782 37.795109,139.107437 34.312996,135.610596 
	C30.692047,130.541000 27.460596,125.970871 24.229143,121.400749 
	C13.704653,98.097351 14.036595,75.155365 26.831589,52.010464 
	C30.825287,46.306252 34.506363,41.209450 38.187439,36.112652 
	C41.493797,33.549225 44.800159,30.985798 48.295849,28.166504 
	C53.178429,25.822432 57.871677,23.734224 62.800461,21.403055 
	C69.419098,19.769344 75.802200,18.378597 82.598267,16.903378 
	C86.371857,16.836988 89.732483,16.855072 93.549812,16.832594 
	C97.743645,17.429514 101.480789,18.066996 105.613281,18.708450 
	C113.048935,21.824251 120.089218,24.936077 127.483597,28.059044 
	C132.947021,32.645859 138.056335,37.221539 143.457504,41.941368 
	C152.696915,53.804085 158.846786,66.664505 160.129578,81.581093 
	C161.705902,99.910873 157.248550,116.535553 146.245056,131.715149 
	C139.544586,139.648026 132.636459,146.897141 123.108086,151.523499 
M101.143547,102.462440 
	C101.782845,102.377739 102.422134,102.293037 103.835846,102.452965 
	C109.863907,102.045273 115.891975,101.637589 122.738892,101.498123 
	C132.684906,100.524727 142.630905,99.551338 152.576920,98.577950 
	C152.550049,98.088150 152.523193,97.598351 152.496323,97.108551 
	C142.306595,96.287338 132.116867,95.466125 121.065811,94.294991 
	C115.066895,94.136879 109.067986,93.978767 102.214333,93.519615 
	C99.812973,93.474510 97.411613,93.429398 94.118202,93.197762 
	C91.079742,93.262390 88.041283,93.327019 84.139168,93.203224 
	C79.094803,93.477928 74.050438,93.752640 68.089462,93.846764 
	C64.078857,94.127678 60.068245,94.408592 55.267815,94.429420 
	C51.165241,94.891212 47.062672,95.352997 42.057793,95.763786 
	C37.759159,96.238724 33.460522,96.713661 29.161890,97.188599 
	C29.211018,97.812263 29.260147,98.435936 29.309275,99.059601 
	C33.867226,99.404533 38.425179,99.749466 43.778255,100.320679 
	C47.844490,100.616867 51.910728,100.913063 56.752857,101.475037 
	C60.837261,101.640907 64.921669,101.806778 69.923569,102.105568 
	C74.949860,102.273537 79.976158,102.441505 85.899414,102.787560 
	C88.935501,102.697495 91.971588,102.607422 95.718643,102.615685 
	C97.330078,102.456177 98.941513,102.296669 101.143547,102.462440 
M88.263947,124.079857 
	C86.389809,123.284836 84.110435,121.402779 82.725189,121.919189 
	C79.764015,123.023087 80.412491,125.604118 81.842957,128.075317 
	C82.238419,128.758499 81.372719,130.171677 80.064545,131.305817 
	C75.433411,129.296951 78.493782,124.454514 76.447861,121.171883 
	C75.049522,121.708313 73.763824,122.201538 72.478119,122.694756 
	C72.919754,122.856628 73.361389,123.018494 73.803032,123.180367 
	C73.587364,126.061371 73.371696,128.942368 73.080627,132.830658 
	C75.363617,132.349823 78.227280,131.746689 81.441086,131.807114 
	C86.167206,133.036392 87.847778,132.041656 88.484428,127.619064 
	C88.658249,126.411621 88.789436,125.198036 89.710365,123.771416 
	C90.753410,123.967758 91.796448,124.164101 92.598167,124.315010 
	C93.031288,127.260757 89.251320,130.190689 93.169205,133.273026 
	C94.629486,128.833389 95.783234,125.325706 97.093895,121.340973 
	C93.965370,122.039368 90.291458,119.087837 88.263947,124.079857 
M57.319447,65.123718 
	C50.875843,64.711700 49.982433,72.044121 44.862915,74.194244 
	C44.660107,71.027420 44.477245,68.172058 44.297039,65.358131 
	C41.971344,65.358131 40.202343,65.358131 38.279491,65.358131 
	C38.279491,73.141266 38.279491,80.688354 38.279491,88.217560 
	C40.485607,88.217560 42.374149,88.217560 44.422161,88.217560 
	C44.568394,85.044891 44.698078,82.231216 44.869026,78.522263 
	C47.884399,81.868050 50.005543,84.416237 52.332626,86.759933 
	C56.216022,90.671051 64.040169,89.131752 66.047691,84.175331 
	C67.578064,80.396965 69.153427,76.636826 71.163582,71.766670 
	C72.910881,76.334236 74.202187,79.709824 75.683907,83.583168 
	C72.665604,83.727692 70.580635,83.827515 68.419151,83.931007 
	C70.011169,89.095619 73.632103,89.980263 84.235863,87.872505 
	C81.477516,81.254074 78.626503,74.765839 76.094223,68.155510 
	C75.144409,65.676094 73.755440,65.046616 71.274384,65.041779 
	C68.665039,65.036690 67.011749,65.519562 65.988686,68.272217 
	C63.875771,73.957237 61.364815,79.494316 58.807602,85.593048 
	C55.936623,82.368637 53.537342,79.673996 51.102371,76.939278 
	C54.481724,73.006760 57.597664,69.380768 61.255676,65.123978 
	C59.406033,65.123978 58.743393,65.123978 57.319447,65.123718 
M107.523384,70.247490 
	C110.280228,70.247490 113.037071,70.247490 116.075813,70.247490 
	C115.945686,68.222054 115.855400,66.816673 115.772865,65.531952 
	C110.956535,65.531952 106.478218,65.224350 102.064316,65.625450 
	C98.263466,65.970833 96.117737,68.683617 96.190147,72.482208 
	C96.262169,76.259705 98.429085,78.659096 102.282707,79.183411 
	C104.249535,79.451019 106.292969,79.280243 108.215797,79.700775 
	C109.413193,79.962654 110.449883,80.959328 111.558701,81.626236 
	C110.490120,82.207603 109.447174,83.225800 108.348267,83.290283 
	C104.725746,83.502853 101.082985,83.370346 96.984970,83.370346 
	C97.078072,85.331963 97.150017,86.847664 97.225258,88.432938 
	C102.358315,88.432938 107.023438,88.741394 111.627029,88.341515 
	C115.783287,87.980507 118.256584,85.425804 118.024803,80.954643 
	C117.802055,76.657669 115.008904,74.921570 111.165596,74.447807 
	C109.689644,74.265869 108.131317,74.607323 106.692589,74.311363 
	C105.408188,74.047150 104.236839,73.233337 103.015602,72.662048 
	C104.202667,71.858635 105.389740,71.055214 107.523384,70.247490 
M128.535355,88.602028 
	C131.953445,89.200562 132.828751,87.588783 132.666458,84.399818 
	C132.433044,79.813103 132.606873,75.205650 132.606873,70.497513 
	C135.393661,70.321579 137.519745,70.187355 139.833206,70.041306 
	C139.833206,68.474510 139.833206,67.034561 139.833206,65.355988 
	C132.765610,65.355988 125.870697,65.355988 118.690125,65.355988 
	C118.690125,66.996429 118.690125,68.399597 118.690125,70.004189 
	C121.137299,70.171211 123.411209,70.326416 125.964279,70.500664 
	C125.964279,75.362740 125.839279,80.006882 126.042839,84.636581 
	C126.101524,85.971214 127.105995,87.264267 128.535355,88.602028 
M92.177284,86.090569 
	C92.177284,79.212364 92.177284,72.334160 92.177284,65.447235 
	C89.782860,65.447235 88.063103,65.447235 86.315933,65.447235 
	C86.315933,73.242538 86.315933,80.738655 86.315933,89.266243 
	C88.660469,88.351540 90.404381,87.671173 92.177284,86.090569 
M98.675346,122.923012 
	C99.006538,125.711052 99.337730,128.499100 99.668922,131.287140 
	C99.184814,131.567841 98.700714,131.848541 98.216606,132.129242 
	C100.518089,132.129242 102.819565,132.129242 104.552635,132.129242 
	C103.894783,128.353699 103.318436,125.045959 102.677742,121.368889 
	C101.457718,121.694969 100.259651,122.015182 98.675346,122.923012 
z"/>
<path fill="#D1E1F0" opacity="1.000000" stroke="none" 
	d="
M158.070786,132.025604 
	C156.246140,130.473404 154.574860,129.069839 153.540436,127.295097 
	C153.288696,126.863197 155.063370,124.385040 156.024979,124.306824 
	C157.603806,124.178391 159.870575,124.760834 160.799179,125.898788 
	C163.183380,128.820435 162.040176,131.048782 158.070786,132.025604 
z"/>
<path fill="#DEEAF4" opacity="1.000000" stroke="none" 
	d="
M168.015594,115.193573 
	C166.700897,116.005287 165.274185,117.150642 164.439255,116.816635 
	C162.805695,116.163155 160.879303,114.932533 160.290543,113.455833 
	C159.923538,112.535347 161.601349,109.751534 162.687988,109.548119 
	C164.270370,109.251923 166.352463,110.236061 167.804016,111.263893 
	C168.450607,111.721748 168.079987,113.616165 168.015594,115.193573 
z"/>
<path fill="#E3EDF6" opacity="1.000000" stroke="none" 
	d="
M159.144119,55.448826 
	C158.123093,55.478271 157.045044,55.509480 156.836685,55.099121 
	C156.171188,53.788361 155.828445,52.313725 155.129623,50.203453 
	C156.760162,49.355892 159.043686,48.168903 162.691696,46.272644 
	C161.690689,48.843658 161.173721,50.171421 160.587341,51.677498 
	C161.546417,51.677498 162.758240,51.677498 163.970047,51.677498 
	C164.088684,51.983128 164.207336,52.288761 164.325974,52.594391 
	C162.712387,53.479084 161.098785,54.363777 159.144119,55.448826 
z"/>
<path fill="#DEEAF4" opacity="1.000000" stroke="none" 
	d="
M148.417694,136.926849 
	C148.079453,136.144882 148.062988,135.494995 148.068207,134.519470 
	C150.265366,131.681198 152.938095,130.649857 155.146713,133.584869 
	C156.066040,134.806564 155.274872,137.315414 155.261505,139.238968 
	C154.559219,139.119751 153.856934,139.000519 153.514099,138.355347 
	C153.739258,136.942673 153.604935,136.055939 153.470612,135.169205 
	C153.094879,135.885254 152.719131,136.601303 152.343384,137.317352 
	C151.142075,137.231216 149.940781,137.145081 148.417694,136.926849 
z"/>
<path fill="#DEEAF4" opacity="1.000000" stroke="none" 
	d="
M165.424194,91.443451 
	C167.870209,91.717148 169.936920,92.007729 173.322968,92.483810 
	C171.205276,93.549911 170.220688,94.045586 168.619843,94.851494 
	C169.824905,95.849785 170.824646,96.677963 172.932037,98.423737 
	C169.183411,98.185028 166.559647,98.017952 163.935898,97.850876 
	C163.883316,97.516342 163.830750,97.181801 163.778168,96.847267 
	C164.821899,96.391251 165.865631,95.935242 166.929352,95.470497 
	C166.268448,94.064064 165.656677,92.762207 165.424194,91.443451 
z"/>
<path fill="#CADCED" opacity="1.000000" stroke="none" 
	d="
M171.286896,76.327164 
	C171.677383,77.828178 171.760254,79.067520 171.843140,80.306854 
	C171.563446,80.407890 171.283768,80.508926 171.004089,80.609955 
	C170.549286,79.917427 170.094467,79.224892 169.482239,78.292656 
	C169.073349,79.160561 168.715073,79.921059 168.138702,81.144455 
	C167.392044,80.151062 166.805878,79.371201 165.929352,78.205025 
	C165.503845,79.607986 165.160431,80.740265 164.427597,83.156525 
	C163.779037,80.409271 163.430679,78.933647 162.879044,76.596909 
	C165.903000,76.398514 168.441147,76.231995 171.286896,76.327164 
z"/>
<path fill="#E3EDF6" opacity="1.000000" stroke="none" 
	d="
M157.908585,41.496681 
	C156.988998,44.236237 155.770325,46.697369 154.393311,49.478287 
	C152.843323,47.048054 151.787308,45.392300 150.400635,43.218124 
	C152.477509,42.641964 155.043503,41.930107 157.908585,41.496681 
z"/>
<path fill="#DEEAF4" opacity="1.000000" stroke="none" 
	d="
M145.393723,38.787395 
	C143.543533,36.954391 143.336075,35.188541 145.892349,33.476269 
	C148.478043,30.980324 150.688110,30.141989 151.847214,33.353874 
	C149.656036,35.269875 147.706665,36.974457 145.393723,38.787395 
z"/>
<path fill="#D7E8F4" opacity="1.000000" stroke="none" 
	d="
M148.386597,146.748657 
	C146.839859,144.777740 145.618774,142.673080 144.542786,140.496689 
	C144.479645,140.368973 145.587509,139.662323 146.483994,139.403000 
	C148.494049,140.443207 150.170547,141.305481 151.325699,141.899612 
	C150.409241,143.567978 149.576721,145.083542 148.386597,146.748657 
z"/>
<path fill="#EFF8FD" opacity="1.000000" stroke="none" 
	d="
M13.015081,89.995689 
	C13.066186,91.375793 13.117289,92.755898 13.074515,94.540375 
	C10.552317,94.944740 8.123994,94.944740 5.467088,94.944740 
	C4.282657,90.702988 5.714858,88.578217 10.479906,88.450912 
	C11.702148,89.087204 12.358615,89.541451 13.015081,89.995689 
z"/>
<path fill="#E2F3FB" opacity="1.000000" stroke="none" 
	d="
M14.928011,48.334129 
	C17.191647,49.330868 19.317614,50.624889 22.032446,52.277340 
	C21.713385,53.108330 21.174068,54.512978 20.492701,56.287598 
	C18.344505,55.391144 16.566807,54.649300 14.436108,53.783691 
	C14.318852,51.983757 14.554598,50.307590 14.928011,48.334129 
z"/>
<path fill="#56BEEC" opacity="1.000000" stroke="none" 
	d="
M13.693310,64.136520 
	C14.298307,67.386742 14.694098,70.769669 14.810846,74.162201 
	C14.836693,74.913246 13.876378,75.698227 13.182347,76.733414 
	C12.497656,76.982658 12.000763,76.966064 11.181099,76.616257 
	C10.574507,75.790771 10.290687,75.298500 10.006866,74.806221 
	C10.770510,73.881599 11.534154,72.956985 12.408657,71.898140 
	C10.785505,69.209518 9.097012,66.338661 13.693310,64.136520 
z"/>
<path fill="#E8F6FC" opacity="1.000000" stroke="none" 
	d="
M15.005241,106.945068 
	C15.257675,109.386688 18.157593,111.675804 15.141995,114.813347 
	C14.677781,115.630859 14.429783,115.841827 14.111729,115.970436 
	C12.461680,114.603653 10.811631,113.236870 8.768900,111.544823 
	C10.090771,110.538544 11.959438,109.116020 14.231724,107.394768 
	C14.635341,107.096046 15.005241,106.945068 15.005241,106.945068 
z"/>
<path fill="#E2F3FB" opacity="1.000000" stroke="none" 
	d="
M14.032141,116.305862 
	C14.429783,115.841827 14.677781,115.630859 14.958887,115.111465 
	C16.681091,116.341003 18.300133,117.796577 19.943317,119.588493 
	C17.564922,120.919174 15.162381,121.913513 12.400341,122.893494 
	C11.637918,121.496277 11.234993,120.113434 10.681999,118.215538 
	C12.092632,118.779610 12.990220,119.138527 14.173625,119.122879 
	C14.321488,118.502594 14.183536,118.256882 14.045583,118.011162 
	C14.014572,117.554543 13.983562,117.097916 14.032141,116.305862 
z"/>
<path fill="#E2F3FB" opacity="1.000000" stroke="none" 
	d="
M12.691998,96.215363 
	C13.396209,98.216064 13.794002,100.385323 14.128045,102.916183 
	C11.371818,102.828239 8.679340,102.378708 5.986863,101.929176 
	C5.852253,101.407021 5.717643,100.884865 5.583033,100.362709 
	C7.850548,99.036446 10.118064,97.710182 12.691998,96.215363 
z"/>
<path fill="#DDEEF8" opacity="1.000000" stroke="none" 
	d="
M12.891235,55.884872 
	C13.743361,57.468212 14.220688,58.971844 14.698015,60.475479 
	C15.824673,59.594486 16.951330,58.713490 18.019648,57.878117 
	C19.284052,61.333462 19.258125,61.377056 14.384888,62.997322 
	C9.452452,59.953266 9.212079,58.788879 12.891235,55.884872 
z"/>
<path fill="#E2F3FB" opacity="1.000000" stroke="none" 
	d="
M12.291178,82.118698 
	C12.828696,82.864426 13.015962,83.581520 12.933002,84.741386 
	C12.349095,85.291367 12.106249,85.486649 11.934238,85.769997 
	C9.737426,86.109428 7.540613,86.448853 5.343801,86.788284 
	C5.207224,86.449890 5.070648,86.111496 4.934072,85.773094 
	C6.359405,85.049667 7.784737,84.326241 9.215239,83.598358 
	C7.882439,82.852432 6.544472,82.110962 5.206505,81.369492 
	C5.321465,81.010880 5.436426,80.652267 5.551386,80.293648 
	C7.681231,80.892464 9.811077,81.491272 12.291178,82.118698 
z"/>
<path fill="#56BEEC" opacity="1.000000" stroke="none" 
	d="
M11.923493,86.141685 
	C12.106249,85.486649 12.349095,85.291367 12.891325,85.115990 
	C13.260291,86.545662 13.400710,88.043495 13.278105,89.768509 
	C12.358615,89.541451 11.702148,89.087204 10.836439,88.415222 
	C11.055716,87.636124 11.484232,87.074745 11.923493,86.141685 
z"/>
<path fill="#56BEEC" opacity="1.000000" stroke="none" 
	d="
M14.977186,106.632271 
	C15.005241,106.945068 14.635341,107.096046 14.437904,107.123032 
	C13.989698,106.232979 13.738929,105.315941 13.749703,104.199203 
	C14.323875,104.772820 14.636503,105.546143 14.977186,106.632271 
z"/>
<path fill="#D2E6F3" opacity="1.000000" stroke="none" 
	d="
M9.727303,74.891708 
	C10.290687,75.298500 10.574507,75.790771 10.809473,76.584686 
	C10.017648,76.477173 9.274676,76.068016 8.531706,75.658859 
	C8.837051,75.431641 9.142396,75.204414 9.727303,74.891708 
z"/>
<path fill="#E8F6FC" opacity="1.000000" stroke="none" 
	d="
M14.032749,118.253235 
	C14.183536,118.256882 14.321488,118.502594 14.322483,118.849640 
	C14.185525,118.950958 14.019916,118.495308 14.032749,118.253235 
z"/>
<path fill="#DDEEF8" opacity="1.000000" stroke="none" 
	d="
M63.395851,17.175358 
	C61.563042,15.016940 60.111862,12.801161 58.660679,10.585382 
	C59.166313,10.303223 59.671947,10.021063 60.177582,9.738903 
	C61.352718,11.561735 62.527855,13.384567 63.702988,15.207399 
	C64.066673,15.049629 64.430367,14.891860 64.794052,14.734090 
	C64.464912,12.747634 64.135773,10.761179 63.886639,8.380414 
	C67.940865,11.943862 67.878151,14.971174 63.395851,17.175358 
z"/>
<path fill="#D2E6F3" opacity="1.000000" stroke="none" 
	d="
M80.995552,8.012675 
	C81.027000,8.440080 81.058456,8.867484 80.693726,9.645983 
	C79.964172,10.262921 79.630791,10.528767 79.297409,10.794611 
	C79.859039,10.914725 80.420670,11.034841 80.982300,11.154955 
	C81.377365,11.612748 81.772430,12.070541 82.106735,12.843565 
	C80.573517,13.361493 79.101067,13.564192 77.121239,13.836735 
	C76.694908,11.043448 76.285652,8.362081 75.736328,4.762941 
	C77.793953,5.377855 78.938271,5.719831 80.455200,6.060601 
	C80.827805,6.059395 80.832748,6.402820 80.549454,6.603421 
	C79.723763,6.990760 79.181366,7.177498 77.481552,7.762708 
	C79.461800,7.903572 80.228676,7.958124 80.995552,8.012675 
z"/>
<path fill="#D7E8F4" opacity="1.000000" stroke="none" 
	d="
M72.371033,8.472433 
	C72.508575,10.672718 72.801270,12.538379 73.093956,14.404040 
	C72.702042,14.554483 72.310127,14.704926 71.918205,14.855371 
	C70.636330,12.487158 69.354454,10.118946 67.774994,7.200979 
	C69.312347,6.824653 70.963318,6.420515 72.614288,6.016376 
	C72.584923,6.723521 72.555550,7.430665 72.371033,8.472433 
z"/>
<path fill="#D2E6F3" opacity="1.000000" stroke="none" 
	d="
M78.602821,162.066040 
	C78.686356,164.764618 78.424095,167.512512 78.174973,170.623871 
	C75.988350,170.508133 73.788582,170.028915 71.275703,169.481476 
	C71.977142,165.292603 74.528069,163.168976 78.602821,162.066040 
z"/>
<path fill="#EFF8FD" opacity="1.000000" stroke="none" 
	d="
M60.972054,166.054855 
	C60.214684,165.299133 59.457317,164.543411 58.699951,163.787689 
	C59.641109,163.192184 60.547970,162.530518 61.533043,162.019699 
	C62.526440,161.504578 63.597481,161.139175 64.810516,160.330658 
	C66.762871,160.901077 66.923553,162.422989 64.997208,165.753250 
	C63.254078,165.850998 62.113064,165.952927 60.972054,166.054855 
z"/>
<path fill="#FDFEFE" opacity="1.000000" stroke="none" 
	d="
M61.079994,166.339386 
	C62.113064,165.952927 63.254078,165.850998 64.703171,165.876984 
	C64.582771,166.914093 64.154289,167.823288 63.429359,168.830627 
	C62.484581,168.160477 61.836254,167.392181 61.079994,166.339386 
z"/>
<path fill="#EFF8FD" opacity="1.000000" stroke="none" 
	d="
M64.904076,159.747726 
	C64.489632,159.924194 63.926731,159.848557 63.220726,159.470673 
	C63.636948,159.277496 64.196289,159.386566 64.904076,159.747726 
z"/>
<path fill="#DDEEF8" opacity="1.000000" stroke="none" 
	d="
M93.593109,5.102613 
	C94.280289,6.543693 94.623726,7.914139 95.013138,9.641768 
	C93.712692,12.357556 91.790413,14.282786 89.187950,12.427325 
	C87.988312,11.572026 87.258858,8.975838 87.526985,7.371343 
	C88.063438,4.161217 90.586098,4.010802 93.593109,5.102613 
z"/>
<path fill="#D2E6F3" opacity="1.000000" stroke="none" 
	d="
M96.752243,10.424024 
	C96.993797,8.409959 97.261536,6.828940 97.594780,4.861167 
	C99.396469,5.142515 100.924309,5.381098 102.452148,5.619682 
	C102.497787,5.894759 102.543434,6.169835 102.589073,6.444912 
	C101.571983,6.823751 100.554901,7.202591 98.993111,7.784320 
	C99.977936,8.437946 100.681023,8.904584 100.991508,9.110656 
	C99.935730,10.433334 98.801025,11.854879 97.311203,13.350100 
	C96.896866,12.568206 96.837646,11.712638 96.752243,10.424024 
z"/>
<path fill="#2991CF" opacity="1.000000" stroke="none" 
	d="
M80.976860,7.694263 
	C80.228676,7.958124 79.461800,7.903572 77.481552,7.762708 
	C79.181366,7.177498 79.723763,6.990760 80.577164,6.772902 
	C80.911499,6.953136 80.934830,7.164493 80.976860,7.694263 
z"/>
<path fill="#2991CF" opacity="1.000000" stroke="none" 
	d="
M80.983170,10.848969 
	C80.420670,11.034841 79.859039,10.914725 79.297409,10.794611 
	C79.630791,10.528767 79.964172,10.262921 80.634903,9.964097 
	C80.976181,10.135072 80.980103,10.339026 80.983170,10.848969 
z"/>
<path fill="#DEEAF4" opacity="1.000000" stroke="none" 
	d="
M109.573914,12.426529 
	C109.435440,10.922326 109.296967,9.418123 109.158493,7.913921 
	C110.509628,8.353861 111.860764,8.793798 113.211891,9.233734 
	C113.119850,9.362873 113.053734,9.560968 112.930557,9.607274 
	C112.644608,9.714768 112.331116,9.748980 111.531807,9.578550 
	C110.781746,9.413610 110.528656,9.483009 110.275574,9.552410 
	C110.475800,9.740110 110.676018,9.927811 110.876244,10.115511 
	C111.393944,11.659750 111.911644,13.203988 112.429352,14.748224 
	C110.850685,14.912957 109.272011,15.077691 107.348618,15.118610 
	C106.947777,14.538491 106.891663,14.082187 106.912575,13.289112 
	C107.366783,13.027131 107.743958,13.101920 108.579865,13.464825 
	C109.460945,13.748542 109.883293,13.744143 110.305649,13.739745 
	C110.061737,13.302007 109.817825,12.864268 109.573914,12.426529 
z"/>
<path fill="#FEFEFF" opacity="1.000000" stroke="none" 
	d="
M91.970718,166.990250 
	C91.881180,168.795166 91.791641,170.600098 91.512833,172.743103 
	C89.296410,172.283691 87.269249,171.486176 85.346878,170.287216 
	C85.795609,169.722610 85.917343,169.457428 85.881699,168.789566 
	C85.962196,168.284454 85.977867,168.080002 86.240814,167.819611 
	C86.672424,167.506531 86.856766,167.249390 87.351746,166.862152 
	C88.458397,165.538971 89.254410,164.345871 90.050423,163.152756 
	C90.461662,163.143890 90.872910,163.135025 91.591110,163.177628 
	C91.882896,163.633743 91.867722,164.038376 91.642479,164.896790 
	C91.611839,165.897141 91.791275,166.443695 91.970718,166.990250 
z"/>
<path fill="#CADCED" opacity="1.000000" stroke="none" 
	d="
M89.769859,163.149597 
	C89.254410,164.345871 88.458397,165.538971 87.090508,166.876740 
	C86.347069,166.990494 86.175514,166.959595 86.010773,166.958923 
	C86.017593,166.989151 86.072617,166.959045 86.072617,166.959045 
	C85.726631,166.483810 85.380646,166.008575 85.020187,164.973297 
	C85.085281,163.976364 85.164841,163.539459 85.244400,163.102554 
	C85.244400,163.102554 85.606911,163.168472 85.773972,163.397873 
	C86.632477,163.683945 87.323921,163.740601 88.015350,163.797272 
	C88.506668,163.580322 88.997986,163.363388 89.769859,163.149597 
z"/>
<path fill="#2B93D0" opacity="1.000000" stroke="none" 
	d="
M87.970261,163.513977 
	C87.323921,163.740601 86.632477,163.683945 85.951752,163.349579 
	C86.616699,163.124802 87.270935,163.177750 87.970261,163.513977 
z"/>
<path fill="#2B93D0" opacity="1.000000" stroke="none" 
	d="
M84.932358,163.089722 
	C85.164841,163.539459 85.085281,163.976364 84.863922,164.715485 
	C84.270996,164.705780 83.819870,164.393875 83.368752,164.081970 
	C83.785942,163.746948 84.203133,163.411926 84.932358,163.089722 
z"/>
<path fill="#78B8DE" opacity="1.000000" stroke="none" 
	d="
M85.993546,167.875534 
	C85.977867,168.080002 85.962196,168.284454 85.660263,168.806366 
	C85.373993,169.123825 84.951828,169.262115 84.951828,169.262115 
	C85.145981,168.556976 85.340134,167.851822 85.803452,167.052856 
	C86.072617,166.959045 86.017593,166.989151 86.040260,167.196136 
	C86.062927,167.403122 85.993546,167.875534 85.993546,167.875534 
z"/>
<path fill="#2B93D0" opacity="1.000000" stroke="none" 
	d="
M84.958328,169.433655 
	C84.951828,169.262115 85.373993,169.123825 85.595428,169.107025 
	C85.917343,169.457428 85.795609,169.722610 85.216385,169.916962 
	C84.981110,169.948151 84.964828,169.605209 84.958328,169.433655 
z"/>
<path fill="#E8F6FC" opacity="1.000000" stroke="none" 
	d="
M92.237595,166.892212 
	C91.791275,166.443695 91.611839,165.897141 91.639664,165.200562 
	C92.066109,165.631760 92.285286,166.212967 92.237595,166.892212 
z"/>
<path fill="#41ABE0" opacity="1.000000" stroke="none" 
	d="
M37.880577,35.872375 
	C34.506363,41.209450 30.825287,46.306252 26.923294,51.683334 
	C26.113457,51.122093 25.524538,50.280567 24.978909,48.768532 
	C24.999325,46.438358 24.976450,44.778706 24.953577,43.119049 
	C25.106789,41.869114 25.260000,40.619183 25.418610,39.325211 
	C27.670076,39.501118 29.592756,39.651337 31.515436,39.801556 
	C31.595228,39.434837 31.675022,39.068119 31.754814,38.701401 
	C30.499119,38.020454 29.243422,37.339504 28.205856,36.776844 
	C29.639597,35.403694 30.824831,34.268547 32.314743,32.608673 
	C34.012611,32.269375 35.405804,32.454811 36.798992,32.640247 
	C37.057232,33.637531 37.315472,34.634811 37.880577,35.872375 
z"/>
<path fill="#42AEE2" opacity="1.000000" stroke="none" 
	d="
M24.052710,121.747284 
	C27.460596,125.970871 30.692047,130.541000 34.020668,135.428238 
	C33.769524,136.581390 33.421215,137.417419 32.755417,138.628235 
	C32.073322,139.120392 31.708725,139.237778 31.133976,139.149170 
	C30.772264,138.818619 30.620703,138.694061 30.463640,138.248932 
	C29.622091,137.152710 28.786045,136.377075 27.888844,135.185226 
	C27.837061,130.793091 25.693811,129.540817 22.031944,129.870285 
	C22.026567,129.109390 22.031698,128.674927 22.320234,128.005936 
	C22.414230,127.025826 22.224819,126.280235 22.015358,125.214294 
	C21.939653,124.467247 21.883995,124.040550 21.794868,123.457489 
	C21.761400,123.301117 21.835974,122.990105 21.835974,122.990105 
	C22.516075,122.691345 23.196175,122.392586 24.052710,121.747284 
z"/>
<path fill="#E2F3FB" opacity="1.000000" stroke="none" 
	d="
M24.678873,42.996113 
	C24.976450,44.778706 24.999325,46.438358 24.940464,48.416351 
	C20.601027,51.879330 19.480228,46.086807 16.302441,46.154736 
	C16.137421,45.716213 15.972402,45.277691 15.807383,44.839169 
	C17.614965,43.651295 19.422550,42.463421 21.576523,41.274010 
	C22.749998,41.806042 23.577084,42.339611 24.678873,42.996113 
z"/>
<path fill="#E8F6FC" opacity="1.000000" stroke="none" 
	d="
M22.035408,125.534645 
	C22.224819,126.280235 22.414230,127.025826 22.018188,128.060333 
	C20.248421,129.103043 19.064106,129.856827 17.879791,130.610626 
	C16.737867,129.220154 15.465200,127.902359 14.605166,126.355186 
	C14.486065,126.140930 16.374046,124.750076 17.393400,123.984512 
	C18.117477,123.440712 18.943340,123.032448 19.848938,122.214226 
	C20.484060,122.082916 20.994013,122.301064 21.669971,122.754654 
	C21.835974,122.990105 21.761400,123.301117 21.548054,123.645889 
	C20.995140,124.485016 20.655571,124.979370 20.034622,125.883377 
	C20.978266,125.718903 21.506838,125.626770 22.035408,125.534645 
z"/>
<path fill="#56BEEC" opacity="1.000000" stroke="none" 
	d="
M15.858945,67.141129 
	C15.892847,66.531197 16.114981,66.088936 16.337116,65.646667 
	C16.523901,65.829216 16.900280,66.117104 16.866840,66.177299 
	C16.642281,66.581497 16.330610,66.937302 15.858945,67.141129 
z"/>
<path fill="#DDEEF8" opacity="1.000000" stroke="none" 
	d="
M46.898979,25.532465 
	C45.744415,23.028955 44.759296,20.179689 43.774178,17.330423 
	C42.537952,18.275108 41.301731,19.219791 40.065510,20.164474 
	C41.579124,18.964947 43.092739,17.765417 44.768185,16.437639 
	C45.524193,18.900753 46.076321,20.699619 46.869545,22.750080 
	C47.096569,23.730019 47.082497,24.458364 46.898979,25.532465 
z"/>
<path fill="#36A3DB" opacity="1.000000" stroke="none" 
	d="
M50.551178,13.467484 
	C50.584545,13.523084 50.517815,13.411883 50.551178,13.467484 
z"/>
<path fill="#DDEEF8" opacity="1.000000" stroke="none" 
	d="
M38.548973,30.905258 
	C38.856838,29.779364 39.537643,28.641731 39.988087,27.889027 
	C38.173367,27.410807 36.134819,26.873606 34.096272,26.336403 
	C34.885746,25.046360 35.675220,23.756317 36.732845,22.238144 
	C37.469589,22.637947 37.938183,23.265886 38.406780,23.893824 
	C38.258778,23.973080 38.110779,24.052336 37.962776,24.131592 
	C39.388901,25.188667 40.815022,26.245741 42.241146,27.302818 
	C41.134735,28.499720 40.028324,29.696621 38.548973,30.905258 
z"/>
<path fill="#CADCED" opacity="1.000000" stroke="none" 
	d="
M36.783844,32.384029 
	C35.405804,32.454811 34.012611,32.269375 32.290794,32.265369 
	C32.024704,31.938528 32.087242,31.430254 32.233795,30.552832 
	C33.551441,30.402020 34.785072,30.620358 36.303013,30.978527 
	C36.647781,31.454842 36.708237,31.791327 36.783844,32.384029 
z"/>
<path fill="#78B8DE" opacity="1.000000" stroke="none" 
	d="
M50.016769,154.005646 
	C50.973740,154.743698 51.930702,155.481735 52.887665,156.219772 
	C52.127575,156.820618 51.282280,158.003143 50.624321,157.906769 
	C49.029022,157.673080 45.889442,159.466995 47.022667,155.331116 
	C48.384766,154.808105 49.200768,154.406876 50.016769,154.005646 
z"/>
<path fill="#39A6DD" opacity="1.000000" stroke="none" 
	d="
M49.678490,154.000870 
	C49.200768,154.406876 48.384766,154.808105 47.288124,155.081573 
	C47.785053,154.634567 48.562630,154.315338 49.678490,154.000870 
z"/>
<path fill="#E8F6FC" opacity="1.000000" stroke="none" 
	d="
M31.344124,139.355164 
	C31.708725,139.237778 32.073322,139.120392 32.722961,138.966888 
	C32.793644,139.861160 32.579292,140.791565 32.193512,141.963379 
	C30.338533,142.684570 28.654991,143.164352 27.151375,143.247833 
	C27.204691,142.706543 27.078079,142.561554 26.951471,142.416565 
	C26.214880,142.313324 25.478287,142.210083 24.372894,142.053223 
	C25.457413,140.097748 26.910734,138.195892 28.167614,135.932312 
	C27.971172,135.570618 27.949999,135.601425 27.949999,135.601425 
	C28.786045,136.377075 29.622091,137.152710 30.320200,138.451660 
	C30.569548,139.101685 30.956835,139.228424 31.344124,139.355164 
z"/>
<path fill="#42AEE2" opacity="1.000000" stroke="none" 
	d="
M38.455734,151.649536 
	C37.320858,151.064835 36.498684,150.330627 35.676510,149.596405 
	C36.260586,149.174789 36.844658,148.753159 37.428734,148.331543 
	C37.875301,149.387695 38.321869,150.443863 38.455734,151.649536 
z"/>
<path fill="#52B9E8" opacity="1.000000" stroke="none" 
	d="
M26.951672,142.547882 
	C27.078079,142.561554 27.204691,142.706543 27.153048,142.896149 
	C26.974792,142.940781 26.951872,142.679184 26.951672,142.547882 
z"/>
<path fill="#EFF8FD" opacity="1.000000" stroke="none" 
	d="
M27.888844,135.185226 
	C27.949999,135.601425 27.971172,135.570618 27.969742,135.556000 
	C25.117201,137.063675 22.277321,140.225632 19.197855,135.300079 
	C19.060514,134.574982 19.109438,134.149979 19.402023,133.226166 
	C20.444609,131.883820 21.243530,131.040268 22.042452,130.196701 
	C25.693811,129.540817 27.837061,130.793091 27.888844,135.185226 
z"/>
<path fill="#52B9E8" opacity="1.000000" stroke="none" 
	d="
M22.031944,129.870285 
	C21.243530,131.040268 20.444609,131.883820 19.413731,132.905396 
	C18.783142,132.505127 18.384508,131.926819 17.932831,130.979584 
	C19.064106,129.856827 20.248421,129.103043 21.734783,128.294861 
	C22.031698,128.674927 22.026567,129.109390 22.031944,129.870285 
z"/>
<path fill="#DEEAF4" opacity="1.000000" stroke="none" 
	d="
M133.608459,21.564949 
	C134.450668,20.556936 135.070053,19.839548 136.738266,17.907360 
	C136.947327,22.451372 137.092087,25.598198 137.236862,28.745024 
	C136.620804,28.809450 136.004745,28.873878 135.388687,28.938305 
	C135.006027,27.726170 134.623367,26.514034 134.242065,25.306248 
	C133.221695,25.525915 132.242126,25.736795 130.511642,26.109335 
	C131.768448,24.249136 132.577026,23.052355 133.608459,21.564949 
z"/>
<path fill="#D2E6F3" opacity="1.000000" stroke="none" 
	d="
M120.576492,12.668844 
	C119.377365,13.028437 118.178230,13.388028 116.979103,13.747618 
	C117.618401,15.205680 118.257690,16.663742 119.289520,19.017059 
	C117.713882,18.277754 115.484314,17.894331 115.225960,16.963688 
	C114.776031,15.342942 114.974419,12.897586 115.981079,11.725496 
	C116.756287,10.822883 119.188026,11.342982 120.837662,11.743894 
	C120.792160,12.257327 120.576492,12.668843 120.576492,12.668844 
z"/>
<path fill="#D2E6F3" opacity="1.000000" stroke="none" 
	d="
M120.946083,12.083338 
	C121.056366,12.232495 121.012718,12.555641 120.772781,12.773815 
	C120.576492,12.668843 120.792160,12.257327 120.946083,12.083338 
z"/>
<path fill="#E3EDF6" opacity="1.000000" stroke="none" 
	d="
M125.628387,163.879761 
	C125.095726,163.157455 124.887093,162.456070 124.782837,161.148102 
	C124.602966,160.574432 124.318703,160.607330 124.034439,160.640228 
	C123.645340,158.697968 119.553192,157.565079 122.940445,154.587708 
	C123.957726,154.375351 124.800255,154.410889 125.870621,155.031097 
	C126.744133,156.066040 127.389824,156.516342 128.035507,156.966644 
	C128.037430,157.420929 128.039352,157.875198 127.740044,158.786575 
	C125.868629,161.417984 127.441185,161.748352 129.079575,162.040085 
	C128.037186,162.660278 126.994804,163.280487 125.628387,163.879761 
z"/>
<path fill="#399FD7" opacity="1.000000" stroke="none" 
	d="
M129.055756,162.017639 
	C127.441185,161.748352 125.868629,161.417984 127.728127,159.130310 
	C129.023056,159.494675 130.028671,159.972366 131.017700,160.724518 
	C131.001114,160.998962 130.991730,161.010773 130.991730,161.010773 
	C130.991730,161.010773 130.513855,160.988998 129.942841,161.010254 
	C129.256561,161.374268 129.141312,161.717041 129.026047,162.059799 
	C129.026047,162.059799 129.031937,161.995193 129.055756,162.017639 
z"/>
<path fill="#78B8DE" opacity="1.000000" stroke="none" 
	d="
M128.027313,156.640625 
	C127.389824,156.516342 126.744133,156.066040 126.087662,155.271194 
	C126.724297,155.389282 127.371719,155.851944 128.027313,156.640625 
z"/>
<path fill="#399FD7" opacity="1.000000" stroke="none" 
	d="
M131.007797,160.993500 
	C131.145355,161.138550 131.276245,161.289047 131.407135,161.439545 
	C131.309616,161.393890 131.212082,161.348236 131.053146,161.156677 
	C130.991730,161.010773 131.001114,160.998962 131.007797,160.993500 
z"/>
<path fill="#E3EDF6" opacity="1.000000" stroke="none" 
	d="
M129.317169,162.045166 
	C129.141312,161.717041 129.256561,161.374268 129.703674,161.007904 
	C129.893112,161.333023 129.750717,161.681778 129.317169,162.045166 
z"/>
<path fill="#D7E8F4" opacity="1.000000" stroke="none" 
	d="
M113.046753,166.990143 
	C111.827484,165.929688 110.608215,164.869232 108.517769,163.051056 
	C112.099358,161.787628 114.896362,160.800980 117.896957,159.742493 
	C118.343628,162.104263 118.642937,163.686813 118.621529,165.633453 
	C116.874146,166.331085 115.447472,166.664627 113.777229,167.003113 
	C113.533661,167.008057 113.046753,166.990143 113.046753,166.990143 
z"/>
<path fill="#CADCED" opacity="1.000000" stroke="none" 
	d="
M114.020798,166.998169 
	C115.447472,166.664627 116.874146,166.331085 118.676117,165.983246 
	C119.051414,165.968933 119.012024,165.982559 119.014107,166.239716 
	C119.015251,166.680222 119.014320,166.863602 119.013382,167.046967 
	C117.976593,167.417831 116.939804,167.788712 115.290802,168.021088 
	C114.459328,167.587784 114.240067,167.292969 114.020798,166.998169 
z"/>
<path fill="#FDFEFE" opacity="1.000000" stroke="none" 
	d="
M113.777237,167.003113 
	C114.240067,167.292969 114.459328,167.587784 114.946793,167.968597 
	C114.485916,167.927856 113.756836,167.801132 113.037254,167.332275 
	C113.046753,166.990143 113.533661,167.008057 113.777237,167.003113 
z"/>
<path fill="#399FD7" opacity="1.000000" stroke="none" 
	d="
M124.106895,160.739288 
	C124.318703,160.607330 124.602966,160.574432 124.757759,160.782959 
	C124.628288,161.024368 124.179352,160.838364 124.106895,160.739288 
z"/>
<path fill="#D7E8F4" opacity="1.000000" stroke="none" 
	d="
M119.226730,166.972992 
	C119.014320,166.863602 119.015251,166.680222 119.022346,166.221710 
	C119.165695,166.264038 119.302887,166.581512 119.226730,166.972992 
z"/>
<path fill="#12599F" opacity="1.000000" stroke="none" 
	d="
M57.700104,65.123848 
	C58.743393,65.123978 59.406033,65.123978 61.255676,65.123978 
	C57.597664,69.380768 54.481724,73.006760 51.102371,76.939278 
	C53.537342,79.673996 55.936623,82.368637 58.807602,85.593048 
	C61.364815,79.494316 63.875771,73.957237 65.988686,68.272217 
	C67.011749,65.519562 68.665039,65.036690 71.274384,65.041779 
	C73.755440,65.046616 75.144409,65.676094 76.094223,68.155510 
	C78.626503,74.765839 81.477516,81.254074 84.235863,87.872505 
	C73.632103,89.980263 70.011169,89.095619 68.419151,83.931007 
	C70.580635,83.827515 72.665604,83.727692 75.683907,83.583168 
	C74.202187,79.709824 72.910881,76.334236 71.163582,71.766670 
	C69.153427,76.636826 67.578064,80.396965 66.047691,84.175331 
	C64.040169,89.131752 56.216022,90.671051 52.332626,86.759933 
	C50.005543,84.416237 47.884399,81.868050 44.869026,78.522263 
	C44.698078,82.231216 44.568394,85.044891 44.422161,88.217560 
	C42.374149,88.217560 40.485607,88.217560 38.279491,88.217560 
	C38.279491,80.688354 38.279491,73.141266 38.279491,65.358131 
	C40.202343,65.358131 41.971344,65.358131 44.297039,65.358131 
	C44.477245,68.172058 44.660107,71.027420 44.862915,74.194244 
	C49.982433,72.044121 50.875843,64.711700 57.700104,65.123848 
z"/>
<path fill="#175CA1" opacity="1.000000" stroke="none" 
	d="
M107.050095,70.249641 
	C105.389740,71.055214 104.202667,71.858635 103.015602,72.662048 
	C104.236839,73.233337 105.408188,74.047150 106.692589,74.311363 
	C108.131317,74.607323 109.689644,74.265869 111.165596,74.447807 
	C115.008904,74.921570 117.802055,76.657669 118.024803,80.954643 
	C118.256584,85.425804 115.783287,87.980507 111.627029,88.341515 
	C107.023438,88.741394 102.358315,88.432938 97.225258,88.432938 
	C97.150017,86.847664 97.078072,85.331963 96.984970,83.370346 
	C101.082985,83.370346 104.725746,83.502853 108.348267,83.290283 
	C109.447174,83.225800 110.490120,82.207603 111.558701,81.626236 
	C110.449883,80.959328 109.413193,79.962654 108.215797,79.700775 
	C106.292969,79.280243 104.249535,79.451019 102.282707,79.183411 
	C98.429085,78.659096 96.262169,76.259705 96.190147,72.482208 
	C96.117737,68.683617 98.263466,65.970833 102.064316,65.625450 
	C106.478218,65.224350 110.956535,65.531952 115.772865,65.531952 
	C115.855400,66.816673 115.945686,68.222054 116.075813,70.247490 
	C113.037071,70.247490 110.280228,70.247490 107.050095,70.249641 
z"/>
<path fill="#145AA0" opacity="1.000000" stroke="none" 
	d="
M128.106110,88.589203 
	C127.105995,87.264267 126.101524,85.971214 126.042839,84.636581 
	C125.839279,80.006882 125.964279,75.362740 125.964279,70.500664 
	C123.411209,70.326416 121.137299,70.171211 118.690125,70.004189 
	C118.690125,68.399597 118.690125,66.996429 118.690125,65.355988 
	C125.870697,65.355988 132.765610,65.355988 139.833206,65.355988 
	C139.833206,67.034561 139.833206,68.474510 139.833206,70.041306 
	C137.519745,70.187355 135.393661,70.321579 132.606873,70.497513 
	C132.606873,75.205650 132.433044,79.813103 132.666458,84.399818 
	C132.828751,87.588783 131.953445,89.200562 128.106110,88.589203 
z"/>
<path fill="#0974BB" opacity="1.000000" stroke="none" 
	d="
M103.069069,93.820656 
	C109.067986,93.978767 115.066895,94.136879 121.520172,94.835602 
	C121.956367,97.327446 121.938202,99.278671 121.920036,101.229904 
	C115.891975,101.637589 109.863907,102.045273 103.446594,102.247818 
	C103.057343,102.042679 102.991356,101.890511 102.993515,101.473602 
	C103.020142,98.644684 103.044609,96.232666 103.069069,93.820656 
z"/>
<path fill="#2877BA" opacity="1.000000" stroke="none" 
	d="
M122.329468,101.364014 
	C121.938202,99.278671 121.956367,97.327446 121.950836,95.010559 
	C132.116867,95.466125 142.306595,96.287338 152.496323,97.108551 
	C152.523193,97.598351 152.550049,98.088150 152.576920,98.577950 
	C142.630905,99.551338 132.684906,100.524727 122.329468,101.364014 
z"/>
<path fill="#08529B" opacity="1.000000" stroke="none" 
	d="
M92.162788,86.540680 
	C90.404381,87.671173 88.660469,88.351540 86.315933,89.266243 
	C86.315933,80.738655 86.315933,73.242538 86.315933,65.447235 
	C88.063103,65.447235 89.782860,65.447235 92.177284,65.447235 
	C92.177284,72.334160 92.177284,79.212364 92.162788,86.540680 
z"/>
<path fill="#228FCE" opacity="1.000000" stroke="none" 
	d="
M85.002449,102.609474 
	C79.976158,102.441505 74.949860,102.273537 69.458344,101.598083 
	C68.997429,98.736183 69.001747,96.381767 69.006073,94.027344 
	C74.050438,93.752640 79.094803,93.477928 84.571907,93.715225 
	C85.003914,97.021317 85.003181,99.815392 85.002449,102.609474 
z"/>
<path fill="#399FD7" opacity="1.000000" stroke="none" 
	d="
M68.547768,93.937057 
	C69.001747,96.381767 68.997429,98.736183 68.999588,101.531631 
	C64.921669,101.806778 60.837261,101.640907 56.369118,100.920059 
	C56.009460,98.473228 56.033550,96.581367 56.057640,94.689507 
	C60.068245,94.408592 64.078857,94.127678 68.547768,93.937057 
z"/>
<path fill="#1F88C9" opacity="1.000000" stroke="none" 
	d="
M85.450928,102.698517 
	C85.003181,99.815392 85.003914,97.021317 85.003738,93.809441 
	C88.041283,93.327019 91.079742,93.262390 94.564087,93.707314 
	C95.009201,96.983696 95.008438,99.750519 95.007675,102.517349 
	C91.971588,102.607422 88.935501,102.697495 85.450928,102.698517 
z"/>
<path fill="#1C64A1" opacity="1.000000" stroke="none" 
	d="
M81.085663,131.249924 
	C81.372719,130.171677 82.238419,128.758499 81.842957,128.075317 
	C80.412491,125.604118 79.764015,123.023087 82.725189,121.919189 
	C84.110435,121.402779 86.389809,123.284836 88.632065,124.032272 
	C89.000191,123.984688 88.940186,123.987274 88.940186,123.987274 
	C88.789436,125.198036 88.658249,126.411621 88.484428,127.619064 
	C87.847778,132.041656 86.167206,133.036392 81.247169,131.488052 
	C81.053253,131.168991 81.085670,131.249924 81.085663,131.249924 
z"/>
<path fill="#41ABE0" opacity="1.000000" stroke="none" 
	d="
M55.662727,94.559464 
	C56.033550,96.581367 56.009460,98.473228 55.981171,100.787170 
	C51.910728,100.913063 47.844490,100.616867 43.382328,99.780128 
	C42.977634,98.097977 42.968868,96.956383 42.960098,95.814781 
	C47.062672,95.352997 51.165241,94.891212 55.662727,94.559464 
z"/>
<path fill="#1680C3" opacity="1.000000" stroke="none" 
	d="
M95.363159,102.566513 
	C95.008438,99.750519 95.009201,96.983696 95.010109,93.800575 
	C97.411613,93.429398 99.812973,93.474510 102.641701,93.670135 
	C103.044609,96.232666 103.020142,98.644684 102.587646,101.511871 
	C101.637383,102.023750 101.095169,102.080452 100.552948,102.137161 
	C98.941513,102.296669 97.330078,102.456177 95.363159,102.566513 
z"/>
<path fill="#2B6EA7" opacity="1.000000" stroke="none" 
	d="
M80.575104,131.277863 
	C81.085670,131.249924 81.053253,131.168991 81.072098,131.156265 
	C78.227280,131.746689 75.363617,132.349823 73.080627,132.830658 
	C73.371696,128.942368 73.587364,126.061371 73.803032,123.180367 
	C73.361389,123.018494 72.919754,122.856628 72.478119,122.694756 
	C73.763824,122.201538 75.049522,121.708313 76.447861,121.171883 
	C78.493782,124.454514 75.433411,129.296951 80.575104,131.277863 
z"/>
<path fill="#2B6EA7" opacity="1.000000" stroke="none" 
	d="
M98.868469,122.629211 
	C100.259651,122.015182 101.457718,121.694969 102.677742,121.368889 
	C103.318436,125.045959 103.894783,128.353699 104.552635,132.129242 
	C102.819565,132.129242 100.518089,132.129242 98.216606,132.129242 
	C98.700714,131.848541 99.184814,131.567841 99.668922,131.287140 
	C99.337730,128.499100 99.006538,125.711052 98.868469,122.629211 
z"/>
<path fill="#3071A9" opacity="1.000000" stroke="none" 
	d="
M88.994873,124.013969 
	C90.291458,119.087837 93.965370,122.039368 97.093895,121.340973 
	C95.783234,125.325706 94.629486,128.833389 93.169205,133.273026 
	C89.251320,130.190689 93.031288,127.260757 92.598167,124.315010 
	C91.796448,124.164101 90.753410,123.967758 89.325272,123.879349 
	C88.940186,123.987274 89.000191,123.984688 88.994873,124.013969 
z"/>
<path fill="#52B9E8" opacity="1.000000" stroke="none" 
	d="
M42.508945,95.789284 
	C42.968868,96.956383 42.977634,98.097977 42.984764,99.666992 
	C38.425179,99.749466 33.867226,99.404533 29.309275,99.059601 
	C29.260147,98.435936 29.211018,97.812263 29.161890,97.188599 
	C33.460522,96.713661 37.759159,96.238724 42.508945,95.789284 
z"/>
<path fill="#1F88C9" opacity="1.000000" stroke="none" 
	d="
M100.848251,102.299805 
	C101.095169,102.080452 101.637383,102.023750 102.585480,101.928772 
	C102.991356,101.890511 103.057343,102.042679 103.059387,102.125504 
	C102.422134,102.293037 101.782845,102.377739 100.848251,102.299805 
z"/>
<path fill="#2370B6" opacity="1.000000" stroke="none" 
	d="
M152.556885,137.547760 
	C152.719131,136.601303 153.094879,135.885254 153.470612,135.169205 
	C153.604935,136.055939 153.739258,136.942673 153.551941,138.017761 
	C153.077026,138.063446 152.923706,137.920807 152.556885,137.547760 
z"/>
<path fill="#177CBF" opacity="1.000000" stroke="none" 
	d="
M109.344749,12.652063 
	C109.817825,12.864268 110.061737,13.302007 110.305649,13.739745 
	C109.883293,13.744143 109.460945,13.748542 108.858780,13.551346 
	C108.824509,13.192367 108.970047,13.034982 109.344749,12.652063 
z"/>
<path fill="#177CBF" opacity="1.000000" stroke="none" 
	d="
M110.988052,10.008047 
	C110.676018,9.927811 110.475800,9.740110 110.275574,9.552410 
	C110.528656,9.483009 110.781746,9.413610 111.178856,9.514627 
	C111.322884,9.685044 111.099861,9.900584 110.988052,10.008047 
z"/>
<path fill="#2B93D0" opacity="1.000000" stroke="none" 
	d="
M86.240814,167.819611 
	C85.993546,167.875534 86.062927,167.403122 86.033447,167.165924 
	C86.175514,166.959595 86.347069,166.990494 86.779869,167.006821 
	C86.856766,167.249390 86.672424,167.506531 86.240814,167.819611 
z"/>
<path fill="#4CB6E7" opacity="1.000000" stroke="none" 
	d="
M22.015360,125.214294 
	C21.506838,125.626770 20.978266,125.718903 20.034622,125.883377 
	C20.655571,124.979370 20.995140,124.485016 21.581524,123.802261 
	C21.883995,124.040550 21.939653,124.467247 22.015360,125.214294 
z"/>
<path fill="#42AEE2" opacity="1.000000" stroke="none" 
	d="
M31.133974,139.149170 
	C30.956835,139.228424 30.569548,139.101685 30.325701,138.772247 
	C30.620703,138.694061 30.772264,138.818619 31.133974,139.149170 
z"/>
</svg>